<?xml version="1.0" encoding="UTF-8" standalone="no"?>
<svg
   xmlns:dc="http://purl.org/dc/elements/1.1/"
   xmlns:cc="http://creativecommons.org/ns#"
   xmlns:rdf="http://www.w3.org/1999/02/22-rdf-syntax-ns#"
   xmlns:svg="http://www.w3.org/2000/svg"
   xmlns="http://www.w3.org/2000/svg"
   xmlns:sodipodi="http://sodipodi.sourceforge.net/DTD/sodipodi-0.dtd"
   xmlns:inkscape="http://www.inkscape.org/namespaces/inkscape"
   width="26.458334mm"
   height="26.458334mm"
   viewBox="0 0 26.458334 26.458334"
   version="1.1"
   id="svg923"
   inkscape:version="1.0.1 (3bc2e813f5, 2020-09-07)"
   sodipodi:docname="child.svg">
  <defs
     id="defs917" />
  <sodipodi:namedview
     id="base"
     pagecolor="#ffffff"
     bordercolor="#666666"
     borderopacity="1.0"
     inkscape:pageopacity="0.0"
     inkscape:pageshadow="2"
     inkscape:zoom="1.979899"
     inkscape:cx="-35.745421"
     inkscape:cy="82.87166"
     inkscape:document-units="mm"
     inkscape:current-layer="layer1"
     inkscape:document-rotation="0"
     showgrid="false"
     fit-margin-top="0"
     fit-margin-left="0"
     fit-margin-right="0"
     fit-margin-bottom="0"
     inkscape:window-width="1681"
     inkscape:window-height="1022"
     inkscape:window-x="967"
     inkscape:window-y="157"
     inkscape:window-maximized="0" />
  <metadata
     id="metadata920">
    <rdf:RDF>
      <cc:Work
         rdf:about="">
        <dc:format>image/svg+xml</dc:format>
        <dc:type
           rdf:resource="http://purl.org/dc/dcmitype/StillImage" />
        <dc:title />
      </cc:Work>
    </rdf:RDF>
  </metadata>
  <g
     inkscape:label="Calque 1"
     inkscape:groupmode="layer"
     id="layer1"
     transform="translate(373.80541,-53.307683)">
    <g
       id="g3216"
       transform="matrix(0.44984101,0,0,0.44984101,-390.45896,-10.700698)"
       style="stroke:none;stroke-width:2.22301">
      <path
         style="fill:#ff5555;stroke:none;stroke-width:2.22301"
         d="m 59.514632,169.79039 c -0.390647,-1.42679 -0.133199,-7.60773 0.377989,-9.07496 0.35588,-1.02145 0.390766,-1.04378 1.52591,-0.97681 0.63894,0.0377 3.782674,0.16209 6.986082,0.27643 3.203406,0.11433 5.971932,0.29907 6.152277,0.41053 0.21119,0.13052 0.247494,0.36175 0.101991,0.64962 -0.336031,0.66484 -0.803092,3.45342 -0.806063,4.81259 -0.0013,0.65484 -0.0052,1.54781 -0.0083,1.98437 -0.0031,0.43657 -0.141663,1.22431 -0.307845,1.75055 -0.298845,0.94633 -0.321334,0.9586 -2.057419,1.12259 -0.965398,0.0912 -3.983104,0.16666 -6.70601,0.16769 l -3.83138,0.002 c -1.174077,0.11077 -1.136912,-0.0637 -1.427235,-1.12403 z"
         id="path2842"
         sodipodi:nodetypes="sssssscssscccs" />
      <path
         style="fill:#d35fbc;stroke:none;stroke-width:2.22301"
         d="m 75.015654,184.20518 c -0.873125,-0.0388 -1.825625,-0.17984 -2.116667,-0.31336 -0.291042,-0.13351 -1.211932,-0.28998 -2.04642,-0.34769 -2.573316,-0.17799 -2.628106,-0.29866 -2.4218,-5.33416 0.09583,-2.33911 0.288711,-4.475 0.428615,-4.74641 0.200596,-0.38916 0.448651,-0.46196 1.173392,-0.34435 0.505463,0.082 1.213808,0.0371 1.574104,-0.0999 2.623385,-0.64035 5.17983,0.0979 7.578188,0.0807 1.503852,-0.0561 1.766218,0.0106 2.307773,0.58706 0.566652,0.60318 0.600143,0.80905 0.461261,2.8353 -0.08236,1.20169 -0.02524,2.80493 0.12696,3.56276 0.40272,2.00529 0.150318,2.6749 -1.240094,3.28995 -0.641519,0.28377 -1.754259,0.55714 -2.472748,0.60749 -0.718492,0.0503 -1.40956,0.13692 -1.535708,0.1924 -0.126145,0.0555 -0.943731,0.0691 -1.816856,0.0303 z"
         id="path2844"
         sodipodi:nodetypes="csssssccsssssscc" />
      <path
         style="fill:#fccc57;fill-opacity:1;stroke:none;stroke-width:2.22301"
         d="m 53.584404,183.21632 c -1.561793,-0.55387 -2.074907,-1.31109 -1.879277,-2.77333 0.08784,-0.65656 0.236889,-2.53331 0.331219,-4.17055 0.09447,-1.63972 0.302397,-3.08099 0.462909,-3.20876 0.160269,-0.12757 2.947959,-0.1703 6.194864,-0.095 4.917255,0.1141 5.99227,0.2089 6.435066,0.56745 0.505664,0.40946 0.522309,0.62159 0.341159,4.34768 -0.258828,5.32386 -0.0011,5.06413 -5.050692,5.08852 -2.260023,0.0109 -4.316894,0.1512 -4.849127,0.33073 -0.907753,0.42729 -1.195388,0.19405 -1.986121,-0.0868 z"
         id="path2846"
         sodipodi:nodetypes="sssscsssccs" />
      <path
         style="fill:#00aad4;stroke:none;stroke-width:2.22301"
         d="m 59.504453,157.08489 c -2.204379,-0.61208 -3.597151,-0.68176 -5.032289,-0.25178 -1.153991,0.34574 -2.430636,0.13497 -2.430636,-0.4013 0,-1.18382 5.219905,-6.69083 6.727214,-7.5854 6.853838,-4.56565 12.984918,-3.68163 17.81391,1.01741 2.918253,1.75423 3.634832,2.59214 4.981043,5.83149 0.333256,0.88245 0.875662,1.20745 0.0029,1.67452 -0.410322,0.2196 -1.36162,0.22682 -3.444533,0.0262 -3.049928,-0.29383 -11.277011,-0.27573 -14.682646,0.0323 -1.606872,0.14534 -2.435246,0.073 -3.934997,-0.34337 z"
         id="path2848"
         sodipodi:nodetypes="sssccccssss" />
      <path
         style="fill:#8d5fd3;stroke:none;stroke-width:2.22301"
         d="m 62.844821,197.37321 c -0.291042,-0.12507 -0.972908,-0.23576 -1.515256,-0.24599 -1.595485,-0.0301 -1.742908,-0.50749 -1.698183,-5.49928 0.03295,-3.67706 0.10369,-4.35531 0.495091,-4.74668 0.430334,-0.43031 0.538072,-0.43096 1.869591,-0.0112 1.303636,0.41093 1.5344,0.41292 2.982933,0.0257 1.20636,-0.32245 2.416646,-0.39152 5.225468,-0.29823 2.010513,0.0668 3.779538,0.24547 3.931163,0.3971 0.191188,0.19118 0.171429,0.58724 -0.06447,1.29223 -0.187084,0.5591 -0.315878,1.3601 -0.286208,1.78 0.02967,0.41991 -0.135403,1.05245 -0.366829,1.40565 -0.309546,0.47243 -0.380942,1.005 -0.270084,2.01466 0.239038,2.17712 -0.0874,3.13985 -1.259922,3.71571 -0.918204,0.45096 -1.209998,0.46453 -3.566451,0.16586 -1.922264,-0.24364 -2.832068,-0.25107 -3.624762,-0.0296 -1.20804,0.33751 -1.148448,0.33642 -1.852083,0.034 z"
         id="path2850"
         sodipodi:nodetypes="csssssssssssssscc" />
      <path
         id="path2852"
         style="fill:#5f605f;stroke:none;stroke-width:2.22301"
         d="m 63.623261,143.87457 c -5.419622,1.13873 -10.790433,5.25981 -13.209013,10.13581 -0.690798,1.39269 -1.034108,2.32855 -1.189432,4.21596 0.04147,0.74568 -0.04566,1.61373 0.958013,1.44379 h 3.420465 3.420462 l 0.196887,5.15937 c 0.108241,2.83765 0.227303,5.39751 0.264583,5.68855 0.06467,0.50493 -0.106937,0.53224 -3.743957,0.60254 -5.332468,-0.61331 -3.749829,2.3633 -3.628718,6.84816 0.100681,3.72577 0.301987,6.99636 0.447516,7.26829 0.233926,0.43703 0.562552,0.48825 2.83497,0.43925 l 2.570385,-0.0558 c 0.634863,-0.0631 1.991175,0.12102 1.709828,0.92864 -0.539097,1.54749 -0.09634,4.56185 -0.05515,6.67917 0,0 -0.12935,3.47857 -0.06718,4.98264 0.185015,0.46357 0.304533,0.47347 0.657757,0.86582 0.478729,0.354 0.8416,0.2804 8.607311,0.2664 4.363204,-0.008 8.132307,-0.1066 8.375716,-0.21911 0.243412,-0.11251 0.536856,-0.40358 0.652156,-0.64699 0.115302,-0.24341 0.27355,-3.29985 0.351401,-6.79235 l 0.141076,-6.35 3.503144,0.0982 c 2.520447,0.0707 3.382153,0.0386 3.926766,-0.20483 0.626443,-0.33989 0.650367,-1.81806 0.580453,-6.64023 0.102809,-5.53064 -0.03234,-6.76816 -0.782381,-7.16959 -0.299759,-0.16041 -1.969714,-0.35739 -3.7114,-0.43769 -1.935348,-0.0892 -3.207173,-0.259 -3.270602,-0.43667 -0.161512,-0.45239 -0.640969,-11.0963 -0.505912,-11.23135 0.066,-0.0663 0.978934,-0.0947 2.028298,-0.0641 2.722963,0.0261 4.667803,0.24533 5.840554,0.27966 1.443091,-0.0581 1.154512,-0.52402 1.052718,-1.64435 -0.137295,-0.58714 -0.304566,-1.28012 -0.466861,-1.80634 -1.142179,-3.70336 -4.634284,-7.9851 -8.269263,-10.13891 -1.989266,-1.17869 -4.330628,-1.94827 -6.727962,-2.26023 -2.198548,-0.3801 -3.812412,-0.23644 -5.912628,0.19629 z m 3.161566,1.03766 c 2.988103,0.008 6.174541,0.88279 8.87491,2.49752 2.548586,1.52396 5.479852,4.73349 6.882784,7.53598 0.654169,1.30676 1.189074,2.66165 1.189074,3.01066 0,0.61896 0.112826,0.70503 -2.495554,0.4166 -6.057806,-0.63823 -11.460182,-0.20444 -16.289862,-0.31169 -7.785365,-0.17108 -14.252517,-0.40367 -14.371733,-0.51728 -0.317465,-0.30255 1.210493,-3.50456 2.604492,-5.45807 2.296867,-3.21877 6.683127,-6.03996 10.708908,-6.88743 0.926681,-0.19508 1.900946,-0.28882 2.896981,-0.28629 z m 0.468786,14.43652 c 3.565686,0.001 7.359565,0.0949 7.504451,0.23978 0.17078,0.17078 0.639315,5.77652 0.714687,8.54831 l 0.07183,2.64584 -1.5875,-0.0465 c -1.989936,0.21113 -3.801967,0.29689 -6.39078,0.29791 -0.179131,-0.0727 -1.322917,-0.27638 -1.322917,-0.0104 v 5.3e-4 c 0,0.11146 -0.140827,0.0544 -0.115236,0.0765 -3.012118,0.0748 -6.24027,0.29343 -6.490526,0.21931 -1.072258,-0.31755 -0.898599,-1.81412 -0.963329,-2.52176 -0.114102,-1.23693 -0.175191,-3.79677 -0.135393,-5.68854 l 0.07235,-3.43958 3.307292,-0.21549 c 1.138226,-0.0742 3.195663,-0.10676 5.335074,-0.10594 z m -15.260566,0.0718 c -0.06733,0.0192 -0.114409,0.0365 -0.128159,0.0506 1.14e-4,-0.002 -0.0021,-0.004 0,-0.007 0.01,-0.0109 0.05756,-0.0259 0.128159,-0.0439 z m 12.970785,1.96939 c -0.499145,0 -0.664043,0.62511 -0.664043,2.51974 0.12447,1.65159 -0.416611,2.08756 1.728575,2.19315 0.206436,0.11619 0.337241,0.33526 0.449586,0.71107 0.130505,0.43656 0.346022,1.06164 0.479041,1.38906 0.254796,0.62717 0.893744,0.79273 1.192691,0.30902 0.09734,-0.15748 0.09379,-1.17739 -0.0083,-2.26652 -0.06858,-0.49457 -0.463878,-2.60225 -1.491374,-1.98696 -0.828294,0.51728 -0.968862,0.36252 -1.159618,-1.28106 -0.119319,-1.02806 -0.304724,-1.5875 -0.526582,-1.5875 z m 10.642761,3.31401 c 0.02666,0.33296 0.05507,0.64647 0.08371,0.91932 0.01947,0.18544 0.03659,0.33908 0.05219,0.45992 -0.01561,-0.12084 -0.03324,-0.27448 -0.05271,-0.45992 -0.02865,-0.27285 -0.05654,-0.58636 -0.0832,-0.91932 z m -22.269442,7.25382 c 2.596843,0.007 6.557695,0.0993 9.507429,0.24391 l 3.439583,0.16847 0.151414,5.55625 c 0.08309,3.05594 0.06602,5.65645 -0.03772,5.77897 -0.10374,0.12252 -1.302641,0.32334 -2.664436,0.44649 -1.497981,0.0918 -3.415366,0.69092 -9.55394,0.57723 l -2.844271,-0.0558 -0.02894,-0.8599 c -0.05567,-1.63105 -0.210812,-4.04645 -0.502296,-7.83414 -0.160869,-2.0897 0.299014,-3.33246 0.374653,-3.40807 0.06278,-0.0628 0.600419,-0.61787 2.158526,-0.61339 z m 22.324219,0.33331 c 2.342181,0.006 4.488614,0.0604 5.307168,0.14315 l 1.984375,0.2005 0.145212,3.175 0.145211,3.175 c -0.229489,0.66553 0.348567,4.32609 -0.339527,5.009 -0.646065,0.24797 -14.968508,0.18715 -15.220259,-0.0646 -0.120549,-0.12055 -0.187145,-2.7706 -0.147794,-5.88904 l 0.07131,-5.66994 5.688541,-0.0682 c 0.782175,-0.009 1.585021,-0.0129 2.365748,-0.0108 z m -18.88722,4.91495 c 0.70073,1.00043 1.782161,0.59905 1.143082,-0.42427 -0.173429,-0.27769 -0.240504,-0.69933 -0.149344,-0.93689 0.379891,-0.98998 1.769401,-0.11374 1.769401,1.11569 0,0.97867 -0.629807,1.79757 -1.869136,2.42983 -0.676937,0.34535 -1.041281,0.71269 -1.041281,1.05006 0,0.59889 0.487503,0.75181 2.778125,0.87334 0.873125,0.0463 1.803863,0.10686 2.068092,0.13436 0.673497,0.0701 1.503783,-0.42242 1.503783,-0.89194 0,-0.46583 -1.041601,-0.91002 -2.133719,-0.91002 -0.888445,0 -0.946126,-0.22711 -0.351401,-1.37718 1.38634,-5.93603 -5.754502,-4.57386 -3.717602,-1.06298 z m 18.440217,-2.45463 c -1.380993,0 -2.063314,0.45239 -0.926042,0.61391 0.643276,0.0914 0.775708,0.55496 0.29559,1.03508 -0.464039,0.46404 -0.06273,1.19575 0.54932,1.00149 0.334407,-0.10613 0.708295,0.0277 1.059368,0.37879 0.675859,0.67589 0.675354,0.83177 -0.0057,1.69757 -0.686498,0.87274 -1.941565,0.93566 -2.788459,0.14004 -0.681675,-0.6404 -1.161169,-0.47531 -1.161169,0.39946 0,0.67264 0.647607,1.36165 1.455208,1.54823 h 5.29e-4 c 1.360096,0.31421 2.876511,-0.49258 3.678846,-1.95699 0.579255,-1.05724 0.445694,-2.05596 -0.387056,-2.88871 -0.328938,-0.32894 -0.502632,-0.80476 -0.456303,-1.25005 0.07287,-0.70036 0.03912,-0.71882 -1.314133,-0.71882 z m -8.459949,3.43544 c 0.02469,2.79874 0.0019,5.57079 -0.09095,5.7211 -2.65e-4,5.3e-4 -0.0021,0.001 -0.0026,0.002 0.09345,-0.1694 0.117282,-2.93179 0.09353,-5.72265 z m 8.261001,7.41248 0.14056,5.55625 c -0.04136,2.0513 0.1931,4.13736 -0.194821,6.15208 -0.06311,0.32774 -0.323212,0.70737 -0.578258,0.84387 -0.65492,0.35055 -15.332839,0.42744 -15.678112,0.0822 -0.357042,-0.35704 -0.195821,-11.85186 0.171048,-12.19409 0.14651,-0.13667 3.806793,-0.29005 8.202083,-0.34365 z m -7.990211,4.13773 c -0.03826,0.002 -0.0785,0.006 -0.120922,0.0124 -0.417314,0.063 -0.710618,0.52477 -1.20096,1.89135 -0.729879,2.0342 -0.63654,2.8132 0.183968,2.29289 0.269446,-0.17087 0.387149,-0.61244 0.513194,-0.68139 0.221837,-0.12135 0.154955,0.44401 0.1524,0.80231 -0.0016,0.23538 0.18761,0.59573 0.259932,0.82476 0.07232,0.22903 0.340209,0.37394 0.595312,0.32194 0.402323,-0.0821 0.455075,-0.37414 0.396875,-2.20245 -0.086,-2.70179 -0.205936,-3.28402 -0.779799,-3.26181 z"
         sodipodi:nodetypes="cscccccsccsccscccssscccccscsccccssccssssccsssssccsssscsssscssscsccccccccsscsccsssscssccsssssscsssscsccssccccsccscscccccccccccccccccccsccssccssscsssssssssssscss" />
      <path
         id="path2792-7"
         style="fill:#5f605f;stroke:none;stroke-width:2.22301"
         d="m 67.453259,147.94992 -0.911068,0.0707 c -0.908357,0.0705 -1.674834,0.53077 -1.668632,1.24075 -0.10472,0.82296 -0.111826,0.75007 -0.196371,1.69654 -0.149241,0.4725 -0.03026,1.06696 0.07224,1.56346 0.296146,0.54586 -0.162649,1.175 0.03037,1.64469 0.10968,0.25371 0.346107,0.47672 0.700437,0.64795 0.832702,0.40238 1.683596,0.37459 2.569871,-0.0837 0.932225,-0.48207 1.317231,-1.13922 1.317231,-2.24637 0,-1.08895 -0.266311,-2.22345 -1.262973,-2.21951 -0.609343,0.0737 -0.934161,0.0306 -1.473485,-0.0518 -0.315722,-0.10528 0.04837,-0.37948 0.307326,-0.4297 l 1.172877,-0.22748 c 0.872629,-0.50749 0.698475,-0.75073 0.685929,-1.14319 -0.01148,-0.35928 -0.920493,-0.44324 -1.343755,-0.46231 z m -0.346762,3.54491 c 0.291107,0.003 0.552825,0.17131 0.762227,0.50385 0.201239,0.31958 0.181835,0.55611 -0.07028,0.8599 -0.425815,0.51303 -1.079479,0.53677 -1.72806,0.0625 -0.208547,-0.15249 -0.161653,-0.24429 -0.175723,-0.34869 -0.0176,-0.13053 -0.03924,-0.28074 0.27391,-0.59389 0.326236,-0.32623 0.646816,-0.48711 0.937927,-0.48369 z m 1.957502,0.45166 c 0.02159,0.14727 0.0319,0.30451 0.03049,0.47128 0.0013,-0.16677 -0.0089,-0.32401 -0.03049,-0.47128 z m -0.255798,1.77096 c -0.09785,0.17008 -0.223039,0.32095 -0.379304,0.45888 0.156265,-0.13793 0.28145,-0.2888 0.379304,-0.45888 z m -2.876309,0.97616 c 0.201261,0.0817 0.412022,0.13125 0.627351,0.14883 0.215328,0.0176 0.435118,0.003 0.654225,-0.0444 -0.219107,0.0474 -0.438897,0.062 -0.654225,0.0444 -0.215329,-0.0176 -0.42609,-0.0671 -0.627351,-0.14883 z"
         sodipodi:nodetypes="ccccssccscscccccsscccccsccccccscscs" />
    </g>
  </g>
</svg>
