<?xml version="1.0" encoding="UTF-8" standalone="no"?>
<svg
   xmlns:dc="http://purl.org/dc/elements/1.1/"
   xmlns:cc="http://creativecommons.org/ns#"
   xmlns:rdf="http://www.w3.org/1999/02/22-rdf-syntax-ns#"
   xmlns:svg="http://www.w3.org/2000/svg"
   xmlns="http://www.w3.org/2000/svg"
   xmlns:sodipodi="http://sodipodi.sourceforge.net/DTD/sodipodi-0.dtd"
   xmlns:inkscape="http://www.inkscape.org/namespaces/inkscape"
   width="26.458334mm"
   height="26.458334mm"
   viewBox="0 0 26.458334 26.458334"
   version="1.1"
   id="svg923"
   inkscape:version="1.0.1 (3bc2e813f5, 2020-09-07)"
   sodipodi:docname="family.svg">
  <defs
     id="defs917" />
  <sodipodi:namedview
     id="base"
     pagecolor="#ffffff"
     bordercolor="#666666"
     borderopacity="1.0"
     inkscape:pageopacity="0.0"
     inkscape:pageshadow="2"
     inkscape:zoom="1.979899"
     inkscape:cx="-186.73163"
     inkscape:cy="79.518151"
     inkscape:document-units="mm"
     inkscape:current-layer="layer1"
     inkscape:document-rotation="0"
     showgrid="false"
     fit-margin-top="0"
     fit-margin-left="0"
     fit-margin-right="0"
     fit-margin-bottom="0"
     inkscape:window-width="2560"
     inkscape:window-height="1440"
     inkscape:window-x="0"
     inkscape:window-y="0"
     inkscape:window-maximized="1" />
  <metadata
     id="metadata920">
    <rdf:RDF>
      <cc:Work
         rdf:about="">
        <dc:format>image/svg+xml</dc:format>
        <dc:type
           rdf:resource="http://purl.org/dc/dcmitype/StillImage" />
        <dc:title />
      </cc:Work>
    </rdf:RDF>
  </metadata>
  <g
     inkscape:label="Calque 1"
     inkscape:groupmode="layer"
     id="layer1"
     transform="translate(373.80541,-53.307683)">
    <path
       style="fill:#df2540;fill-opacity:1;stroke:none;stroke-width:0.999997"
       d="m -362.11977,77.326674 c -3.69292,-2.125712 -7.20857,-5.948699 -9.05957,-9.85153 -1.43407,-3.023749 -1.69154,-6.205439 -0.6779,-8.377227 1.151,-2.466078 3.15631,-3.771085 5.79477,-3.771085 1.93205,0 3.29431,0.568064 4.59022,1.914142 l 0.87155,0.905299 0.87156,-0.905299 c 1.29591,-1.346078 2.65816,-1.914142 4.59022,-1.914142 1.84565,0 3.03564,0.46551 4.35737,1.704543 2.92534,2.742335 2.69394,7.747156 -0.59762,12.925241 -1.70317,2.679331 -5.35643,6.124704 -7.99362,7.538743 -0.66684,0.357563 -1.24208,0.647573 -1.27829,0.644474 -0.0362,-0.0033 -0.69712,-0.36902 -1.46869,-0.813159 z"
       id="path2845" />
  </g>
</svg>
