<?xml version="1.0" encoding="UTF-8" standalone="no"?>
<svg
   xmlns:dc="http://purl.org/dc/elements/1.1/"
   xmlns:cc="http://creativecommons.org/ns#"
   xmlns:rdf="http://www.w3.org/1999/02/22-rdf-syntax-ns#"
   xmlns:svg="http://www.w3.org/2000/svg"
   xmlns="http://www.w3.org/2000/svg"
   xmlns:sodipodi="http://sodipodi.sourceforge.net/DTD/sodipodi-0.dtd"
   xmlns:inkscape="http://www.inkscape.org/namespaces/inkscape"
   width="26.458334mm"
   height="26.458334mm"
   viewBox="0 0 26.458334 26.458334"
   version="1.1"
   id="svg923"
   inkscape:version="1.0.1 (c497b03c, 2020-09-10)"
   sodipodi:docname="hangout.svg">
  <defs
     id="defs917" />
  <sodipodi:namedview
     id="base"
     pagecolor="#ffffff"
     bordercolor="#666666"
     borderopacity="1.0"
     inkscape:pageopacity="0.0"
     inkscape:pageshadow="2"
     inkscape:zoom="3.959798"
     inkscape:cx="72.225709"
     inkscape:cy="33.687493"
     inkscape:document-units="mm"
     inkscape:current-layer="text3281"
     inkscape:document-rotation="0"
     showgrid="false"
     fit-margin-top="0"
     fit-margin-left="0"
     fit-margin-right="0"
     fit-margin-bottom="0"
     inkscape:window-width="1440"
     inkscape:window-height="808"
     inkscape:window-x="0"
     inkscape:window-y="23"
     inkscape:window-maximized="1" />
  <metadata
     id="metadata920">
    <rdf:RDF>
      <cc:Work
         rdf:about="">
        <dc:format>image/svg+xml</dc:format>
        <dc:type
           rdf:resource="http://purl.org/dc/dcmitype/StillImage" />
        <dc:title />
      </cc:Work>
    </rdf:RDF>
  </metadata>
  <g
     inkscape:label="Calque 1"
     inkscape:groupmode="layer"
     id="layer1"
     transform="translate(373.80541,-53.307683)">
    <g
       id="color-2"
       transform="matrix(0.44756218,0,0,0.44722453,-376.70578,50.478135)"
       style="stroke:none;stroke-width:4.06577;stroke-miterlimit:4;stroke-dasharray:none">
      <path
         fill="#61b2e4"
         stroke="none"
         stroke-linecap="round"
         stroke-linejoin="round"
         stroke-miterlimit="10"
         stroke-width="0.224062"
         d="m 12.0133,16.0194 c 0,7.5 5,13.75 5,13.75 0,0 5,-6.25 5,-13.75"
         id="path2"
         style="stroke:none;stroke-width:4.06577;stroke-miterlimit:4;stroke-dasharray:none" />
      <path
         id="circle4"
         style="fill:#92d3f5;stroke:none;stroke-width:4.06577;stroke-miterlimit:4;stroke-dasharray:none"
         d="m 22.0133,16.0194 a 5,5 0 0 1 -5,5 5,5 0 0 1 -5,-5 5,5 0 0 1 5,-5 5,5 0 0 1 5,5 z" />
      <path
         fill="#d22f27"
         stroke="none"
         stroke-linecap="round"
         stroke-linejoin="round"
         stroke-miterlimit="10"
         stroke-width="0.224062"
         d="m 50.0133,44.0194 c 0,7.5 5,13.75 5,13.75 0,0 5,-6.25 5,-13.75"
         id="path6"
         style="stroke:none;stroke-width:4.06577;stroke-miterlimit:4;stroke-dasharray:none" />
      <path
         id="circle8"
         style="fill:#ea5a47;stroke:none;stroke-width:4.06577;stroke-miterlimit:4;stroke-dasharray:none"
         d="m 60.013302,44.019402 a 5,5 0 0 1 -5,5 5,5 0 0 1 -5,-5 5,5 0 0 1 5,-5 5,5 0 0 1 5,5 z" />
    </g>
    <g
       id="line"
       transform="matrix(0.50664908,0,0,0.50620953,-378.8337,48.349914)"
       style="stroke:none;stroke-width:3.5918;stroke-miterlimit:4;stroke-dasharray:none">
      <path
         style="color:#000000;font-style:normal;font-variant:normal;font-weight:normal;font-stretch:normal;font-size:medium;line-height:normal;font-family:sans-serif;font-variant-ligatures:normal;font-variant-position:normal;font-variant-caps:normal;font-variant-numeric:normal;font-variant-alternates:normal;font-variant-east-asian:normal;font-feature-settings:normal;font-variation-settings:normal;text-indent:0;text-align:start;text-decoration:none;text-decoration-line:none;text-decoration-style:solid;text-decoration-color:#000000;letter-spacing:normal;word-spacing:normal;text-transform:none;writing-mode:lr-tb;direction:ltr;text-orientation:mixed;dominant-baseline:auto;baseline-shift:baseline;text-anchor:start;white-space:normal;shape-padding:0;shape-margin:0;inline-size:0;clip-rule:nonzero;display:inline;overflow:visible;visibility:visible;opacity:1;isolation:auto;mix-blend-mode:normal;color-interpolation:sRGB;color-interpolation-filters:linearRGB;solid-color:#000000;solid-opacity:1;vector-effect:none;fill:#ffffff;fill-opacity:1;fill-rule:nonzero;stroke:none;stroke-width:2.60451;stroke-linecap:round;stroke-linejoin:round;stroke-miterlimit:4;stroke-dasharray:none;stroke-dashoffset:0;stroke-opacity:1;color-rendering:auto;image-rendering:auto;shape-rendering:auto;text-rendering:auto;enable-background:accumulate;stop-color:#000000;stop-opacity:1"
         d="m 14.8125,17.828125 a 0.52931976,0.52931976 0 0 0 -0.529297,0.529297 c 0,6.861304 4.533203,12.478516 4.533203,12.478516 a 0.5293727,0.5293727 0 0 0 0.826172,0 c 0,0 4.533203,-5.617212 4.533203,-12.478516 a 0.52931976,0.52931976 0 0 0 -0.529297,-0.529297 0.52931976,0.52931976 0 0 0 -0.529296,0.529297 c 0,5.777128 -3.211707,10.237661 -3.886719,11.142578 -0.674326,-0.903922 -3.888672,-5.364659 -3.888672,-11.142578 A 0.52931976,0.52931976 0 0 0 14.8125,17.828125 Z"
         id="path3330" />
      <path
         style="color:#000000;font-style:normal;font-variant:normal;font-weight:normal;font-stretch:normal;font-size:medium;line-height:normal;font-family:sans-serif;font-variant-ligatures:normal;font-variant-position:normal;font-variant-caps:normal;font-variant-numeric:normal;font-variant-alternates:normal;font-variant-east-asian:normal;font-feature-settings:normal;font-variation-settings:normal;text-indent:0;text-align:start;text-decoration:none;text-decoration-line:none;text-decoration-style:solid;text-decoration-color:#000000;letter-spacing:normal;word-spacing:normal;text-transform:none;writing-mode:lr-tb;direction:ltr;text-orientation:mixed;dominant-baseline:auto;baseline-shift:baseline;text-anchor:start;white-space:normal;shape-padding:0;shape-margin:0;inline-size:0;clip-rule:nonzero;display:inline;overflow:visible;visibility:visible;opacity:1;isolation:auto;mix-blend-mode:normal;color-interpolation:sRGB;color-interpolation-filters:linearRGB;solid-color:#000000;solid-opacity:1;vector-effect:none;fill:#ffffff;fill-opacity:1;fill-rule:nonzero;stroke:none;stroke-width:2.60451;stroke-linecap:butt;stroke-linejoin:miter;stroke-miterlimit:4;stroke-dasharray:none;stroke-dashoffset:0;stroke-opacity:1;color-rendering:auto;image-rendering:auto;shape-rendering:auto;text-rendering:auto;enable-background:accumulate;stop-color:#000000;stop-opacity:1"
         d="m 19.228516,13.410156 c -2.725477,10e-7 -4.945313,2.221578 -4.945313,4.947266 0,2.725688 2.219836,4.947265 4.945313,4.947266 2.725476,0 4.947265,-2.221578 4.947265,-4.947266 0,-2.725688 -2.221789,-4.947266 -4.947265,-4.947266 z m 0,1.058594 c 2.15328,0 3.888672,1.73505 3.888672,3.888672 0,2.153621 -1.735392,3.886719 -3.888672,3.886719 -2.15328,-10e-7 -3.886719,-1.733098 -3.886719,-3.886719 0,-2.153621 1.733439,-3.888672 3.886719,-3.888672 z"
         id="path3306" />
      <path
         style="color:#000000;font-style:normal;font-variant:normal;font-weight:normal;font-stretch:normal;font-size:medium;line-height:normal;font-family:sans-serif;font-variant-ligatures:normal;font-variant-position:normal;font-variant-caps:normal;font-variant-numeric:normal;font-variant-alternates:normal;font-variant-east-asian:normal;font-feature-settings:normal;font-variation-settings:normal;text-indent:0;text-align:start;text-decoration:none;text-decoration-line:none;text-decoration-style:solid;text-decoration-color:#000000;letter-spacing:normal;word-spacing:normal;text-transform:none;writing-mode:lr-tb;direction:ltr;text-orientation:mixed;dominant-baseline:auto;baseline-shift:baseline;text-anchor:start;white-space:normal;shape-padding:0;shape-margin:0;inline-size:0;clip-rule:nonzero;display:inline;overflow:visible;visibility:visible;opacity:1;isolation:auto;mix-blend-mode:normal;color-interpolation:sRGB;color-interpolation-filters:linearRGB;solid-color:#000000;solid-opacity:1;vector-effect:none;fill:#ffffff;fill-opacity:1;fill-rule:nonzero;stroke:none;stroke-width:2.60451;stroke-linecap:round;stroke-linejoin:round;stroke-miterlimit:4;stroke-dasharray:none;stroke-dashoffset:0;stroke-opacity:1;color-rendering:auto;image-rendering:auto;shape-rendering:auto;text-rendering:auto;enable-background:accumulate;stop-color:#000000;stop-opacity:1"
         d="m 48.380859,42.564453 a 0.52931976,0.52931976 0 0 0 -0.529297,0.529297 c 10e-7,6.861305 4.533204,12.478516 4.533204,12.478516 a 0.5293727,0.5293727 0 0 0 0.826172,0 c 0,0 4.533203,-5.617211 4.533203,-12.478516 a 0.52931976,0.52931976 0 0 0 -0.529297,-0.529297 0.52931976,0.52931976 0 0 0 -0.529297,0.529297 c 0,5.777919 -3.214346,10.24061 -3.888672,11.144531 -0.675012,-0.904917 -3.886719,-5.367403 -3.886719,-11.144531 a 0.52931976,0.52931976 0 0 0 -0.529297,-0.529297 z"
         id="path3334" />
      <path
         style="color:#000000;font-style:normal;font-variant:normal;font-weight:normal;font-stretch:normal;font-size:medium;line-height:normal;font-family:sans-serif;font-variant-ligatures:normal;font-variant-position:normal;font-variant-caps:normal;font-variant-numeric:normal;font-variant-alternates:normal;font-variant-east-asian:normal;font-feature-settings:normal;font-variation-settings:normal;text-indent:0;text-align:start;text-decoration:none;text-decoration-line:none;text-decoration-style:solid;text-decoration-color:#000000;letter-spacing:normal;word-spacing:normal;text-transform:none;writing-mode:lr-tb;direction:ltr;text-orientation:mixed;dominant-baseline:auto;baseline-shift:baseline;text-anchor:start;white-space:normal;shape-padding:0;shape-margin:0;inline-size:0;clip-rule:nonzero;display:inline;overflow:visible;visibility:visible;opacity:1;isolation:auto;mix-blend-mode:normal;color-interpolation:sRGB;color-interpolation-filters:linearRGB;solid-color:#000000;solid-opacity:1;vector-effect:none;fill:#ffffff;fill-opacity:1;fill-rule:nonzero;stroke:none;stroke-width:2.60451;stroke-linecap:butt;stroke-linejoin:miter;stroke-miterlimit:4;stroke-dasharray:none;stroke-dashoffset:0;stroke-opacity:1;color-rendering:auto;image-rendering:auto;shape-rendering:auto;text-rendering:auto;enable-background:accumulate;stop-color:#000000;stop-opacity:1"
         d="m 52.796875,38.148438 c -2.725476,-10e-7 -4.945312,2.219624 -4.945313,4.945312 0,2.725688 2.219836,4.947266 4.945313,4.947266 2.725477,0 4.947266,-2.221578 4.947266,-4.947266 -10e-7,-2.725688 -2.22179,-4.945313 -4.947266,-4.945312 z m 0,1.058593 c 2.15328,0 3.888672,1.733098 3.888672,3.886719 0,2.153622 -1.735392,3.888672 -3.888672,3.888672 -2.15328,0 -3.886719,-1.73505 -3.886719,-3.888672 10e-7,-2.153621 1.733439,-3.886719 3.886719,-3.886719 z"
         id="path3310" />
      <path
         style="color:#000000;font-style:normal;font-variant:normal;font-weight:normal;font-stretch:normal;font-size:medium;line-height:normal;font-family:sans-serif;font-variant-ligatures:normal;font-variant-position:normal;font-variant-caps:normal;font-variant-numeric:normal;font-variant-alternates:normal;font-variant-east-asian:normal;font-feature-settings:normal;font-variation-settings:normal;text-indent:0;text-align:start;text-decoration:none;text-decoration-line:none;text-decoration-style:solid;text-decoration-color:#000000;letter-spacing:normal;word-spacing:normal;text-transform:none;writing-mode:lr-tb;direction:ltr;text-orientation:mixed;dominant-baseline:auto;baseline-shift:baseline;text-anchor:start;white-space:normal;shape-padding:0;shape-margin:0;inline-size:0;clip-rule:nonzero;display:inline;overflow:visible;visibility:visible;opacity:1;isolation:auto;mix-blend-mode:normal;color-interpolation:sRGB;color-interpolation-filters:linearRGB;solid-color:#000000;solid-opacity:1;vector-effect:none;fill:#5f605f;fill-opacity:1;fill-rule:nonzero;stroke:none;stroke-width:2.60451;stroke-linecap:round;stroke-linejoin:round;stroke-miterlimit:4;stroke-dasharray:none;stroke-dashoffset:0;stroke-opacity:1;color-rendering:auto;image-rendering:auto;shape-rendering:auto;text-rendering:auto;enable-background:accumulate;stop-color:#000000;stop-opacity:1"
         d="m 19.216797,32.830078 a 0.52931976,0.52931976 0 0 0 -0.529297,0.529297 0.52931976,0.52931976 0 0 0 0.529297,0.529297 c 0,0 3.440037,0.0059 6.970703,1.503906 3.530666,1.498028 7.092133,4.388797 7.519531,10.373047 0.455086,6.371924 4.188462,9.683245 8.28711,11.277344 4.098647,1.594099 8.582572,1.582031 10.791015,1.582031 a 0.52931976,0.52931976 0 0 0 0.529297,-0.529297 0.52931976,0.52931976 0 0 0 -0.529297,-0.529297 c -2.208443,0 -6.556457,-0.01169 -10.408203,-1.509765 -3.851746,-1.498071 -7.18499,-4.370432 -7.613281,-10.367188 -0.455979,-6.384429 -4.404916,-9.677343 -8.16211,-11.271484 -3.757193,-1.594142 -7.384765,-1.587891 -7.384765,-1.587891 z"
         id="path3338" />
      <path
         style="color:#000000;font-style:normal;font-variant:normal;font-weight:normal;font-stretch:normal;font-size:medium;line-height:normal;font-family:sans-serif;font-variant-ligatures:normal;font-variant-position:normal;font-variant-caps:normal;font-variant-numeric:normal;font-variant-alternates:normal;font-variant-east-asian:normal;font-feature-settings:normal;font-variation-settings:normal;text-indent:0;text-align:start;text-decoration:none;text-decoration-line:none;text-decoration-style:solid;text-decoration-color:#000000;letter-spacing:normal;word-spacing:normal;text-transform:none;writing-mode:lr-tb;direction:ltr;text-orientation:mixed;dominant-baseline:auto;baseline-shift:baseline;text-anchor:start;white-space:normal;shape-padding:0;shape-margin:0;inline-size:0;clip-rule:nonzero;display:inline;overflow:visible;visibility:visible;opacity:1;isolation:auto;mix-blend-mode:normal;color-interpolation:sRGB;color-interpolation-filters:linearRGB;solid-color:#000000;solid-opacity:1;vector-effect:none;fill:#5f605f;fill-opacity:1;fill-rule:nonzero;stroke:none;stroke-width:2.60451;stroke-linecap:round;stroke-linejoin:round;stroke-miterlimit:4;stroke-dasharray:none;stroke-dashoffset:0;stroke-opacity:1;color-rendering:auto;image-rendering:auto;shape-rendering:auto;text-rendering:auto;enable-background:accumulate;stop-color:#000000;stop-opacity:1"
         d="m 34.103516,24.917969 a 0.52932,0.52932 0 0 0 -0.310547,0.128906 0.52932,0.52932 0 0 0 -0.05273,0.746094 l 9.275391,10.667969 a 0.52932,0.52932 0 0 0 0.746094,0.05273 0.52932,0.52932 0 0 0 0.05273,-0.746094 L 34.539062,25.099609 a 0.52932,0.52932 0 0 0 -0.435546,-0.18164 z"
         id="path3314" />
      <path
         style="color:#000000;font-style:normal;font-variant:normal;font-weight:normal;font-stretch:normal;font-size:medium;line-height:normal;font-family:sans-serif;font-variant-ligatures:normal;font-variant-position:normal;font-variant-caps:normal;font-variant-numeric:normal;font-variant-alternates:normal;font-variant-east-asian:normal;font-feature-settings:normal;font-variation-settings:normal;text-indent:0;text-align:start;text-decoration:none;text-decoration-line:none;text-decoration-style:solid;text-decoration-color:#000000;letter-spacing:normal;word-spacing:normal;text-transform:none;writing-mode:lr-tb;direction:ltr;text-orientation:mixed;dominant-baseline:auto;baseline-shift:baseline;text-anchor:start;white-space:normal;shape-padding:0;shape-margin:0;inline-size:0;clip-rule:nonzero;display:inline;overflow:visible;visibility:visible;opacity:1;isolation:auto;mix-blend-mode:normal;color-interpolation:sRGB;color-interpolation-filters:linearRGB;solid-color:#000000;solid-opacity:1;vector-effect:none;fill:#5f605f;fill-opacity:1;fill-rule:nonzero;stroke:none;stroke-width:2.60451;stroke-linecap:round;stroke-linejoin:round;stroke-miterlimit:4;stroke-dasharray:none;stroke-dashoffset:0;stroke-opacity:1;color-rendering:auto;image-rendering:auto;shape-rendering:auto;text-rendering:auto;enable-background:accumulate;stop-color:#000000;stop-opacity:1"
         d="m 43.824219,29.353516 a 0.52932,0.52932 0 0 0 -0.503907,0.492187 l -0.433593,6.232422 a 0.52932,0.52932 0 0 0 0.490234,0.564453 0.52932,0.52932 0 0 0 0.566406,-0.492187 l 0.433594,-6.230469 a 0.52932,0.52932 0 0 0 -0.492187,-0.564453 0.52932,0.52932 0 0 0 -0.06055,-0.002 z"
         id="path3318" />
      <path
         style="color:#000000;font-style:normal;font-variant:normal;font-weight:normal;font-stretch:normal;font-size:medium;line-height:normal;font-family:sans-serif;font-variant-ligatures:normal;font-variant-position:normal;font-variant-caps:normal;font-variant-numeric:normal;font-variant-alternates:normal;font-variant-east-asian:normal;font-feature-settings:normal;font-variation-settings:normal;text-indent:0;text-align:start;text-decoration:none;text-decoration-line:none;text-decoration-style:solid;text-decoration-color:#000000;letter-spacing:normal;word-spacing:normal;text-transform:none;writing-mode:lr-tb;direction:ltr;text-orientation:mixed;dominant-baseline:auto;baseline-shift:baseline;text-anchor:start;white-space:normal;shape-padding:0;shape-margin:0;inline-size:0;clip-rule:nonzero;display:inline;overflow:visible;visibility:visible;opacity:1;isolation:auto;mix-blend-mode:normal;color-interpolation:sRGB;color-interpolation-filters:linearRGB;solid-color:#000000;solid-opacity:1;vector-effect:none;fill:#5f605f;fill-opacity:1;fill-rule:nonzero;stroke:none;stroke-width:2.60451;stroke-linecap:round;stroke-linejoin:round;stroke-miterlimit:4;stroke-dasharray:none;stroke-dashoffset:0;stroke-opacity:1;color-rendering:auto;image-rendering:auto;shape-rendering:auto;text-rendering:auto;enable-background:accumulate;stop-color:#000000;stop-opacity:1"
         d="m 32.130859,26.949219 a 0.52932,0.52932 0 0 0 -0.371093,0.128906 0.52932,0.52932 0 0 0 -0.05273,0.748047 l 9.275391,10.667969 a 0.52932,0.52932 0 0 0 0.748047,0.05273 0.52932,0.52932 0 0 0 0.05078,-0.748047 L 32.505859,27.130859 a 0.52932,0.52932 0 0 0 -0.375,-0.18164 z"
         id="path3322" />
      <path
         style="color:#000000;font-style:normal;font-variant:normal;font-weight:normal;font-stretch:normal;font-size:medium;line-height:normal;font-family:sans-serif;font-variant-ligatures:normal;font-variant-position:normal;font-variant-caps:normal;font-variant-numeric:normal;font-variant-alternates:normal;font-variant-east-asian:normal;font-feature-settings:normal;font-variation-settings:normal;text-indent:0;text-align:start;text-decoration:none;text-decoration-line:none;text-decoration-style:solid;text-decoration-color:#000000;letter-spacing:normal;word-spacing:normal;text-transform:none;writing-mode:lr-tb;direction:ltr;text-orientation:mixed;dominant-baseline:auto;baseline-shift:baseline;text-anchor:start;white-space:normal;shape-padding:0;shape-margin:0;inline-size:0;clip-rule:nonzero;display:inline;overflow:visible;visibility:visible;opacity:1;isolation:auto;mix-blend-mode:normal;color-interpolation:sRGB;color-interpolation-filters:linearRGB;solid-color:#000000;solid-opacity:1;vector-effect:none;fill:#5f605f;fill-opacity:1;fill-rule:nonzero;stroke:none;stroke-width:2.60451;stroke-linecap:round;stroke-linejoin:round;stroke-miterlimit:4;stroke-dasharray:none;stroke-dashoffset:0;stroke-opacity:1;color-rendering:auto;image-rendering:auto;shape-rendering:auto;text-rendering:auto;enable-background:accumulate;stop-color:#000000;stop-opacity:1"
         d="m 32.082031,26.949219 a 0.52932,0.52932 0 0 0 -0.501953,0.492187 l -0.435547,6.232422 a 0.52932,0.52932 0 0 0 0.492188,0.564453 0.52932,0.52932 0 0 0 0.564453,-0.490234 l 0.433594,-6.232422 a 0.52932,0.52932 0 0 0 -0.490235,-0.564453 0.52932,0.52932 0 0 0 -0.0625,-0.002 z"
         id="path3326" />
      <g
         aria-label="3h 20km"
         transform="scale(0.99950946,1.0004908)"
         id="text3281"
         style="font-style:normal;font-variant:normal;font-weight:normal;font-stretch:normal;font-size:9.67379px;line-height:1.25;font-family:'Comic Sans MS';-inkscape-font-specification:'Comic Sans MS, Normal';font-variant-ligatures:normal;font-variant-caps:normal;font-variant-numeric:normal;font-variant-east-asian:normal;letter-spacing:0px;word-spacing:0px;fill:#000000;fill-opacity:1;stroke:none;stroke-width:0.762747">
        <path
           d="m 27.348855,46.452802 q -0.335371,0 -0.439288,-0.358989 -0.108642,-0.387329 -0.198389,-1.100582 -0.08502,-0.684912 -0.08502,-1.124201 0,-0.122811 0.0094,-0.373158 0.01417,-0.250348 0.01417,-0.373159 0,-0.888024 -0.444011,-0.888024 -0.599889,0 -1.072242,0.543206 -0.2409,0.278688 -0.661294,1.062794 0,1.799665 -0.151153,2.130312 -0.132259,0.292859 -0.410947,0.292859 -0.193665,0 -0.340094,-0.132259 -0.14643,-0.132258 -0.14643,-0.3212 0,-0.06613 0.04251,-0.207835 0.03779,-0.118088 0.05196,-0.689635 l 0.01417,-0.699083 0.01417,-3.471795 q 0.03307,-0.585717 0.03307,-0.788829 0,-0.2409 -0.04724,-0.453459 -0.04251,-0.217282 -0.04251,-0.448735 0,-0.198389 0.136982,-0.325924 0.136982,-0.132259 0.335371,-0.132259 0.387329,0 0.453459,0.415671 0.07558,0.458182 0.07558,0.826618 0,0.49597 -0.03307,1.034453 -0.02834,0.514865 -0.02362,1.034453 l 0.0047,0.415671 q 0.38733,-0.519589 0.826618,-0.774659 0.444012,-0.259795 0.939983,-0.259795 0.784106,0 1.076965,0.510142 0.207835,0.358988 0.236176,1.209223 l 0.03779,0.902195 0.09447,0.982494 q 0.06613,0.552653 0.1606,0.973047 0.01889,0.0803 0.01889,0.136983 0,0.193664 -0.141706,0.3212 -0.141706,0.132259 -0.340094,0.132259 z"
           style="font-style:normal;font-variant:normal;font-weight:normal;font-stretch:normal;font-size:9.67379px;font-family:'Comic Sans MS';-inkscape-font-specification:'Comic Sans MS, Normal';font-variant-ligatures:normal;font-variant-caps:normal;font-variant-numeric:normal;font-variant-east-asian:normal;stroke:none;stroke-width:0.762747"
           id="path3295" />
        <path
           d="m 28.781364,58.313914 q -0.259794,0 -0.4015,-0.273965 -0.245624,-0.477076 -0.741594,-1.128924 l -0.836065,-1.13837 q -0.273965,0.217282 -0.850236,0.609335 -0.05196,0.732147 -0.05196,1.426506 0,0.212559 -0.132258,0.344818 -0.127536,0.132259 -0.330648,0.132259 -0.477076,0 -0.477076,-0.6424 0,-0.392053 0.05196,-1.171436 0.05668,-0.784106 0.05668,-1.176159 0,-0.717977 0.01889,-1.639065 0.02362,-0.925812 0.02362,-1.634341 0,-0.212559 -0.02362,-0.500695 -0.01889,-0.288135 -0.01889,-0.500694 0,-0.212559 0.127535,-0.344818 0.132259,-0.132258 0.335371,-0.132258 0.203112,0 0.330647,0.132258 0.132259,0.132259 0.132259,0.344818 0,0.217283 0.02362,0.514865 0.02362,0.292859 0.02362,0.510141 l -0.03306,1.520977 q -0.02362,0.821894 -0.01417,1.643788 0.6424,-0.491247 1.237565,-1.076964 l 1.039177,-1.072242 q 0.155876,-0.1606 0.33537,-0.1606 0.184218,0 0.330647,0.14643 0.151153,0.146429 0.151153,0.340094 0,0.1606 -0.136982,0.316476 -0.580994,0.680189 -1.43123,1.459571 l 1.02973,1.402889 q 0.7227,0.987217 0.7227,1.2848 0,0.188941 -0.151153,0.325923 -0.146429,0.136983 -0.340094,0.136983 z"
           style="font-style:normal;font-variant:normal;font-weight:normal;font-stretch:normal;font-size:9.67379px;font-family:'Comic Sans MS';-inkscape-font-specification:'Comic Sans MS, Normal';font-variant-ligatures:normal;font-variant-caps:normal;font-variant-numeric:normal;font-variant-east-asian:normal;stroke:none;stroke-width:0.762747"
           id="path3299" />
        <path
           d="m 35.410042,58.380371 q -0.38733,0 -0.453459,-0.410947 -0.08502,-0.519588 -0.170047,-1.464294 l -0.1606,-1.464295 q -0.04724,-0.325923 -0.1606,-0.637676 -0.1606,-0.425118 -0.349542,-0.425118 -0.17477,0 -0.651847,0.297582 -0.453459,0.273965 -0.595165,0.439289 -0.0047,0.444011 0.02362,0.888023 l 0.141706,1.261183 q 0.08975,0.746318 0.08975,1.232841 0,0.207836 -0.132259,0.340094 -0.127535,0.136983 -0.330647,0.136983 -0.203112,0 -0.335371,-0.136983 -0.127535,-0.132258 -0.127535,-0.340094 0,-0.571547 -0.118088,-1.6863 -0.113365,-1.119477 -0.113365,-1.691024 0,-0.500694 -0.141706,-0.779382 -0.330647,0.151153 -0.670741,0.491247 l -0.557377,0.623506 q -0.07558,0.113365 -0.2409,0.297582 0,0.283412 -0.05196,0.836065 -0.05196,0.552653 -0.05196,0.817171 0,0.141706 0.04251,0.396776 0.04724,0.255071 0.04724,0.368436 0,0.193664 -0.14643,0.325923 -0.141706,0.132259 -0.33537,0.132259 -0.533759,0 -0.533759,-1.213947 0,-0.283412 0.05196,-0.845512 0.05196,-0.5621 0.05196,-0.845512 0,-0.250347 -0.04724,-0.751041 -0.04251,-0.500694 -0.04251,-0.755765 0,-1.072241 0.4818,-1.072241 0.184218,0 0.335371,0.1606 0.155876,0.1606 0.155876,0.349541 0,0.08975 -0.02362,0.278688 -0.02362,0.188941 -0.02362,0.288135 l 0.0094,0.495971 q 0.245624,-0.505418 0.7227,-0.911641 0.477077,-0.410947 0.812448,-0.410947 0.741594,0 1.020282,0.73687 0.259794,-0.344817 0.618783,-0.514864 0.358988,-0.174771 0.821894,-0.174771 0.788829,0 1.076965,0.850235 0.05668,0.170047 0.193665,1.327312 0.132258,0.812448 0.340094,2.706583 0.01417,0.188941 -0.127536,0.3212 -0.141706,0.132259 -0.344817,0.132259 z"
           style="font-style:normal;font-variant:normal;font-weight:normal;font-stretch:normal;font-size:9.67379px;font-family:'Comic Sans MS';-inkscape-font-specification:'Comic Sans MS, Normal';font-variant-ligatures:normal;font-variant-caps:normal;font-variant-numeric:normal;font-variant-east-asian:normal;stroke:none;stroke-width:0.762747"
           id="path3301" />
        <text
           xml:space="preserve"
           style="font-style:normal;font-weight:normal;font-size:11.1456px;line-height:1.25;font-family:sans-serif;fill:#000000;fill-opacity:1;stroke:none;stroke-width:0.398496"
           x="15.338377"
           y="46.732365"
           id="text38"
           transform="scale(1.0000567,0.9999433)"><tspan
             sodipodi:role="line"
             id="tspan36"
             x="15.338377"
             y="46.732365"
             style="font-style:normal;font-variant:normal;font-weight:normal;font-stretch:normal;font-size:11.1456px;font-family:'Comic Sans MS';-inkscape-font-specification:'Comic Sans MS';stroke-width:0.398496">3</tspan></text>
        <text
           xml:space="preserve"
           style="font-style:normal;font-variant:normal;font-weight:normal;font-stretch:normal;font-size:11.1456px;line-height:1.25;font-family:sans-serif;-inkscape-font-specification:'Comic Sans MS, Normal';font-variant-ligatures:normal;font-variant-caps:normal;font-variant-numeric:normal;font-variant-east-asian:normal;letter-spacing:0px;word-spacing:0px;fill:#000000;fill-opacity:1;stroke:none;stroke-width:0.398496;stroke-miterlimit:4;stroke-dasharray:none"
           x="10.938646"
           y="58.28006"
           id="text38-9"
           transform="scale(1.0000567,0.9999433)"><tspan
             sodipodi:role="line"
             id="tspan36-7"
             x="10.938646"
             y="58.28006"
             style="font-style:normal;font-variant:normal;font-weight:normal;font-stretch:normal;font-size:11.1456px;font-family:'Comic Sans MS';-inkscape-font-specification:'Comic Sans MS';stroke-width:0.398496">20</tspan></text>
      </g>
    </g>
  </g>
</svg>
