<?xml version="1.0" encoding="UTF-8" standalone="no"?><!-- Generator: Gravit.io --><svg xmlns="http://www.w3.org/2000/svg" xmlns:xlink="http://www.w3.org/1999/xlink" style="isolation:isolate" viewBox="0 0 100 100" width="100pt" height="100pt"><defs><clipPath id="_clipPath_CjcXfQ9aohQyGQjOh3xz2qLJqSk7GrdI"><rect width="100" height="100"/></clipPath></defs><g clip-path="url(#_clipPath_CjcXfQ9aohQyGQjOh3xz2qLJqSk7GrdI)"><g><g><path d=" M 50 52.85 C 62.587 52.85 72.79 42.647 72.79 30.06 C 72.79 17.473 62.587 7.27 50 7.27 C 37.413 7.27 27.21 17.473 27.21 30.06 C 27.224 42.641 37.419 52.836 50 52.85 L 50 52.85 Z  M 50 12.549 C 59.671 12.549 67.512 20.389 67.512 30.06 C 67.512 39.732 59.671 47.572 50 47.572 C 40.329 47.572 32.488 39.732 32.488 30.06 C 32.496 20.392 40.332 12.556 50 12.549 L 50 12.549 Z " fill="rgb(255,255,255)"/><path d=" M 50 58.327 C 29.612 58.327 13.05 72.579 13.05 90.091 C 13.05 91.548 14.232 92.73 15.689 92.73 C 17.147 92.73 18.329 91.548 18.329 90.091 L 18.329 90.091 C 18.329 75.482 32.554 63.606 50 63.606 C 67.446 63.606 81.671 75.482 81.671 90.091 L 81.671 90.091 C 81.671 91.548 82.853 92.73 84.311 92.73 C 85.768 92.73 86.95 91.548 86.95 90.091 C 86.95 72.579 70.388 58.327 50 58.327 Z " fill="rgb(255,255,255)"/></g></g></g></svg>