<?xml version="1.0" encoding="UTF-8" standalone="no"?><!-- Generator: Gravit.io --><svg xmlns="http://www.w3.org/2000/svg" xmlns:xlink="http://www.w3.org/1999/xlink" style="isolation:isolate" viewBox="0 0 100 100" width="100pt" height="100pt"><defs><clipPath id="_clipPath_5zEdNfPlddIJ3OEtUF5BB1sUEB8UAIcd"><rect width="100" height="100"/></clipPath></defs><g clip-path="url(#_clipPath_5zEdNfPlddIJ3OEtUF5BB1sUEB8UAIcd)"><g><g><rect x="28.462" y="14.103" width="61.538" height="10.256" transform="matrix(1,0,0,1,0,0)" fill="rgb(255,255,255)"/><rect x="10" y="14.103" width="12.308" height="10.256" transform="matrix(1,0,0,1,0,0)" fill="rgb(255,255,255)"/></g><g><rect x="28.462" y="34.615" width="61.538" height="10.256" transform="matrix(1,0,0,1,0,0)" fill="rgb(255,255,255)"/><rect x="10" y="34.615" width="12.308" height="10.256" transform="matrix(1,0,0,1,0,0)" fill="rgb(255,255,255)"/></g><g><rect x="28.462" y="55.128" width="61.538" height="10.256" transform="matrix(1,0,0,1,0,0)" fill="rgb(255,255,255)"/><rect x="10" y="55.128" width="12.308" height="10.256" transform="matrix(1,0,0,1,0,0)" fill="rgb(255,255,255)"/></g><g><rect x="28.462" y="75.641" width="61.538" height="10.256" transform="matrix(1,0,0,1,0,0)" fill="rgb(255,255,255)"/><rect x="10" y="75.641" width="12.308" height="10.256" transform="matrix(1,0,0,1,0,0)" fill="rgb(255,255,255)"/></g></g></g></svg>