<?xml version="1.0" encoding="UTF-8" standalone="no"?><!-- Generator: Gravit.io --><svg xmlns="http://www.w3.org/2000/svg" xmlns:xlink="http://www.w3.org/1999/xlink" style="isolation:isolate" viewBox="0 0 100 100" width="100pt" height="100pt"><defs><clipPath id="_clipPath_s5EyJwxp1XF4IhtCobh5D35L69jXAfA5"><rect width="100" height="100"/></clipPath></defs><g clip-path="url(#_clipPath_s5EyJwxp1XF4IhtCobh5D35L69jXAfA5)"><path d=" M 10 10 L 10 39.091 L 17.273 39.091 L 17.273 46.364 L 24.545 46.364 L 24.545 39.091 L 39.091 39.091 L 39.091 10 L 10 10 Z  M 39.091 39.091 L 39.091 46.364 L 46.364 46.364 L 46.364 53.636 L 31.818 53.636 L 31.818 60.909 L 10 60.909 L 10 90 L 39.091 90 L 39.091 60.909 L 60.909 60.909 L 60.909 53.636 L 53.636 53.636 L 53.636 46.364 L 68.182 46.364 L 68.182 39.091 L 75.455 39.091 L 75.455 46.364 L 82.727 46.364 L 82.727 39.091 L 90 39.091 L 90 10 L 60.909 10 L 60.909 39.091 L 39.091 39.091 Z  M 82.727 46.364 L 82.727 53.636 L 90 53.636 L 90 46.364 L 82.727 46.364 Z  M 82.727 53.636 L 75.455 53.636 L 75.455 60.909 L 82.727 60.909 L 82.727 53.636 Z  M 82.727 60.909 L 82.727 68.182 L 90 68.182 L 90 60.909 L 82.727 60.909 Z  M 82.727 68.182 L 75.455 68.182 L 75.455 60.909 L 68.182 60.909 L 68.182 68.182 L 50 68.182 L 50 90 L 57.273 90 L 57.273 75.455 L 71.818 75.455 L 71.818 82.727 L 79.091 82.727 L 79.091 75.455 L 82.727 75.455 L 82.727 68.182 Z  M 71.818 82.727 L 64.545 82.727 L 64.545 90 L 71.818 90 L 71.818 82.727 Z  M 75.455 53.636 L 75.455 46.364 L 68.182 46.364 L 68.182 53.636 L 75.455 53.636 Z  M 31.818 53.636 L 31.818 46.364 L 24.545 46.364 L 24.545 53.636 L 31.818 53.636 Z  M 17.273 46.364 L 10 46.364 L 10 53.636 L 17.273 53.636 L 17.273 46.364 Z  M 46.364 10 L 46.364 24.545 L 42.727 24.545 L 42.727 31.818 L 46.364 31.818 L 46.364 35.455 L 53.636 35.455 L 53.636 24.545 L 57.273 24.545 L 57.273 17.273 L 53.636 17.273 L 53.636 10 L 46.364 10 Z  M 17.273 17.273 L 31.818 17.273 L 31.818 31.818 L 17.273 31.818 L 17.273 17.273 Z  M 68.182 17.273 L 82.727 17.273 L 82.727 31.818 L 68.182 31.818 L 68.182 17.273 Z  M 20.909 20.909 L 20.909 28.182 L 28.182 28.182 L 28.182 20.909 L 20.909 20.909 Z  M 71.818 20.909 L 71.818 28.182 L 79.091 28.182 L 79.091 20.909 L 71.818 20.909 Z  M 17.273 68.182 L 31.818 68.182 L 31.818 82.727 L 17.273 82.727 L 17.273 68.182 Z  M 20.909 71.818 L 20.909 79.091 L 28.182 79.091 L 28.182 71.818 L 20.909 71.818 Z  M 82.727 82.727 L 82.727 90 L 90 90 L 90 82.727 L 82.727 82.727 Z " fill="rgb(255,255,255)"/></g></svg>