<?xml version="1.0" encoding="UTF-8" standalone="no"?>
<svg
   xmlns:dc="http://purl.org/dc/elements/1.1/"
   xmlns:cc="http://creativecommons.org/ns#"
   xmlns:rdf="http://www.w3.org/1999/02/22-rdf-syntax-ns#"
   xmlns:svg="http://www.w3.org/2000/svg"
   xmlns="http://www.w3.org/2000/svg"
   xmlns:sodipodi="http://sodipodi.sourceforge.net/DTD/sodipodi-0.dtd"
   xmlns:inkscape="http://www.inkscape.org/namespaces/inkscape"
   width="26.458334mm"
   height="26.458334mm"
   viewBox="0 0 26.458334 26.458334"
   version="1.1"
   id="svg923"
   inkscape:version="1.0.1 (3bc2e813f5, 2020-09-07)"
   sodipodi:docname="shop.svg">
  <defs
     id="defs917" />
  <sodipodi:namedview
     id="base"
     pagecolor="#ffffff"
     bordercolor="#666666"
     borderopacity="1.0"
     inkscape:pageopacity="0.0"
     inkscape:pageshadow="2"
     inkscape:zoom="3.959798"
     inkscape:cx="-24.919261"
     inkscape:cy="55.957475"
     inkscape:document-units="mm"
     inkscape:current-layer="layer1"
     inkscape:document-rotation="0"
     showgrid="false"
     fit-margin-top="0"
     fit-margin-left="0"
     fit-margin-right="0"
     fit-margin-bottom="0"
     inkscape:window-width="2560"
     inkscape:window-height="1440"
     inkscape:window-x="0"
     inkscape:window-y="0"
     inkscape:window-maximized="1" />
  <metadata
     id="metadata920">
    <rdf:RDF>
      <cc:Work
         rdf:about="">
        <dc:format>image/svg+xml</dc:format>
        <dc:type
           rdf:resource="http://purl.org/dc/dcmitype/StillImage" />
        <dc:title />
      </cc:Work>
    </rdf:RDF>
  </metadata>
  <g
     inkscape:label="Calque 1"
     inkscape:groupmode="layer"
     id="layer1"
     transform="translate(373.80541,-53.307683)">
    <g
       id="g2315"
       transform="matrix(0.55721027,0,0,0.55721027,-445.06281,-1.9986033)"
       style="stroke-width:1.79466">
      <g
         id="g2567"
         transform="matrix(0.6434584,0,0,0.6434584,103.6785,18.202509)"
         style="stroke-width:2.78907">
        <path
           style="fill:#666666;stroke:none;stroke-width:8.36724;paint-order:markers stroke fill"
           id="path2339"
           sodipodi:type="arc"
           sodipodi:cx="93.65374"
           sodipodi:cy="190.26932"
           sodipodi:rx="4.2269378"
           sodipodi:ry="4.2269378"
           sodipodi:start="0"
           sodipodi:end="6.2831679"
           sodipodi:open="true"
           sodipodi:arc-type="arc"
           d="m 97.880678,190.26932 a 4.2269378,4.2269378 0 0 1 -4.22692,4.22694 4.2269378,4.2269378 0 0 1 -4.226956,-4.22691 4.2269378,4.2269378 0 0 1 4.226883,-4.22697 4.2269378,4.2269378 0 0 1 4.226993,4.22686" />
        <path
           style="fill:#666666;stroke:none;stroke-width:8.36724;paint-order:markers stroke fill"
           id="path2334"
           sodipodi:type="arc"
           sodipodi:cx="65.707809"
           sodipodi:cy="190.51366"
           sodipodi:rx="4.2269378"
           sodipodi:ry="4.2269378"
           sodipodi:start="0"
           sodipodi:end="6.2831679"
           sodipodi:open="true"
           sodipodi:arc-type="arc"
           d="m 69.934747,190.51366 a 4.2269378,4.2269378 0 0 1 -4.226919,4.22693 4.2269378,4.2269378 0 0 1 -4.226956,-4.2269 4.2269378,4.2269378 0 0 1 4.226882,-4.22697 4.2269378,4.2269378 0 0 1 4.226993,4.22686" />
        <g
           id="g3634"
           style="opacity:1;stroke:none;stroke-width:2.78907">
          <path
             style="color:#000000;font-style:normal;font-variant:normal;font-weight:normal;font-stretch:normal;font-size:medium;line-height:normal;font-family:sans-serif;font-variant-ligatures:normal;font-variant-position:normal;font-variant-caps:normal;font-variant-numeric:normal;font-variant-alternates:normal;font-variant-east-asian:normal;font-feature-settings:normal;font-variation-settings:normal;text-indent:0;text-align:start;text-decoration:none;text-decoration-line:none;text-decoration-style:solid;text-decoration-color:#000000;letter-spacing:normal;word-spacing:normal;text-transform:none;writing-mode:lr-tb;direction:ltr;text-orientation:mixed;dominant-baseline:auto;baseline-shift:baseline;text-anchor:start;white-space:normal;shape-padding:0;shape-margin:0;inline-size:0;clip-rule:nonzero;display:inline;overflow:visible;visibility:visible;isolation:auto;mix-blend-mode:normal;color-interpolation:sRGB;color-interpolation-filters:linearRGB;solid-color:#000000;solid-opacity:1;vector-effect:none;fill:#e3e7e8;fill-opacity:1;fill-rule:nonzero;stroke:none;stroke-width:0.737942;stroke-linecap:butt;stroke-linejoin:miter;stroke-miterlimit:4;stroke-dasharray:none;stroke-dashoffset:0;stroke-opacity:1;color-rendering:auto;image-rendering:auto;shape-rendering:auto;text-rendering:auto;enable-background:accumulate;stop-color:#000000;stop-opacity:1"
             d="m 65.380637,192.7165 c -0.775871,-0.15829 -1.837037,-1.09145 -1.678454,-2.00068 v -3.838 c 0.538461,-0.5757 2.168014,-0.67181 1.789225,-1.69019 -0.19292,-1.25864 -1.812287,-0.44204 -2.711451,-0.67322 -1.024988,0.19533 -2.023107,-0.19245 -2.532543,-1.09516 -4.181931,-15.10524 -8.34764,-30.21494 -12.460312,-45.33921 -0.732195,-0.98959 -2.182838,-0.50027 -3.248226,-0.80399 -0.885519,-0.30791 -2.780442,0.32947 -2.435309,-1.13091 -0.49107,-1.35749 0.699578,-1.51495 1.726518,-1.19839 1.709232,0.25049 3.556369,0.21067 5.180927,0.6394 0.981825,0.98049 0.881355,2.59258 1.401476,3.84251 0.74783,2.35473 1.159684,4.85643 2.125327,7.11588 1.281798,0.313 2.887314,0.0454 4.293955,0.13446 h 50.22428 c 1.07357,0.55908 0.80061,1.54601 0.4992,2.50705 -1.30185,6.14006 -3.27741,12.11349 -4.88226,18.17862 -0.49749,1.52536 -0.84361,3.20665 -1.66349,4.56205 -0.82669,0.91623 -2.305297,0.45251 -3.425768,0.74688 -12.086047,1.18102 -24.172478,2.35808 -36.259456,3.52953 -1.078578,0.59975 -0.09264,1.75009 -0.01445,2.65834 0.300308,1.10845 0.551057,2.23383 1.058092,3.27167 h 34.70655 c 1.061156,0.10929 1.530589,1.6348 0.559469,2.08183 -0.942782,0.71443 -2.397985,-0.0459 -3.304259,0.45411 -0.973307,0.95464 0.300302,1.60397 1.172612,1.85724 0.550816,0.65953 -0.263305,2.05097 -0.406198,2.96316 -0.434984,1.11353 -0.364037,2.60384 -1.679718,3.06151 -0.717363,0.43963 -1.929407,-0.3163 -2.000608,-1.20311 -0.393619,-1.27623 -0.166649,-2.72791 -0.134061,-4.0436 -0.04329,-1.23481 2.135986,-0.88529 1.739486,-2.07756 -0.03796,-1.19157 -1.877013,-0.3186 -2.714299,-0.59393 -7.786937,-0.0411 -15.573875,-0.0822 -23.360812,-0.12331 -1.140396,0.85626 -0.190951,1.72911 0.784013,1.90313 1.078502,0.52373 -0.135996,1.85009 -0.127972,2.74853 -0.423872,1.23153 -0.374553,2.76914 -1.685617,3.42678 -0.119142,0.21147 -0.350574,0.10091 -0.535871,0.12858 z m 0.460134,-0.80548 c 0.860143,-0.13093 0.669605,-2.10848 -0.334849,-1.79007 -1.009917,-0.46712 -1.700659,1.28147 -0.621337,1.66127 0.36145,0.48579 0.471036,0.45258 0.956186,0.1288 z m 27.395522,0.0947 c 1.095076,-0.22699 0.912009,-2.02007 -0.145593,-1.93627 -1.161795,-0.3218 -1.538733,1.49019 -0.538999,1.85775 0.258713,0.27702 0.3652,0.23854 0.684592,0.0785 z M 61.327088,173.98659 c 1.359589,0.16973 0.673593,-1.56459 0.551713,-2.36262 -0.431775,-1.61706 -0.593677,-3.32131 -1.340272,-4.83666 -0.80835,0.20589 -2.269841,-0.53816 -2.397057,0.65838 0.599852,2.09795 1.20876,4.19628 1.812095,6.29438 0.418363,0.38897 0.847751,0.38375 1.373521,0.24652 z m 2.855946,-0.32416 c 0.878111,0.16183 2.410452,-0.10098 1.774707,-1.30686 -0.367462,-1.95274 -0.656344,-3.9228 -1.217621,-5.83279 -0.943989,0.12129 -2.213756,-0.23137 -2.969486,0.16381 -0.580545,1.24485 0.323307,2.60059 0.430013,3.89678 0.237324,1.03039 0.421891,2.0742 0.743447,3.08316 0.412951,-0.001 0.826154,-0.003 1.23894,-0.004 z m 5.536532,-2.00587 c -0.323453,-1.80003 -0.218842,-3.7057 -0.977202,-5.39842 -1.092476,0.1363 -2.367178,-0.35201 -3.259061,0.47186 0.473364,2.15018 0.67905,4.40385 1.313775,6.49164 1.203392,0.60441 3.53199,-0.10113 2.922488,-1.56508 z m 2.426577,1.2916 c 1.169176,0.11024 1.932956,-0.87507 1.469269,-1.96458 -0.216424,-1.66408 -0.240649,-3.35945 -0.662893,-4.99002 -1.061866,0.0699 -2.189429,-0.21485 -3.164919,0.3212 -0.11691,2.14471 0.38434,4.23515 0.707625,6.34121 0.513008,0.46383 0.999264,0.46972 1.650918,0.29219 z m 3.427336,-0.34002 c 0.955118,0.19975 2.328385,-0.46542 1.918598,-1.59223 -0.1952,-1.66687 -0.02708,-3.44905 -0.442972,-5.04587 -0.667827,-0.3885 -2.095399,-0.43243 -2.822751,0.0696 -1.075813,0.51237 -0.160983,1.90697 -0.286348,2.84056 0.261287,1.2264 -0.01062,2.63504 0.641323,3.72792 h 0.99215 z m 4.123227,-0.38041 c 0.992805,0.11216 1.919796,-0.73386 1.732561,-1.74545 v -4.42393 c -0.797065,-1.12922 -2.141816,-0.34115 -3.265472,-0.3271 -0.657707,0.74205 -0.06193,1.98206 -0.216634,2.92393 0.225949,1.24639 -0.407604,2.81694 0.678448,3.73894 0.357032,-0.0555 0.714065,-0.11093 1.071097,-0.16639 z m 3.518498,-0.41739 c 0.901486,0.14994 2.284271,-0.061 1.927563,-1.29393 0.04099,-1.72808 0.08197,-3.45617 0.122959,-5.18426 -1.100021,0.13852 -2.274156,-0.0827 -3.307292,0.38028 v 6.10202 c 0.418885,-0.001 0.83807,-0.003 1.25677,-0.004 z m 4.099235,-0.35112 c 1.370008,0.23343 1.844358,-0.73216 1.77607,-1.95066 0.295865,-1.47225 0.335905,-2.95286 0.143965,-4.44104 -0.99291,0.1505 -2.136747,-0.0374 -3.04183,0.31005 -0.392937,1.42518 -0.25285,3.0961 -0.446886,4.61298 -0.146821,1.3032 0.183931,1.92406 1.568681,1.46867 z m 3.882189,-0.39111 c 1.12103,0.22516 1.798885,-0.72965 1.755547,-1.76346 0.236782,-1.3891 0.473564,-2.77821 0.710346,-4.16732 -0.868457,-0.7753 -2.071804,-0.0842 -3.105129,-0.13762 -0.93412,0.75905 -0.452524,2.22193 -0.742647,3.30115 0.149656,0.93503 -0.801198,2.41676 0.321597,2.86837 0.353429,-0.0337 0.706857,-0.0674 1.060286,-0.10112 z m 3.448108,-0.31205 c 1.186774,0.26701 2.259034,-0.79478 2.276262,-1.95629 0.227235,-1.37521 0.739731,-2.72079 0.647852,-4.12913 -0.956977,0.10423 -2.108308,-0.19631 -2.955334,0.13692 -0.886459,1.10431 -0.62644,2.72249 -1.015358,4.04981 -0.228263,1.0451 -0.569082,2.26947 1.046578,1.89869 z m 3.768791,-0.36737 c 1.458729,0.0974 1.26619,-1.63391 1.689773,-2.59245 0.29572,-1.1181 0.7727,-2.2099 0.63965,-3.39018 -1.062842,0.0302 -2.478781,-0.36952 -2.600623,1.09772 -0.240824,1.45668 -0.749109,2.93463 -0.824884,4.37817 0.16365,0.8044 0.381435,0.68877 1.096084,0.50674 z m -39.606135,-5.18888 c 1.411385,0.44113 1.671456,-0.79627 1.133179,-1.84567 -0.436227,-1.84691 -0.872452,-3.69381 -1.308677,-5.54072 -0.858265,-0.4436 -2.253408,-0.27026 -2.867211,0.2124 0.220182,2.29728 1.143248,4.50198 1.639178,6.76294 0.189295,0.70566 0.866202,0.31169 1.403531,0.41105 z m 3.9386,-0.16082 c 1.174151,0.11386 2.191979,-0.47331 1.522213,-1.7294 -0.455354,-1.9258 -0.479234,-3.98091 -1.348426,-5.7827 h -3.202954 c -0.703447,1.30063 0.283295,2.71986 0.407491,4.07857 1.006606,2.35263 -0.18302,3.78488 2.621676,3.43353 z m 5.788131,-1.98476 c -0.292649,-1.84217 -0.445612,-3.70939 -0.87327,-5.52734 h -3.694086 c -0.01573,2.37255 0.769133,4.66947 1.10482,7.00882 1.366196,0.88489 4.149287,0.0908 3.462536,-1.48148 z m 2.688424,1.50381 c 1.198653,0.17989 2.09378,-0.54102 1.589948,-1.7716 -0.221382,-1.65414 -0.191954,-3.40773 -0.566417,-5.00118 -0.53992,-1.01076 -1.911181,-0.32206 -2.847274,-0.52295 -1.357705,-0.2365 -0.936545,1.5804 -0.790021,2.41356 0.305864,1.52977 0.287273,3.26097 0.79432,4.66584 0.504063,0.57786 1.162937,0.23037 1.819444,0.21633 z m 4.047479,-0.21198 c 0.984972,0.12673 2.162434,-0.25811 1.820223,-1.47569 -0.15037,-1.86863 0.01492,-3.77629 -0.433563,-5.60806 h -3.446111 c -0.633773,1.4422 0.09057,3.06793 0.0689,4.59284 0.237061,0.83552 -0.224188,2.73566 1.069664,2.56728 0.306963,-0.0255 0.613926,-0.0509 0.920889,-0.0764 z m 4.039291,-0.20458 c 0.942942,0.23409 2.214051,-0.25919 2.11995,-1.35791 v -5.15084 c -0.72376,-1.12708 -2.192062,-0.44903 -3.307292,-0.627 -1.265375,0.37095 -0.496333,1.78387 -0.606055,2.74671 0.209273,1.4229 -0.07807,3.00304 0.462942,4.3209 0.348991,0.16203 0.913121,0.0199 1.330455,0.0681 z m 4.177744,-0.26459 c 0.850656,0.15314 2.235983,-0.10175 2.143085,-1.18758 0.05492,-1.85309 0.109832,-3.70619 0.164748,-5.55929 h -3.704167 c -0.0047,2.06806 -0.19487,4.1681 -0.0877,6.21687 0.06321,0.89297 0.881517,0.41247 1.484037,0.53 z m 4.257252,-0.26458 c 0.862774,0.16113 2.169169,-0.11756 2.149203,-1.18516 0.08739,-1.7015 0.52233,-3.50902 0.393592,-5.1446 -0.544381,-1.01651 -1.871673,-0.36585 -2.807212,-0.54941 -1.269416,0.2305 -1.006265,1.44834 -1.090687,2.44226 -0.01835,1.3306 -0.316891,2.731 -0.160494,4.01806 0.201515,0.71783 0.972016,0.31589 1.515598,0.41885 z m 4.233333,-0.26458 c 0.876454,0.1659 2.12308,-0.12281 2.16176,-1.18116 0.192414,-1.68784 0.708963,-3.44043 0.701114,-5.08827 -0.624108,-0.75728 -2.010513,-0.14304 -2.947219,-0.3379 -1.310436,0.007 -0.882833,1.60457 -1.112778,2.48161 -0.06522,1.23086 -0.436539,2.53034 -0.311224,3.71849 0.199845,0.70611 0.970931,0.30177 1.508347,0.40723 z m 4.233333,-0.26459 c 0.961128,0.19947 2.227792,-0.20836 2.2408,-1.34831 0.336625,-1.60434 0.67325,-3.20867 1.009874,-4.813 -0.85352,-0.78333 -2.068818,-0.32802 -3.11458,-0.45317 -1.079934,0.44423 -0.976393,1.58977 -1.158618,2.56598 -0.120031,1.208 -0.564947,2.48033 -0.481741,3.64809 0.197394,0.69859 0.9729,0.29457 1.504265,0.40041 z m 4.010011,-0.26458 c 1.35628,0.42463 1.58853,-1.1302 1.85151,-2.11063 0.26725,-1.30514 0.9093,-2.66432 0.94429,-3.93598 -0.54463,-0.5084 -2.08666,-0.46572 -2.69249,-0.0298 -0.786836,1.25681 -0.748272,2.91167 -1.201131,4.32955 -0.411767,1.08121 -0.356889,2.04768 1.097821,1.74688 z M 56.409359,156.204 c 1.132525,0.35994 2.128063,-0.63828 1.476942,-1.72056 -0.428322,-1.79146 -0.833529,-3.58877 -1.331932,-5.36254 -1.033817,-0.47363 -2.105593,-0.16731 -3.170936,0.007 -0.05034,2.13727 1.008174,4.11917 1.447367,6.18785 0.139418,0.96015 0.752033,0.96233 1.578559,0.88827 z m 6.227755,-0.61543 c -0.0021,-2.04374 -0.674943,-4.0166 -0.975405,-6.02881 -0.705717,-0.96741 -2.097973,-0.36391 -3.124208,-0.59792 -1.567479,-0.45368 -1.238119,1.13453 -0.883838,2.07614 0.427572,1.51326 0.576368,3.20781 1.174903,4.60989 0.869059,0.63136 3.669141,0.3518 3.808548,-0.0593 z m 2.802474,0.35084 c 0.974994,0.12731 2.356394,0.10777 1.920986,-1.24883 -0.334732,-1.76849 -0.401625,-3.67149 -0.900084,-5.35775 -0.828481,-0.78123 -2.222903,-0.31094 -3.295381,-0.5526 -1.403592,0.20455 -0.632371,1.64019 -0.555541,2.59418 0.374402,1.52029 0.245155,3.21281 1.111234,4.56498 0.572929,1e-5 1.145857,1e-5 1.718786,2e-5 z m 6.531353,-1.65149 c -0.149735,-1.55122 -0.360973,-3.09877 -0.331242,-4.66071 -0.617172,-1.12498 -1.736707,-0.86288 -2.812343,-0.722 -1.347304,-0.24516 -2.030303,0.76567 -1.481124,1.97178 0.344903,1.53708 0.264683,3.25801 0.882964,4.67685 1.152906,0.90386 4.240228,0.14805 3.741745,-1.26592 z m 2.800361,1.33233 c 1.226179,0.11417 2.206415,-0.003 1.73729,-1.48108 -0.09523,-1.64787 0.06677,-3.40512 -0.188767,-4.98483 -1.19842,-0.26254 -2.573067,-0.11919 -3.839017,-0.2262 -0.829831,0.72322 -0.03574,2.03258 -0.14533,3.01576 0.727929,2.88205 -0.805572,3.81973 2.435824,3.67636 z m 4.326507,0.0546 c 0.821039,0.0648 2.424157,0.028 2.331458,-1.07415 v -5.25723 c -1.228739,-0.99934 -2.812732,-0.18695 -4.233334,-0.20782 -0.09689,1.95564 0.0466,3.91902 0.04542,5.87774 0.41862,0.85199 1.035364,0.66241 1.856456,0.66146 z m 4.895646,-0.26458 c 1.180446,0.20842 2.050048,-0.0339 2.189688,-1.33469 0.02003,-1.65673 0.0028,-3.32031 0.0086,-4.97965 -1.223908,-0.46849 -2.619985,-0.15313 -3.85596,0.0269 -0.815931,0.62871 -0.172495,2.07107 -0.377374,3.04047 0.12354,0.9967 -0.244027,2.19683 0.17639,3.07056 0.42093,0.39538 1.304225,0.0705 1.858632,0.17639 z m 4.388398,0 c 0.867465,0.10927 2.163126,0.0168 2.336166,-1.01025 0.179196,-1.62656 0.358395,-3.25311 0.537595,-4.87966 -0.772708,-0.90691 -2.191487,-0.33549 -3.260115,-0.56528 -1.46549,-0.36317 -1.128378,1.41679 -1.202089,2.32473 0.07474,1.37418 -0.429603,2.84366 0.175499,4.13054 0.470981,-3e-5 0.941963,-5e-5 1.412944,-8e-5 z m 4.821372,-0.26459 c 0.980273,0.10173 2.2407,0.13307 2.205412,-1.18028 0.251987,-1.47317 0.503976,-2.94633 0.755966,-4.4195 -0.571837,-1.06143 -1.689955,-0.68875 -2.679981,-0.65233 -1.329573,-0.31041 -1.952891,0.76235 -1.82113,1.95882 -0.06882,1.32427 -0.450186,2.71916 -0.329681,4.00065 0.28824,0.61715 1.306583,0.14502 1.869414,0.29264 z m 4.55576,-0.004 c 0.890425,0.0411 2.355695,0.16351 2.326635,-1.10261 0.34097,-1.58444 0.68194,-3.16889 1.0229,-4.75333 -1.0389,-0.94025 -2.496906,-0.12035 -3.745271,-0.18088 -1.089274,0.35541 -0.66411,1.92645 -1.020203,2.82457 -0.05801,1.0741 -0.722154,2.20808 -0.113721,3.21635 0.509853,-0.001 1.019974,-0.003 1.52966,-0.004 z m 4.428865,-0.26054 c 1.37242,0.40828 1.77327,-0.47874 1.93511,-1.68439 0.38537,-1.28452 0.74193,-2.57706 1.07716,-3.87553 -0.90042,-0.75038 -2.06078,-0.3357 -3.1234,-0.35913 -0.80084,0.95766 -0.68161,2.42887 -1.10885,3.59505 -0.0672,0.67125 -0.74826,2.45015 0.30241,2.32396 0.30585,1e-5 0.61171,3e-5 0.91757,4e-5 z"
             id="path3636" />
          <path
             style="color:#000000;font-style:normal;font-variant:normal;font-weight:normal;font-stretch:normal;font-size:medium;line-height:normal;font-family:sans-serif;font-variant-ligatures:normal;font-variant-position:normal;font-variant-caps:normal;font-variant-numeric:normal;font-variant-alternates:normal;font-variant-east-asian:normal;font-feature-settings:normal;font-variation-settings:normal;text-indent:0;text-align:start;text-decoration:none;text-decoration-line:none;text-decoration-style:solid;text-decoration-color:#000000;letter-spacing:normal;word-spacing:normal;text-transform:none;writing-mode:lr-tb;direction:ltr;text-orientation:mixed;dominant-baseline:auto;baseline-shift:baseline;text-anchor:start;white-space:normal;shape-padding:0;shape-margin:0;inline-size:0;clip-rule:nonzero;display:inline;overflow:visible;visibility:visible;isolation:auto;mix-blend-mode:normal;color-interpolation:sRGB;color-interpolation-filters:linearRGB;solid-color:#000000;solid-opacity:1;vector-effect:none;fill:#e3e7e8;fill-opacity:1;fill-rule:nonzero;stroke:none;stroke-width:0.737942;stroke-linecap:butt;stroke-linejoin:miter;stroke-miterlimit:4;stroke-dasharray:none;stroke-dashoffset:0;stroke-opacity:1;color-rendering:auto;image-rendering:auto;shape-rendering:auto;text-rendering:auto;enable-background:accumulate;stop-color:#000000;stop-opacity:1"
             d="m 42.310547,134.73242 c -0.224012,0.10412 -0.410984,0.29277 -0.486328,0.55078 -0.07534,0.25801 -0.0463,0.56608 0.08594,0.93164 l -0.0059,-0.11718 c -0.0952,0.40281 -0.03842,0.7305 0.160156,0.93945 0.198573,0.20895 0.480778,0.27741 0.771485,0.31055 0.581412,0.0663 1.27654,-0.002 1.634765,0.12304 l 0.0059,0.002 0.0059,0.002 c 0.584348,0.16658 1.224176,0.11438 1.791016,0.15234 0.560095,0.0375 1.01456,0.1514 1.332031,0.56836 4.107426,15.10442 8.266996,30.19417 12.443359,45.2793 l 0.0078,0.0234 0.01172,0.0215 c 0.544664,0.96513 1.61872,1.37931 2.699219,1.19336 0.526896,0.12093 1.142843,-0.0245 1.640625,-0.041 0.254814,-0.008 0.468135,0.0187 0.607422,0.0937 0.139287,0.0751 0.232238,0.18434 0.273437,0.45313 l 0.002,0.0215 0.0078,0.0195 c 0.07754,0.20846 0.05344,0.31385 -0.02148,0.42578 -0.07493,0.11193 -0.230834,0.22515 -0.431641,0.33007 -0.401613,0.20985 -0.956959,0.36341 -1.292969,0.72266 l -0.05664,0.0586 v 3.91796 l 0.0039,-0.0352 c -0.09467,0.54281 0.170703,1.06242 0.541016,1.45898 0.370312,0.39657 0.851346,0.68801 1.298828,0.7793 l 0.03516,0.008 0.03516,-0.006 c 0.04072,-0.006 0.138584,0.009 0.267578,0.006 0.128995,-0.003 0.322933,-0.0676 0.417969,-0.23633 l -0.08789,0.082 c 0.713856,-0.35807 1.066369,-0.97118 1.279297,-1.61718 0.212929,-0.64601 0.307198,-1.33724 0.509766,-1.92578 l 0.01172,-0.0332 v -0.0352 c -0.0032,-0.35569 0.278278,-0.91257 0.455078,-1.44922 0.0884,-0.26833 0.151805,-0.54061 0.103516,-0.81055 -0.04829,-0.26994 -0.232937,-0.51942 -0.546876,-0.67187 l -0.02539,-0.0137 -0.0293,-0.004 c -0.440312,-0.0786 -0.878009,-0.33309 -1.046875,-0.60352 -0.08443,-0.13521 -0.110733,-0.26254 -0.07031,-0.41015 0.03725,-0.13603 0.168456,-0.30431 0.388671,-0.48243 7.75634,0.0409 15.513192,0.0821 23.269532,0.12305 l -0.06445,-0.01 c 0.522328,0.17177 1.191165,-0.004 1.734374,-0.0371 0.271605,-0.0166 0.50306,0.002 0.634766,0.0644 0.131707,0.0621 0.197296,0.13266 0.205078,0.37695 v 0.0312 l 0.0098,0.0274 c 0.08228,0.2474 0.04125,0.33705 -0.06445,0.44726 -0.105701,0.11022 -0.317141,0.21493 -0.560547,0.32227 -0.243406,0.10733 -0.516607,0.22082 -0.742188,0.4082 -0.22558,0.18738 -0.395739,0.47307 -0.382812,0.8418 -0.03288,1.2815 -0.258115,2.73456 0.138672,4.06054 0.04545,0.52835 0.406369,0.98048 0.851562,1.25196 0.444281,0.27091 1.00131,0.37087 1.447266,0.10351 0.699531,-0.25804 1.060205,-0.80584 1.267578,-1.39258 0.21102,-0.59705 0.301057,-1.24525 0.505859,-1.76953 l 0.0078,-0.0215 0.0039,-0.0215 c 0.06468,-0.4129 0.301539,-0.9909 0.458984,-1.55273 0.07872,-0.28091 0.137432,-0.55987 0.138672,-0.82813 0.0012,-0.26825 -0.05985,-0.53478 -0.236328,-0.74609 l -0.04102,-0.0488 -0.05859,-0.0176 c -0.416704,-0.12098 -0.933167,-0.34871 -1.189453,-0.61132 -0.128143,-0.13131 -0.188078,-0.25553 -0.185547,-0.38672 0.0024,-0.12321 0.08287,-0.28594 0.271484,-0.48242 0.373289,-0.19374 0.907679,-0.15713 1.498047,-0.11914 0.595244,0.0383 1.24814,0.0511 1.785156,-0.34571 0.273533,-0.13445 0.46823,-0.34879 0.558594,-0.5957 0.09342,-0.25526 0.09019,-0.53545 0.01563,-0.79688 -0.149127,-0.52284 -0.594272,-0.99818 -1.21875,-1.0625 h -0.0098 -34.570313 c -0.459103,-0.98015 -0.716628,-2.04436 -1.007813,-3.11914 l 0.0078,0.0352 c -0.04479,-0.52031 -0.321161,-1.03773 -0.433594,-1.47852 -0.05622,-0.22039 -0.07057,-0.41263 -0.02734,-0.5664 0.04119,-0.14651 0.141408,-0.27241 0.351562,-0.39649 12.066212,-1.16945 24.131999,-2.34444 36.197266,-3.52343 l 0.01563,-0.002 0.01758,-0.004 c 0.513079,-0.1348 1.150439,-0.0984 1.78125,-0.13477 0.630811,-0.0364 1.278401,-0.15764 1.744141,-0.67383 l 0.0137,-0.0137 0.01,-0.0176 c 0.84558,-1.3979 1.19119,-3.09572 1.68359,-4.60547 l 0.002,-0.004 v -0.006 c 1.60103,-6.05067 3.57583,-12.02192 4.88086,-18.16992 l 0.002,-0.0156 c 0.14989,-0.4782 0.30492,-0.97861 0.27343,-1.46484 -0.0318,-0.49136 -0.28988,-0.96576 -0.87695,-1.27149 l -0.0449,-0.0234 H 56.832031 l 0.01367,0.002 c -1.406024,-0.089 -2.947485,0.1379 -4.152344,-0.125 -0.920478,-2.20118 -1.342049,-4.64625 -2.083984,-6.98242 l -0.0039,-0.01 -0.0039,-0.008 c -0.246211,-0.59169 -0.352051,-1.29625 -0.517578,-1.99023 -0.165527,-0.69399 -0.394476,-1.38544 -0.927734,-1.91797 l -0.03906,-0.0391 -0.05469,-0.0156 c -1.664772,-0.43934 -3.518012,-0.39562 -5.203125,-0.64258 l 0.03125,0.006 c -0.544015,-0.1677 -1.132055,-0.22581 -1.580078,-0.0176 z m 0.173828,0.37305 c 0.281268,-0.13073 0.802231,-0.11176 1.285156,0.0371 l 0.01563,0.006 0.01563,0.002 c 1.709032,0.25046 3.516804,0.22521 5.085938,0.625 0.425703,0.44432 0.643128,1.02495 0.798828,1.67773 0.159724,0.66967 0.2632,1.39645 0.537109,2.05469 0.738229,2.3305 1.150495,4.83243 2.126953,7.11719 l 0.03906,0.0957 0.09961,0.0234 c 1.346465,0.32879 2.959202,0.0538 4.330078,0.14063 h 0.0078 50.150393 c 0.4581,0.24928 0.61454,0.53746 0.63867,0.91015 0.0247,0.38213 -0.10586,0.85183 -0.25585,1.33008 l -0.004,0.01 -0.002,0.008 c -1.29871,6.12524 -3.27193,12.09673 -4.87891,18.16992 l 0.002,-0.0117 c -0.49974,1.53226 -0.84814,3.18472 -1.63282,4.49414 -0.36024,0.39068 -0.859603,0.49916 -1.449214,0.5332 -0.595282,0.0344 -1.255889,-0.0131 -1.863281,0.14649 l 0.0332,-0.006 c -12.086002,1.18102 -24.172851,2.35785 -36.259765,3.5293 l -0.04297,0.004 -0.03711,0.0215 c -0.305668,0.16997 -0.493594,0.40508 -0.566406,0.66406 -0.07281,0.25898 -0.03983,0.52361 0.02539,0.7793 0.130439,0.51138 0.388477,1.02417 0.421875,1.41211 l 0.002,0.0176 0.0039,0.0195 c 0.298677,1.10243 0.551235,2.24015 1.072266,3.30664 l 0.05664,0.11523 h 34.8125 c 0.436678,0.045 0.757137,0.38663 0.865235,0.76563 0.05405,0.18949 0.05267,0.38304 -0.0059,0.54296 -0.05853,0.15992 -0.166562,0.29031 -0.363281,0.38086 l -0.02148,0.01 -0.01758,0.0137 c -0.402827,0.30526 -0.940568,0.3035 -1.529297,0.26563 -0.588729,-0.0379 -1.217516,-0.12191 -1.75,0.17187 l -0.02539,0.0137 -0.01953,0.0195 c -0.267647,0.26252 -0.406959,0.53382 -0.412109,0.80079 -0.0052,0.26696 0.125099,0.49962 0.302734,0.68164 0.329996,0.33813 0.836272,0.5348 1.271484,0.66992 0.09231,0.11695 0.139597,0.26484 0.138672,0.46484 -9.55e-4,0.20664 -0.05118,0.45534 -0.125,0.71875 -0.147634,0.52682 -0.390538,1.10033 -0.46875,1.59961 -0.218249,0.57799 -0.313416,1.21232 -0.5,1.74024 -0.0683,0.19323 -0.274999,0.25717 -0.373047,0.41406 0.111562,-0.22266 0.17758,-0.46695 0.15625,-0.70899 -0.02403,-0.27268 -0.12614,-0.53803 -0.3125,-0.73828 -0.178988,-0.19232 -0.451383,-0.30028 -0.757812,-0.28711 -0.323095,-0.0764 -0.629014,-0.0301 -0.84961,0.12696 -0.231234,0.16464 -0.378132,0.41638 -0.445312,0.68554 -0.06718,0.26916 -0.05669,0.56188 0.04883,0.82422 0.102502,0.25484 0.312339,0.47424 0.603516,0.58985 0.120207,0.11736 0.240965,0.21282 0.386718,0.2246 -0.195014,-0.0104 -0.371486,0.0634 -0.568359,-0.0566 -0.355899,-0.21702 -0.631631,-0.58417 -0.660156,-0.93945 l -0.002,-0.0234 -0.0078,-0.0215 c -0.374118,-1.213 -0.15808,-2.64295 -0.125,-3.97852 l 0.002,-0.006 -0.002,-0.006 c -0.0087,-0.24868 0.07786,-0.38009 0.236328,-0.51172 0.158468,-0.13164 0.398092,-0.23899 0.644532,-0.34766 0.246439,-0.10867 0.50136,-0.2159 0.691406,-0.41406 0.182729,-0.19054 0.249234,-0.49549 0.152344,-0.82813 -0.02196,-0.33351 -0.182561,-0.59712 -0.423829,-0.71093 -0.249957,-0.11792 -0.538373,-0.12176 -0.835937,-0.10352 -0.595128,0.0365 -1.265121,0.16021 -1.580078,0.0566 l -0.03125,-0.01 h -0.03125 c -7.786937,-0.0411 -15.574392,-0.0819 -23.361328,-0.12304 l -0.06836,-0.002 -0.05664,0.043 c -0.309465,0.23236 -0.498485,0.48183 -0.570313,0.74414 -0.07183,0.26231 -0.01311,0.52455 0.119141,0.73633 0.264499,0.42357 0.787614,0.69364 1.322265,0.78906 l -0.05273,-0.0176 c 0.225312,0.10941 0.292741,0.22087 0.320313,0.375 0.02757,0.15412 -0.0085,0.36834 -0.08789,0.60937 -0.158817,0.48207 -0.48141,1.03733 -0.476563,1.58008 l 0.01172,-0.0684 c -0.221304,0.64298 -0.315572,1.33655 -0.511719,1.93164 -0.07471,0.22667 -0.296432,0.33499 -0.408203,0.52539 0.08693,-0.22955 0.12252,-0.48409 0.08789,-0.73242 -0.03759,-0.26953 -0.139039,-0.52971 -0.330078,-0.7168 -0.180352,-0.17662 -0.465318,-0.23976 -0.757813,-0.16601 -0.269044,-0.0898 -0.543538,-0.1028 -0.755859,0.0137 -0.2414,0.13242 -0.414531,0.35875 -0.511719,0.61133 -0.09719,0.25257 -0.120911,0.53839 -0.03125,0.80273 0.08966,0.26434 0.30405,0.49966 0.626953,0.61328 l -0.09766,-0.0723 c 0.094,0.12634 0.174875,0.22498 0.263672,0.30273 0.0888,0.0778 0.197655,0.13779 0.316406,0.14844 0.237502,0.0213 0.41043,-0.10938 0.65625,-0.27344 l -0.08398,0.0332 c 0.237277,-0.0361 0.376453,-0.22402 0.49414,-0.4082 -0.169649,0.23609 -0.239277,0.54591 -0.541015,0.69727 l -0.05664,0.0273 -0.0293,0.0547 c -0.02411,0.0428 -0.0075,0.0278 -0.07031,0.0293 -0.04895,0.001 -0.147545,-0.005 -0.248047,-0.002 -0.328154,-0.0676 -0.7642,-0.32007 -1.078125,-0.65625 -0.314592,-0.33689 -0.501409,-0.73905 -0.4375,-1.10547 l 0.0039,-0.0176 v -3.74805 c 0.221663,-0.20326 0.695679,-0.38013 1.126953,-0.60547 0.226541,-0.11837 0.443077,-0.2563 0.583985,-0.4668 0.137457,-0.20534 0.16454,-0.48659 0.0625,-0.77929 -0.06066,-0.34471 -0.231013,-0.6032 -0.470703,-0.73243 -0.246702,-0.133 -0.529868,-0.15206 -0.816407,-0.14257 -0.573077,0.019 -1.198286,0.14832 -1.5625,0.0547 l -0.04492,-0.01 -0.04492,0.008 c -0.947194,0.1805 -1.839435,-0.17019 -2.306641,-0.98633 -4.178159,-15.09225 -8.340069,-30.19 -12.449094,-45.30086 l -0.01172,-0.0371 -0.02148,-0.0312 c -0.414348,-0.56001 -1.044466,-0.70148 -1.652344,-0.74219 -0.607877,-0.0407 -1.224038,4.2e-4 -1.705078,-0.13672 l 0.0098,0.004 c -0.527295,-0.18335 -1.221511,-0.0855 -1.722657,-0.14258 -0.250572,-0.0286 -0.432202,-0.0936 -0.519531,-0.18554 -0.08733,-0.0919 -0.137915,-0.23318 -0.06055,-0.56055 l 0.01563,-0.0606 -0.02148,-0.0566 c -0.113294,-0.31318 -0.120006,-0.53432 -0.07813,-0.67773 0.04188,-0.14342 0.124991,-0.22761 0.265625,-0.29297 z m 20.689453,13.4668 -0.03906,0.004 c -0.387518,0.0565 -0.666976,0.21146 -0.828125,0.44336 -0.16115,0.2319 -0.194473,0.51086 -0.179688,0.78711 0.02957,0.55251 0.242685,1.15363 0.277344,1.58398 l 0.002,0.0176 0.0039,0.0156 c 0.363303,1.47522 0.223602,3.20134 1.136719,4.62695 l 0.06055,0.0937 h 0.113281 c 0.572932,1e-5 1.145824,-10e-6 1.71875,0 l -0.02734,-0.002 c 0.501197,0.0654 1.108653,0.10473 1.589844,-0.0801 0.240596,-0.0924 0.458878,-0.25401 0.568359,-0.50391 0.109482,-0.24989 0.104892,-0.56223 -0.01367,-0.93164 l 0.0059,0.0254 c -0.330651,-1.74692 -0.395335,-3.65516 -0.904297,-5.37695 l -0.01563,-0.0547 -0.04102,-0.0371 c -0.471109,-0.44424 -1.091246,-0.52458 -1.693359,-0.53515 -0.602112,-0.0106 -1.207567,0.042 -1.697265,-0.0684 z m 7.25586,0.0156 c -0.536554,-0.0628 -1.09826,0.0438 -1.628907,0.11328 l 0.0625,0.002 c -0.728637,-0.13258 -1.331635,0.0787 -1.654297,0.52344 -0.322662,0.4447 -0.347667,1.08431 -0.05078,1.73633 l -0.01172,-0.041 c 0.336235,1.49844 0.249327,3.23421 0.894532,4.71484 l 0.01953,0.0469 0.04102,0.0312 c 0.668477,0.52408 1.772486,0.53891 2.675782,0.27149 0.451648,-0.13371 0.858114,-0.34093 1.132812,-0.63672 0.274698,-0.29579 0.402563,-0.70919 0.253906,-1.13086 l 0.01172,0.0488 c -0.150255,-1.55661 -0.359407,-3.09589 -0.330078,-4.63672 v -0.0547 l -0.02539,-0.0469 c -0.337038,-0.61436 -0.854071,-0.87865 -1.390624,-0.94141 z m 24.566406,0.0156 c -0.515163,-0.0379 -1.047422,0.0666 -1.519532,0.084 l 0.05469,0.006 c -0.722776,-0.16874 -1.314432,0.0503 -1.666016,0.48633 -0.351583,0.43603 -0.476723,1.05537 -0.40625,1.69531 v -0.0332 c -0.06717,1.29243 -0.45567,2.69566 -0.330078,4.03125 l 0.0039,0.0351 0.01563,0.0312 c 0.09596,0.20545 0.27312,0.33699 0.458984,0.39453 0.185864,0.0575 0.379152,0.0588 0.570312,0.0469 0.382322,-0.0238 0.772702,-0.0896 0.972657,-0.0371 l 0.01563,0.004 0.01563,0.002 c 0.496979,0.0516 1.077836,0.0949 1.570312,-0.0684 0.246238,-0.0816 0.474395,-0.22129 0.632813,-0.44336 0.158417,-0.22207 0.238219,-0.51774 0.228515,-0.87891 l -0.002,0.041 c 0.251987,-1.47317 0.503869,-2.94675 0.75586,-4.41992 l 0.01172,-0.0684 -0.0332,-0.0625 c -0.317221,-0.58882 -0.834446,-0.80777 -1.349609,-0.8457 z m -10.740235,0.0547 c -0.674102,0.0439 -1.337249,0.17258 -1.949218,0.26172 l -0.05469,0.008 -0.04102,0.0332 c -0.244438,0.18835 -0.383638,0.44502 -0.449219,0.71679 -0.06558,0.27178 -0.06599,0.56045 -0.04883,0.84961 0.03432,0.57833 0.134092,1.17184 0.04492,1.59375 l -0.0078,0.0332 0.0039,0.0351 c 0.05747,0.46365 8.77e-4,1.00372 -0.02344,1.54688 -0.02432,0.54316 -0.01756,1.09483 0.21875,1.58594 l 0.01758,0.0351 0.02734,0.0254 c 0.283254,0.26606 0.674461,0.27323 1.03125,0.25391 0.353792,-0.0192 0.70211,-0.0655 0.921875,-0.0254 l 0.0098,0.002 c 0.612171,0.10809 1.16846,0.10921 1.615235,-0.12109 0.446774,-0.23031 0.739943,-0.70045 0.814453,-1.39453 l 0.002,-0.01 v -0.01 c 0.02007,-1.65981 0.002,-3.32498 0.0078,-4.98242 l 0.002,-0.14062 -0.132813,-0.0508 c -0.650712,-0.24908 -1.335663,-0.28995 -2.009766,-0.2461 z m 15.033203,0.004 c -0.672405,0.0826 -1.340552,0.26618 -1.916015,0.23828 l -0.03711,-0.002 -0.03711,0.0117 c -0.31853,0.10393 -0.544191,0.31082 -0.683594,0.55859 -0.139402,0.24777 -0.201387,0.52944 -0.240234,0.81641 -0.07769,0.57392 -0.07008,1.18354 -0.222656,1.56836 l -0.01367,0.0312 v 0.0332 c -0.02694,0.49875 -0.203936,1.04395 -0.304688,1.60742 -0.100751,0.56347 -0.120179,1.1649 0.21875,1.72656 l 0.06055,0.0996 h 0.117188 c 0.506864,-9.9e-4 1.013358,-0.003 1.519531,-0.004 0.0027,1.2e-4 0.007,-1.3e-4 0.0098,0 h 0.205078 v -0.01 c 0.415082,0.0207 0.900726,0.0585 1.353515,-0.0586 0.262334,-0.0678 0.512019,-0.184 0.695313,-0.39063 0.1833,-0.20662 0.28552,-0.49744 0.27735,-0.85351 l -0.004,0.0469 c 0.34097,-1.58444 0.68052,-3.16946 1.02148,-4.75391 l 0.0254,-0.11523 -0.0879,-0.0801 c -0.57697,-0.52218 -1.284624,-0.55328 -1.95703,-0.4707 z m 4.408208,0.002 c -0.55866,0.007 -1.1123,0.10289 -1.61524,0.0918 l -0.0996,-0.002 -0.0625,0.0762 c -0.43688,0.52242 -0.61446,1.16862 -0.74023,1.8125 -0.12577,0.64388 -0.20241,1.29268 -0.4043,1.84375 l -0.01,0.0254 -0.002,0.0254 c -0.0285,0.28504 -0.21707,0.91559 -0.26758,1.46289 -0.0252,0.27365 -0.025,0.53481 0.0918,0.75977 0.11684,0.22495 0.39019,0.36422 0.70703,0.32617 0.29739,1e-5 0.59518,-1e-5 0.89258,0 l -0.0586,-0.008 c 0.73045,0.21731 1.28825,0.0844 1.63281,-0.29492 0.34455,-0.37928 0.48144,-0.94017 0.56445,-1.55859 l -0.006,0.0312 c 0.38625,-1.28745 0.74233,-2.58215 1.07813,-3.88281 l 0.0332,-0.12696 -0.0996,-0.082 c -0.49788,-0.41492 -1.07611,-0.50724 -1.63476,-0.5 z m -24.333989,0.004 c -0.749389,0.0779 -1.494061,0.27156 -2.164062,0.26172 L 77,148.92773 76.9902,149.125 c -0.09772,1.97245 0.0461,3.94008 0.04492,5.88867 v 0.0469 l 0.02148,0.043 c 0.229594,0.46727 0.565843,0.69341 0.923828,0.76171 0.357984,0.0683 0.722405,0.0161 1.117187,0.0156 l -0.01563,-0.002 c 0.424026,0.0335 1.044013,0.0459 1.580078,-0.10547 0.268033,-0.0757 0.520315,-0.19282 0.707032,-0.38867 0.186716,-0.19586 0.292955,-0.47584 0.265625,-0.80079 v -5.33789 l -0.07617,-0.0625 c -0.669078,-0.54416 -1.445924,-0.5935 -2.195313,-0.51562 z m -24.392578,0.006 c -0.552141,0.04 -1.096519,0.16612 -1.621094,0.25195 l -0.167968,0.0273 -0.0039,0.16993 c -0.05201,2.20808 1.020376,4.2072 1.451172,6.23633 l -0.002,-0.0137 c 0.07586,0.52243 0.318981,0.85434 0.658203,0.99219 0.339222,0.13785 0.72464,0.10776 1.142578,0.0703 l 0.03711,-0.004 c 0.591509,0.14395 1.160973,-0.004 1.503906,-0.38086 0.366522,-0.40304 0.457566,-1.04176 0.09375,-1.64649 l 0.02344,0.0586 c -0.42791,-1.78974 -0.833648,-3.59045 -1.333985,-5.3711 l -0.02539,-0.0898 -0.08594,-0.041 c -0.556625,-0.25501 -1.11778,-0.29981 -1.669922,-0.25976 z m 17.441406,0.043 -0.06641,0.0566 c -0.242866,0.21166 -0.373276,0.48009 -0.423828,0.75586 -0.05055,0.27577 -0.02844,0.55908 0.01367,0.83984 0.08423,0.56152 0.242938,1.12547 0.195312,1.55274 l -0.0039,0.0371 0.0098,0.0352 c 0.354274,1.40266 0.141643,2.29895 0.271484,2.96289 0.06492,0.33197 0.274594,0.61701 0.650391,0.74805 0.369407,0.12881 0.897508,0.15271 1.693359,0.11914 0.01377,-5.8e-4 0.01536,0.003 0.0293,0.002 l 0.195312,-0.01 v -0.0156 c 0.525976,0.0373 1.03934,0.0682 1.404297,-0.14648 0.211666,-0.12449 0.372088,-0.33367 0.427735,-0.60157 0.05565,-0.26789 0.02025,-0.58661 -0.103516,-0.97656 l 0.0078,0.0508 c -0.09397,-1.62606 0.07211,-3.3889 -0.189453,-5.00586 L 76.5,148.98438 l -0.136719,-0.0313 c -1.245805,-0.27292 -2.627087,-0.1258 -3.865234,-0.23046 z m 15.626953,0.0371 0.0059,0.002 c -0.402646,-0.0998 -0.732553,-0.0562 -0.966797,0.11719 -0.234244,0.17336 -0.346718,0.4421 -0.40625,0.72461 -0.119064,0.565 -0.05005,1.24804 -0.08398,1.66601 v 0.0137 0.0137 c 0.07158,1.31616 -0.454153,2.8258 0.195312,4.20703 l 0.05469,0.11718 h 0.130859 c 0.470978,-3e-5 0.943079,3e-5 1.414062,0 l -0.02734,-0.002 c 0.45346,0.0571 1.015151,0.0654 1.513672,-0.0859 0.49852,-0.15136 0.950462,-0.49832 1.050781,-1.09375 l 0.002,-0.006 v -0.006 c 0.179196,-1.62656 0.359863,-3.25236 0.539063,-4.87891 l 0.0078,-0.0879 -0.05664,-0.0684 c -0.440464,-0.51696 -1.071095,-0.61017 -1.675781,-0.60938 -0.604686,8e-4 -1.215477,0.0802 -1.697266,-0.0234 z m -29.455078,0.008 0.0098,0.002 c -0.420795,-0.12179 -0.752077,-0.11901 -1.003906,0.0176 -0.25183,0.13659 -0.37748,0.39648 -0.417969,0.66406 -0.08098,0.53516 0.1059,1.17921 0.289063,1.66602 l -0.0059,-0.0176 c 0.420046,1.48662 0.566405,3.18899 1.183594,4.63477 l 0.02344,0.0527 0.04492,0.0332 c 0.531151,0.38588 1.46216,0.4439 2.310547,0.40039 0.424194,-0.0217 0.824322,-0.0774 1.138672,-0.15625 0.157175,-0.0394 0.291414,-0.0823 0.404297,-0.13867 0.112883,-0.0564 0.221585,-0.11848 0.271484,-0.26562 l 0.0098,-0.0312 v -0.0352 c -0.0021,-2.08873 -0.679823,-4.07131 -0.976563,-6.05859 l -0.0078,-0.0508 -0.0293,-0.0391 c -0.402792,-0.55215 -1.022572,-0.66088 -1.609375,-0.66015 -0.586803,7.2e-4 -1.178647,0.0864 -1.634766,-0.0176 z m 4.611328,0.22266 c 0.561347,0.1103 1.159137,0.0666 1.705079,0.0762 0.552979,0.01 1.022618,0.0967 1.376953,0.4082 0.468838,1.63358 0.547011,3.49594 0.880859,5.25977 l 0.002,0.0137 0.0039,0.0117 c 0.09914,0.30889 0.08684,0.50733 0.0293,0.63867 -0.05754,0.13134 -0.165688,0.22097 -0.33789,0.28711 -0.344406,0.13228 -0.914875,0.1185 -1.388672,0.0566 l -0.01367,-0.002 h -0.01367 c -0.525404,-1e-5 -1.050772,0 -1.576172,0 -0.75641,-1.2582 -0.680802,-2.85509 -1.048828,-4.37696 l -0.0059,-0.0312 c -0.04776,-0.51587 -0.24762,-1.09512 -0.271485,-1.54101 -0.01217,-0.22748 0.02082,-0.40467 0.107422,-0.5293 0.08661,-0.12463 0.236503,-0.22568 0.550781,-0.27148 z m 7.185547,0.0117 c 0.438245,0.0513 0.781022,0.22778 1.058594,0.7168 -0.02052,1.55168 0.179817,3.0795 0.326172,4.5957 l 0.0039,0.0234 0.0078,0.0234 c 0.100585,0.28531 0.03008,0.49948 -0.169922,0.71484 -0.200005,0.21536 -0.54528,0.40443 -0.947266,0.52344 -0.784292,0.23219 -1.756358,0.16964 -2.253906,-0.18555 -0.565152,-1.34771 -0.510709,-3.02232 -0.859375,-4.57617 l -0.0039,-0.0215 -0.0098,-0.0195 c -0.252293,-0.55409 -0.208603,-1.02327 0.0098,-1.32422 0.218369,-0.30096 0.629379,-0.47195 1.248047,-0.35938 l 0.03125,0.006 0.03125,-0.004 c 0.544989,-0.0714 1.080927,-0.1655 1.527343,-0.11329 z m 24.585938,0.0176 c 0.417449,0.0307 0.728253,0.1749 0.978515,0.60352 -0.245981,1.43804 -0.494255,2.87641 -0.740234,4.31445 l -0.002,0.0195 v 0.0195 c 0.0079,0.29551 -0.05567,0.49066 -0.154297,0.62891 -0.09862,0.13825 -0.238789,0.22903 -0.425781,0.29101 -0.373984,0.12398 -0.915144,0.10094 -1.398438,0.0508 l 0.03125,0.006 c -0.362876,-0.0952 -0.763897,0.002 -1.103515,0.0234 -0.169809,0.0106 -0.320097,0.003 -0.423828,-0.0293 -0.09214,-0.0285 -0.140558,-0.0764 -0.185547,-0.15625 -0.102202,-1.21616 0.256563,-2.58244 0.326172,-3.92188 v -0.0176 l -0.002,-0.0156 c -0.06129,-0.55653 0.05883,-1.07072 0.318359,-1.39258 0.259528,-0.32186 0.645156,-0.48542 1.251953,-0.34375 l 0.02734,0.006 h 0.02734 c 0.517916,-0.0191 1.040247,-0.11792 1.474609,-0.0859 z m 4.373047,0.0566 c 0.590109,-0.0725 1.088426,-0.003 1.531246,0.34571 -0.32849,1.52652 -0.65782,3.05355 -0.986324,4.58007 l -0.0059,0.0234 0.002,0.0234 c 0.0064,0.27698 -0.06468,0.44703 -0.175781,0.57226 -0.111097,0.12524 -0.27858,0.21092 -0.490234,0.26563 -0.423309,0.10942 -0.997851,0.0754 -1.447266,0.0547 h -0.0098 l -0.205078,-0.01 v 0.01 c -0.386236,9.3e-4 -0.77219,0.003 -1.158203,0.004 -0.215891,-0.41893 -0.243488,-0.8539 -0.15625,-1.34179 0.09372,-0.52412 0.279474,-1.0809 0.310547,-1.65625 l -0.01563,0.0645 c 0.203518,-0.5133 0.176981,-1.13909 0.248047,-1.66406 0.03553,-0.26249 0.09304,-0.49705 0.191406,-0.67188 0.09811,-0.17438 0.228105,-0.29531 0.453125,-0.36914 h 0.002 c 0.648498,0.0154 1.307207,-0.15618 1.91211,-0.23047 z m -15.060547,0.004 c 0.592776,-0.0387 1.168314,0.0178 1.707031,0.19726 -0.0041,1.59616 0.01112,3.19244 -0.0078,4.78125 -0.06513,0.60671 -0.275703,0.91028 -0.59375,1.07422 -0.318048,0.16395 -0.787194,0.18042 -1.355469,0.0801 l 0.002,0.002 c -0.335024,-0.064 -0.698651,-0.002 -1.027344,0.0156 -0.311895,0.0169 -0.548942,-0.0196 -0.691406,-0.13281 -0.165191,-0.37539 -0.194462,-0.83332 -0.171875,-1.33789 0.02348,-0.52452 0.08755,-1.08219 0.02148,-1.61524 l -0.002,0.0664 c 0.115709,-0.54749 -0.0049,-1.15879 -0.03711,-1.70117 -0.0161,-0.2712 -0.01059,-0.52273 0.03906,-0.72852 0.04647,-0.19258 0.135327,-0.33721 0.279297,-0.45898 0.601231,-0.0893 1.224399,-0.20214 1.837891,-0.24219 z m 19.421873,0 c 0.4692,-0.006 0.87562,0.10272 1.25195,0.37109 -0.3213,1.23682 -0.66032,2.46806 -1.02734,3.69141 l -0.004,0.0156 -0.002,0.0176 c -0.0788,0.58723 -0.22345,1.07237 -0.46289,1.33594 -0.23943,0.26357 -0.56897,0.36871 -1.21094,0.17773 l -0.0273,-0.008 h -0.0312 c -0.30586,-1e-5 -0.61211,1e-5 -0.91797,0 h -0.0117 l -0.0117,0.002 c -0.20849,0.025 -0.2441,-0.0134 -0.29297,-0.10742 -0.0489,-0.0941 -0.0709,-0.29399 -0.0488,-0.5332 0.0441,-0.47841 0.22891,-1.07277 0.26758,-1.45899 0.2122,-0.60194 0.2936,-1.25074 0.4121,-1.85742 0.11665,-0.59716 0.28941,-1.13277 0.62305,-1.56054 0.51281,-0.004 1.02424,-0.0798 1.49414,-0.0859 z m -24.29492,0.002 c 0.677234,-0.0704 1.27544,0.004 1.818359,0.41016 v 5.12305 0.008 c 0.01902,0.22612 -0.04084,0.36537 -0.154297,0.48437 -0.113453,0.11901 -0.295742,0.2122 -0.519531,0.27539 -0.447578,0.12638 -1.040486,0.12509 -1.4375,0.0937 l -0.0078,-0.002 h -0.0078 c -0.426309,4.9e-4 -0.7807,0.0438 -1.041015,-0.006 -0.251623,-0.048 -0.427025,-0.16939 -0.609375,-0.52344 -0.0023,-1.8867 -0.124024,-3.76373 -0.04492,-5.62304 0.680378,-0.0237 1.365549,-0.1739 2.003906,-0.24024 z m -24.416016,0.0137 c 0.479686,-0.0361 0.942758,0.0198 1.394532,0.20704 0.481267,1.7282 0.881726,3.48167 1.300781,5.23437 l 0.0078,0.0312 0.01758,0.0273 c 0.287305,0.47756 0.204723,0.87959 -0.04688,1.15625 -0.251598,0.27667 -0.695955,0.41981 -1.193359,0.26172 l -0.267578,-0.084 v 0.0684 c -0.302874,0.0179 -0.596209,0.0329 -0.763672,-0.0352 -0.208571,-0.0848 -0.340738,-0.2322 -0.404297,-0.66992 l -0.002,-0.008 -0.002,-0.006 c -0.435424,-2.05093 -1.402888,-3.96948 -1.412109,-5.97461 0.467312,-0.0815 0.928187,-0.17565 1.371093,-0.20899 z m 17.59375,0.0508 c 1.205013,0.0874 2.454973,-8.8e-4 3.539063,0.20508 0.216966,1.50593 0.08627,3.18823 0.179687,4.80469 l 0.002,0.0273 0.0078,0.0234 c 0.110799,0.3491 0.128275,0.60137 0.09375,0.76758 -0.03453,0.16621 -0.10635,0.25478 -0.234375,0.33008 -0.256051,0.15059 -0.77927,0.1732 -1.380859,0.11719 l -0.0293,-0.002 -0.195313,-0.0195 v 0.008 c -0.636091,0.0152 -1.135738,-0.001 -1.373047,-0.084 -0.271062,-0.0945 -0.332989,-0.19662 -0.380859,-0.44141 -0.09574,-0.48956 0.09631,-1.50498 -0.277344,-2.98437 l 0.0039,0.0742 c 0.06197,-0.55592 -0.119302,-1.13845 -0.197265,-1.65821 -0.03898,-0.25988 -0.053,-0.50121 -0.01563,-0.70507 0.0333,-0.18169 0.121672,-0.32586 0.257812,-0.4629 z m -14.796875,0.002 c 0.116198,-0.063 0.330415,-0.0875 0.69336,0.0176 h 0.0059 l 0.0059,0.002 c 0.570116,0.13 1.186202,0.03 1.728515,0.0293 0.53224,-6.6e-4 0.950015,0.0852 1.251953,0.48047 0.306655,1.98802 0.935017,3.90753 0.949219,5.85937 -0.003,-4.6e-4 0.003,-0.004 -0.04492,0.0195 -0.07032,0.0351 -0.18375,0.0746 -0.322265,0.10938 -0.277032,0.0695 -0.656709,0.12392 -1.058594,0.14453 -0.784589,0.0402 -1.64216,-0.0808 -1.998047,-0.31446 -0.556416,-1.3464 -0.71862,-2.99351 -1.146485,-4.50781 l -0.002,-0.008 -0.0039,-0.01 c -0.171119,-0.4548 -0.325219,-1.0761 -0.267578,-1.45703 0.02882,-0.19046 0.09279,-0.30221 0.208984,-0.36523 z m 30.158203,0.0117 0.0039,0.002 h 0.0039 c 0.58684,0.12619 1.218165,0.0339 1.783203,0.0332 0.538386,-7e-4 0.970388,0.0996 1.298828,0.44336 -0.173814,1.57766 -0.345721,3.15475 -0.519531,4.73242 -0.07272,0.43163 -0.356189,0.64522 -0.765625,0.76954 -0.409436,0.12431 -0.927792,0.12441 -1.341797,0.0723 l -0.01367,-0.002 H 88.3828 c -0.414382,2e-5 -0.829753,-3e-5 -1.24414,0 -0.484017,-1.17016 -0.06508,-2.54666 -0.140625,-3.93555 v 0.0273 c 0.03978,-0.48997 -0.02101,-1.15212 0.07617,-1.61329 0.04859,-0.23058 0.131027,-0.39386 0.248047,-0.48047 0.117019,-0.0866 0.292947,-0.13063 0.623046,-0.0488 z m 13.748048,7.04297 c -0.55987,0.002 -1.12082,0.1145 -1.48828,0.3789 l -0.0332,0.0234 -0.0215,0.0332 c -0.831512,1.32817 -0.784932,3.00646 -1.222656,4.37696 l 0.0039,-0.0117 c -0.214216,0.56248 -0.333578,1.10912 -0.148438,1.54492 0.09257,0.2179 0.278732,0.39557 0.53125,0.47656 0.252519,0.081 0.561958,0.0797 0.947264,0 l 0.0352,-0.008 c 0.31114,0.0693 0.60604,0.0881 0.83593,-0.0195 0.2675,-0.12519 0.46007,-0.34728 0.60352,-0.59961 0.28689,-0.50467 0.40679,-1.15229 0.53515,-1.63086 l 0.002,-0.006 v -0.006 c 0.25989,-1.26922 0.91244,-2.6359 0.94922,-3.97266 l 0.002,-0.0918 -0.0684,-0.0645 c -0.34517,-0.3222 -0.90302,-0.42553 -1.46289,-0.42382 z m -3.716798,0.0449 c -0.562066,2.8e-4 -1.121125,0.0794 -1.605468,0.0215 l -0.05273,-0.006 -0.04883,0.0215 c -0.599604,0.24664 -0.895425,0.71838 -1.037109,1.21679 -0.141685,0.49842 -0.158932,1.03306 -0.246094,1.5 l -0.002,0.01 v 0.008 c -0.116493,1.17239 -0.570073,2.45345 -0.482422,3.6836 l 0.002,0.0215 0.0059,0.0195 c 0.06034,0.21354 0.18204,0.37598 0.33789,0.46484 0.155851,0.0889 0.32604,0.10768 0.486328,0.10743 0.320577,-5.1e-4 0.638202,-0.0648 0.835938,-0.0254 0.525456,0.10905 1.120258,0.0554 1.609375,-0.18946 0.489117,-0.24489 0.871537,-0.71354 0.878906,-1.35937 l -0.0059,0.041 c 0.336625,-1.60434 0.673141,-3.20817 1.009765,-4.8125 l 0.02539,-0.11523 -0.08594,-0.0801 c -0.477193,-0.43795 -1.062933,-0.52762 -1.625,-0.52734 z m -8.951171,0.24804 c -0.544084,0.0133 -1.101154,0.12043 -1.50586,0.041 l -0.03906,-0.008 -0.03711,0.008 c -0.349894,0.0635 -0.618726,0.2021 -0.80664,0.39844 -0.187915,0.19634 -0.290602,0.44101 -0.347657,0.69336 -0.114108,0.50469 -0.06538,1.0632 -0.105468,1.53515 v 0.008 0.006 c -0.01795,1.30184 -0.320534,2.71098 -0.158203,4.04687 l 0.002,0.0156 0.0039,0.0156 c 0.06094,0.21709 0.182267,0.38205 0.337891,0.47461 0.155623,0.0926 0.326893,0.11404 0.488281,0.11523 0.322775,0.002 0.641381,-0.0645 0.847656,-0.0254 h 0.002 c 0.470823,0.0879 1.041861,0.0595 1.523438,-0.14453 0.481577,-0.204 0.880697,-0.62814 0.86914,-1.24609 0.0876,-1.67038 0.52474,-3.47913 0.392579,-5.15821 l -0.0039,-0.043 -0.01953,-0.0371 c -0.15682,-0.29283 -0.387452,-0.48363 -0.642578,-0.58399 -0.255126,-0.10036 -0.528739,-0.11799 -0.800781,-0.11133 z m 4.445312,0.004 c -0.558756,0.0356 -1.128777,0.12946 -1.535156,0.0449 l -0.02148,-0.004 h -0.02148 c -0.369441,0.002 -0.658446,0.12755 -0.845703,0.33593 -0.187257,0.20839 -0.272216,0.47529 -0.318359,0.75 -0.09229,0.54943 -0.04721,1.17018 -0.146485,1.54883 l -0.0059,0.0195 v 0.0215 c -0.06344,1.19732 -0.441946,2.50612 -0.310547,3.75195 l 0.002,0.0176 0.0039,0.0156 c 0.0608,0.21481 0.18414,0.37853 0.339844,0.46875 0.155705,0.0902 0.323839,0.10918 0.484375,0.10938 0.321072,4.1e-4 0.640042,-0.065 0.841797,-0.0254 h 0.002 c 0.477143,0.0903 1.04021,0.0605 1.515625,-0.14453 0.475415,-0.20503 0.868366,-0.62142 0.890625,-1.23047 0.190968,-1.65812 0.709204,-3.40937 0.701172,-5.09571 l -0.002,-0.0742 L 95,156.94727 c -0.188462,-0.22868 -0.442822,-0.355 -0.707031,-0.41407 -0.26421,-0.0591 -0.542888,-0.0569 -0.822266,-0.0391 z m 8.222657,0.11524 c 0.45764,-0.001 0.86153,0.12536 1.08594,0.2871 -0.0697,1.17182 -0.63964,2.46563 -0.90625,3.75782 -0.13462,0.50185 -0.2601,1.12345 -0.49414,1.53515 -0.11703,0.20585 -0.25421,0.35214 -0.41993,0.42969 -0.16571,0.0776 -0.37244,0.0989 -0.67578,0.004 l -0.26758,-0.084 v 0.0801 c -0.232088,0.0288 -0.454402,0.0482 -0.574214,0.01 -0.15404,-0.0494 -0.227779,-0.12483 -0.279297,-0.2461 -0.103034,-0.24253 -0.04521,-0.71955 0.152344,-1.23828 l 0.002,-0.006 0.002,-0.004 c 0.462419,-1.44782 0.448761,-3.05262 1.164057,-4.23438 0.24681,-0.16386 0.72692,-0.28954 1.21094,-0.29101 z m -3.716798,0.0449 c 0.482553,-2.4e-4 0.889252,0.10403 1.248047,0.38867 -0.325142,1.54961 -0.649466,3.10077 -0.974609,4.65039 l -0.0039,0.0195 v 0.0195 c -0.0056,0.49412 -0.262642,0.8 -0.650391,0.99414 -0.387749,0.19414 -0.908078,0.24472 -1.34375,0.1543 -0.333629,-0.0665 -0.668602,0.0191 -0.917969,0.0195 -0.124683,2e-4 -0.21957,-0.0195 -0.28125,-0.0547 -0.05713,-0.0326 -0.09991,-0.0889 -0.136718,-0.20312 -0.07069,-1.09443 0.34953,-2.34131 0.474609,-3.57031 l 0.002,-0.0176 c 0.09222,-0.50357 0.115697,-1.02291 0.236328,-1.44727 0.120582,-0.42418 0.319622,-0.73931 0.78711,-0.9375 0.530551,0.0478 1.069638,-0.0154 1.560546,-0.0156 z m -18.05664,0.10351 c -0.624065,0.007 -1.262,0.12529 -1.765625,0.0449 l -0.04492,-0.008 -0.04492,0.0137 c -0.355549,0.10423 -0.602487,0.30233 -0.736328,0.55079 -0.133841,0.24845 -0.159354,0.52804 -0.148437,0.80664 0.02183,0.55718 0.180274,1.146 0.132812,1.5625 l -0.0039,0.0273 0.0039,0.0273 c 0.202142,1.37442 -0.09609,2.97421 0.476562,4.36914 l 0.0293,0.0742 0.07422,0.0332 c 0.233698,0.1085 0.489529,0.10527 0.734375,0.0957 0.244847,-0.01 0.482905,-0.03 0.658203,-0.01 l -0.0059,-0.006 c 0.520485,0.124 1.10814,0.0593 1.578125,-0.19726 0.475783,-0.25973 0.831334,-0.74657 0.777344,-1.37696 v -5.19335 l -0.0332,-0.0508 c -0.406165,-0.6325 -1.057575,-0.77034 -1.68164,-0.76367 z m 9.115234,0.14258 c 0.244771,-0.006 0.464541,0.0147 0.640625,0.084 0.164821,0.0648 0.291439,0.17987 0.402344,0.36914 0.111999,1.57517 -0.302774,3.35202 -0.390625,5.0625 v 0.008 0.008 c 0.0084,0.44965 -0.234865,0.69742 -0.617188,0.85938 -0.382322,0.16195 -0.89711,0.19234 -1.289062,0.11914 -0.336592,-0.0631 -0.673652,0.0194 -0.921875,0.0176 -0.124375,-9.2e-4 -0.216788,-0.0195 -0.279297,-0.0566 -0.05899,-0.0351 -0.1078,-0.0941 -0.146484,-0.21875 -0.146427,-1.23459 0.143436,-2.62057 0.162109,-3.97461 0.04211,-0.51694 0.0039,-1.05885 0.0957,-1.46484 0.04639,-0.20517 0.119782,-0.37015 0.242188,-0.49805 0.122406,-0.12789 0.299171,-0.22758 0.583984,-0.27929 h -0.07813 c 0.530833,0.10415 1.106161,-0.0232 1.595703,-0.0352 z m 4.462891,0.004 c 0.262325,-0.0167 0.504534,-0.0155 0.705078,0.0293 0.175113,0.0391 0.303062,0.12426 0.417969,0.24024 -0.01113,1.57957 -0.493877,3.28744 -0.685547,4.96875 l -0.002,0.008 v 0.008 c -0.01642,0.4493 -0.265897,0.7067 -0.642578,0.86914 -0.376682,0.16245 -0.876079,0.19473 -1.275391,0.11914 -0.334948,-0.0651 -0.669711,0.0179 -0.917969,0.0176 -0.124393,-1.6e-4 -0.219375,-0.0188 -0.28125,-0.0547 -0.05864,-0.034 -0.10259,-0.0904 -0.140625,-0.2129 -0.112955,-1.12573 0.243941,-2.40703 0.310547,-3.66406 l -0.0078,0.041 c 0.130668,-0.49839 0.07724,-1.11362 0.15625,-1.58399 0.0395,-0.23518 0.108483,-0.42438 0.216796,-0.54492 0.108314,-0.12053 0.257192,-0.19769 0.542969,-0.19922 l -0.04297,-0.004 c 0.530327,0.11032 1.121835,-0.004 1.646485,-0.0371 z m -11.613281,0.0195 v 0.20508 c -0.0047,2.05577 -0.196107,4.15975 -0.08789,6.22851 v 0.002 l 0.002,0.002 c 0.0181,0.2557 0.09759,0.45695 0.244141,0.58398 0.146548,0.12703 0.328786,0.15851 0.496093,0.16211 0.334615,0.007 0.675786,-0.0746 0.908204,-0.0293 h 0.002 l 0.002,0.002 c 0.464057,0.0835 1.047957,0.0582 1.539062,-0.14258 0.245553,-0.10039 0.470155,-0.24838 0.628907,-0.46094 0.158751,-0.21255 0.243779,-0.48931 0.216797,-0.80468 0.05469,-1.84529 0.109377,-3.68987 0.164062,-5.53516 l 0.0059,-0.21289 z m -10.921875,0.0898 c -0.553065,0.0217 -1.120702,0.13289 -1.521485,0.0469 h -0.0039 -0.0039 c -0.3815,-0.0665 -0.695685,0.0147 -0.896485,0.21679 -0.2008,0.20207 -0.277449,0.48345 -0.302734,0.77344 -0.05057,0.57998 0.100018,1.25156 0.171875,1.66016 v 0.002 0.004 c 0.299703,1.49895 0.276833,3.2382 0.802734,4.69531 l 0.01367,0.0352 0.02539,0.0293 c 0.294621,0.33776 0.675635,0.41849 1.017578,0.40039 0.341943,-0.0181 0.667463,-0.107 0.960937,-0.11328 l -0.03516,-0.002 c 0.646618,0.097 1.238211,-0.0437 1.609375,-0.41602 0.371164,-0.37227 0.474599,-0.96889 0.201172,-1.63672 l 0.01367,0.0508 c -0.21853,-1.63283 -0.187616,-3.393 -0.570313,-5.02149 l -0.0059,-0.0254 -0.01172,-0.0254 c -0.156592,-0.29315 -0.39312,-0.47873 -0.652343,-0.57422 -0.259223,-0.0955 -0.535968,-0.11047 -0.8125,-0.0996 z m 2.113281,0.043 -0.05469,0.12305 c -0.33994,0.77356 -0.30979,1.58473 -0.208984,2.375 0.100806,0.79026 0.272077,1.568 0.261719,2.29687 v 0.0312 l 0.0078,0.0293 c 0.0978,0.3447 0.05191,1.03681 0.132813,1.63086 0.04045,0.29702 0.113458,0.58273 0.298828,0.80078 0.184991,0.2176 0.489414,0.33072 0.859375,0.2832 7.58e-4,-9e-5 0.0012,10e-5 0.002,0 0.303691,-0.0252 0.608332,-0.0509 0.912109,-0.0762 l -0.0059,-0.006 c 0.518397,0.0603 1.080798,0.006 1.505859,-0.25781 0.435514,-0.2703 0.691205,-0.7993 0.501953,-1.47266 l 0.0059,0.0391 c -0.148507,-1.84548 0.01965,-3.7655 -0.439453,-5.64063 l -0.03711,-0.15625 z m 6.847656,0.11133 c 0.556441,-0.006 0.984839,0.0981 1.300781,0.5625 v 5.0625 0.008 c 0.04011,0.46834 -0.192472,0.7774 -0.564453,0.98047 -0.37088,0.20246 -0.879832,0.26258 -1.296875,0.16016 h -0.0039 l -0.02734,-0.004 c -0.242036,-0.028 -0.491903,-0.001 -0.720703,0.008 -0.191882,0.007 -0.338432,-0.0145 -0.457031,-0.0488 -0.454973,-1.2107 -0.236085,-2.70086 -0.433594,-4.12109 0.06226,-0.54635 -0.109992,-1.14423 -0.128906,-1.62695 -0.0095,-0.24136 0.01638,-0.44482 0.09766,-0.59571 0.08033,-0.14911 0.213828,-0.26455 0.484375,-0.3457 0.587016,0.0738 1.206261,-0.0333 1.75,-0.0391 z m -20.330078,0.1543 -0.05859,0.10742 c -0.385746,0.71322 -0.30396,1.46033 -0.125,2.16601 0.17896,0.70569 0.45157,1.39264 0.509766,2.0293 l 0.002,0.0312 0.01367,0.0293 c 0.485845,1.13551 0.430915,2.03625 0.628906,2.70898 0.099,0.33637 0.295297,0.63192 0.652344,0.77735 0.349865,0.1425 0.830605,0.15215 1.523437,0.0684 0.620734,0.0573 1.217015,-0.0532 1.597657,-0.40039 0.191962,-0.17507 0.321844,-0.41714 0.345703,-0.69726 0.02386,-0.28013 -0.05363,-0.59072 -0.234375,-0.92969 l 0.01953,0.0488 c -0.448188,-1.89549 -0.468148,-3.96866 -1.363281,-5.82422 l -0.05664,-0.11523 z m 4.167969,0 v 0.20312 c -0.01604,2.41877 0.773494,4.72558 1.105469,7.03906 l 0.01367,0.0937 0.07813,0.0508 c 0.760116,0.49233 1.844547,0.50688 2.683594,0.20118 0.419524,-0.15286 0.784277,-0.38944 1.003906,-0.72266 0.21963,-0.33322 0.270789,-0.76928 0.07617,-1.21484 l 0.01367,0.0488 c -0.291013,-1.83187 -0.442658,-3.70315 -0.875,-5.54101 l -0.03711,-0.1582 z m 18.533203,0.0137 h 3.289062 c -0.05281,1.78216 -0.107338,3.56551 -0.160156,5.34765 v 0.0117 l 0.002,0.0117 c 0.01947,0.22754 -0.03526,0.38955 -0.136719,0.52539 -0.101453,0.13584 -0.259579,0.2443 -0.455078,0.32422 -0.390997,0.15985 -0.923947,0.18679 -1.310546,0.11719 l 0.0039,0.002 c -0.370102,-0.0722 -0.739498,0.0267 -0.980469,0.0215 -0.120485,-0.003 -0.192838,-0.0248 -0.236328,-0.0625 -0.04349,-0.0377 -0.08806,-0.11196 -0.101563,-0.30274 -0.102191,-1.96054 0.07008,-3.98486 0.08594,-5.99609 z m -25.207031,0.0312 c -0.562921,0.0509 -1.094175,0.21537 -1.451172,0.49609 l -0.08789,0.0703 0.01172,0.11133 c 0.224197,2.33917 1.152094,4.55098 1.642578,6.78711 v 0.006 l 0.002,0.004 c 0.05651,0.21065 0.165007,0.37243 0.310547,0.46679 0.14554,0.0944 0.30694,0.11791 0.457031,0.11914 0.300183,0.002 0.591166,-0.0634 0.796875,-0.0254 l -0.02344,-0.006 c 0.380684,0.11899 0.704729,0.13284 0.972656,0.0449 0.267927,-0.0879 0.4672,-0.28467 0.574219,-0.52149 0.214037,-0.47363 0.12033,-1.09429 -0.169922,-1.66015 l 0.01758,0.0469 c -0.436227,-1.84691 -0.872369,-3.69411 -1.308594,-5.54102 l -0.02148,-0.0918 -0.08398,-0.043 c -0.479202,-0.24768 -1.075751,-0.31462 -1.638671,-0.26367 z m 13.890625,0.0586 c 0.250784,-0.01 0.477256,0.006 0.65625,0.0723 0.173407,0.0639 0.304658,0.17382 0.416015,0.37304 0.357282,1.54914 0.336115,3.28103 0.558594,4.94336 l 0.002,0.0254 0.01172,0.0254 c 0.230405,0.56276 0.136823,0.94056 -0.113281,1.19141 -0.250105,0.25085 -0.703824,0.38168 -1.25586,0.29883 l -0.01758,-0.004 h -0.01758 c -0.363033,0.008 -0.696973,0.10054 -0.974609,0.11524 -0.266643,0.0141 -0.457665,-0.0348 -0.658203,-0.25 -0.470228,-1.34356 -0.468225,-3.03555 -0.775391,-4.57618 v -0.006 c -0.07482,-0.42467 -0.207506,-1.07298 -0.166016,-1.54883 0.02082,-0.23882 0.08609,-0.41946 0.183594,-0.51758 0.09751,-0.0981 0.237804,-0.15531 0.535156,-0.10352 l -0.0078,-0.002 c 0.53531,0.11488 1.121478,-0.0174 1.623047,-0.0371 z m 2.410156,0.043 h 3.080078 c 0.393108,1.7435 0.2681,3.57984 0.416016,5.41797 l 0.002,0.0195 0.0059,0.0195 c 0.15296,0.54423 -0.0084,0.81689 -0.322266,1.01172 -0.296559,0.18406 -0.768017,0.23553 -1.203124,0.19336 l -0.113282,0.01 c -0.306919,0.0255 -0.614868,0.0507 -0.921875,0.0762 l -0.0039,0.002 h -0.0059 c -0.275943,0.0359 -0.396644,-0.0256 -0.496094,-0.14258 -0.09945,-0.11698 -0.169478,-0.32649 -0.205078,-0.58789 -0.0712,-0.5228 -0.0053,-1.19864 -0.144532,-1.68945 l 0.0078,0.0586 c 0.01131,-0.79603 -0.16812,-1.59109 -0.265625,-2.35547 -0.09194,-0.72077 -0.07442,-1.39683 0.169922,-2.0332 z m -13.496094,0.26367 h 2.875 c 0.793419,1.72346 0.847803,3.70925 1.300781,5.625 l 0.0059,0.0254 0.01172,0.0234 c 0.15414,0.28908 0.202804,0.52148 0.1875,0.70117 -0.0153,0.17969 -0.08735,0.31324 -0.212891,0.42774 -0.251085,0.22899 -0.747321,0.35193 -1.294922,0.29882 l -0.02344,-0.002 -0.02148,0.004 c -0.685858,0.0859 -1.107481,0.0529 -1.347656,-0.0449 -0.240175,-0.0978 -0.334052,-0.24182 -0.414063,-0.51368 -0.160021,-0.54371 -0.125723,-1.53483 -0.646484,-2.75195 -0.07609,-0.69996 -0.339228,-1.38188 -0.503906,-2.03125 -0.159849,-0.63032 -0.175364,-1.20521 0.08398,-1.76172 z m 4.304688,0 h 3.289062 c 0.396105,1.74992 0.559869,3.55424 0.845703,5.35352 l 0.0039,0.0273 0.0098,0.0234 c 0.148759,0.34057 0.108776,0.59399 -0.04297,0.82422 -0.151745,0.23022 -0.439601,0.4309 -0.800781,0.5625 -0.700261,0.25513 -1.64025,0.21852 -2.25,-0.14063 -0.337753,-2.25131 -1.025723,-4.43568 -1.054687,-6.65039 z m -7.072266,0.0449 c 0.475558,-0.043 0.962347,0.0346 1.335938,0.20704 0.426533,1.80587 0.852761,3.61208 1.279296,5.41796 l 0.0059,0.0234 0.01172,0.0215 c 0.248025,0.48353 0.294432,1.00755 0.160157,1.30468 -0.06714,0.14857 -0.165205,0.24406 -0.326172,0.29688 -0.160967,0.0528 -0.397648,0.0567 -0.722656,-0.0449 l -0.01172,-0.004 -0.01172,-0.002 c -0.33162,-0.0613 -0.649214,0.0194 -0.869141,0.0176 -0.109963,-9e-4 -0.184916,-0.0174 -0.236328,-0.0508 -0.04974,-0.0323 -0.0973,-0.0887 -0.134765,-0.2207 v -0.002 c -0.490707,-2.23609 -1.361147,-4.38778 -1.601563,-6.5918 0.26789,-0.17671 0.66384,-0.33167 1.121094,-0.37305 z m 43.80078,6.41797 -0.18945,0.006 c -0.50309,0.0143 -1.127338,-0.0846 -1.681642,0.0117 -0.277153,0.0482 -0.544681,0.1525 -0.75,0.36133 -0.20532,0.20883 -0.333946,0.5118 -0.367188,0.91211 -0.237969,1.42815 -0.748533,2.90571 -0.826172,4.38476 v 0.0254 l 0.0039,0.0274 c 0.04288,0.21077 0.0899,0.37044 0.16211,0.50195 0.07221,0.13151 0.187317,0.23717 0.322265,0.27734 0.269898,0.0803 0.51316,-0.0256 0.865235,-0.11523 l -0.06445,0.006 c 0.40478,0.027 0.729842,-0.0789 0.964843,-0.27734 0.235002,-0.19847 0.376499,-0.4708 0.476563,-0.75977 0.200136,-0.57794 0.260586,-1.25086 0.449226,-1.67773 l 0.008,-0.0137 0.004,-0.0156 c 0.29021,-1.09725 0.78529,-2.21814 0.64454,-3.4668 z m -3.166014,0.24805 -0.212891,0.0234 c -0.897042,0.0977 -2.062532,-0.2215 -3.007813,0.15039 l -0.05078,0.0195 -0.03516,0.043 c -0.48006,0.59803 -0.642209,1.3201 -0.738281,2.04101 -0.09607,0.72092 -0.12981,1.44797 -0.314453,2.07813 l -0.002,0.008 -0.002,0.008 c -0.113151,0.51806 -0.276104,1.08985 -0.167968,1.56836 0.05407,0.23926 0.207629,0.46595 0.460937,0.57031 0.230595,0.095 0.540738,0.0774 0.912109,0.004 1.325684,0.29678 2.506324,-0.86882 2.525391,-2.1543 0.225381,-1.33762 0.741438,-2.68906 0.646485,-4.14453 z m -5.613282,0.15039 c -0.560309,0.072 -1.111223,0.22531 -1.578125,0.20117 l -0.08008,-0.004 -0.06055,0.0488 c -0.530647,0.4312 -0.65383,1.06524 -0.6875,1.67969 -0.03367,0.61445 0.0066,1.23894 -0.125,1.72852 l -0.0098,0.041 0.0059,0.0449 c 0.06141,0.38369 -0.12243,0.98139 -0.205078,1.55274 -0.04132,0.28567 -0.05635,0.57239 0.03125,0.83984 0.0876,0.26745 0.296916,0.50164 0.623047,0.63282 l 0.04492,0.0195 0.05078,-0.006 c 0.353429,-0.0337 0.70711,-0.0659 1.060547,-0.0996 l -0.06055,-0.004 c 0.623367,0.12521 1.160857,-0.087 1.507812,-0.47461 0.346956,-0.38757 0.5178,-0.93368 0.494141,-1.49804 l -0.0039,0.043 c 0.236782,-1.3891 0.474155,-2.77886 0.710937,-4.16796 l 0.01953,-0.11133 -0.08594,-0.0762 c -0.49206,-0.43928 -1.092034,-0.46261 -1.652344,-0.39063 z m 8.357426,0.0195 c 0.0595,1.04563 -0.31507,2.055 -0.599613,3.13086 l 0.01172,-0.0312 c -0.234944,0.53166 -0.288711,1.20598 -0.462891,1.70899 -0.08709,0.2515 -0.19916,0.45136 -0.351563,0.58007 -0.152402,0.12871 -0.349244,0.20332 -0.673828,0.18164 l -0.0332,-0.002 -0.03125,0.008 c -0.362574,0.0924 -0.587914,0.13658 -0.646484,0.11914 -0.02929,-0.009 -0.04309,-0.0147 -0.08008,-0.082 -0.03437,-0.0626 -0.07274,-0.18792 -0.109375,-0.35742 0.07781,-1.39603 0.574904,-2.85943 0.818359,-4.33203 v -0.008 l 0.002,-0.008 c 0.02768,-0.33331 0.12235,-0.53032 0.25,-0.66015 0.127651,-0.12983 0.302426,-0.2031 0.527344,-0.24219 0.38217,-0.0664 0.893631,-0.0135 1.378911,-0.006 z m -11.091801,0.21875 -0.208984,0.0312 c -0.944709,0.1432 -2.101643,-0.0548 -3.083984,0.32227 l -0.09766,0.0371 -0.02734,0.0996 c -0.40721,1.47694 -0.263081,3.1569 -0.453125,4.64257 v 0.002 c -0.07574,0.67227 -0.05133,1.21226 0.261718,1.55664 0.156526,0.17219 0.38549,0.27001 0.648438,0.28711 0.256307,0.0167 0.554648,-0.0396 0.904297,-0.15235 0.693005,0.0952 1.234373,-0.0964 1.548828,-0.5039 0.326986,-0.42373 0.426085,-1.01823 0.390625,-1.65625 0.291233,-1.47821 0.335002,-2.9651 0.142578,-4.45703 z m 7.919922,0.0547 c 0.02998,1.28135 -0.392985,2.54569 -0.613281,3.8789 l -0.0039,0.0156 v 0.0156 c -0.01538,1.03687 -0.978363,1.99338 -2.025391,1.75781 l -0.04492,-0.01 -0.04492,0.0117 c -0.381408,0.0875 -0.623846,0.0692 -0.753906,0.0156 -0.13006,-0.0536 -0.180692,-0.12818 -0.214844,-0.2793 -0.0683,-0.30225 0.05286,-0.86554 0.167969,-1.39258 l -0.0039,0.0156 c 0.204275,-0.69716 0.235362,-1.44455 0.328125,-2.14063 0.08971,-0.67316 0.251904,-1.28142 0.628906,-1.7793 0.680264,-0.24022 1.660641,-0.0664 2.580078,-0.10937 z m -5.134765,0.11523 c 0.479515,-0.0616 0.875299,-0.003 1.232422,0.26758 -0.227337,1.3337 -0.452352,2.66631 -0.679688,4 l -0.0039,0.0215 v 0.0215 c 0.01968,0.46944 -0.127277,0.91699 -0.388672,1.20898 -0.261396,0.292 -0.623431,0.44566 -1.121094,0.34571 l -0.0293,-0.006 -0.0293,0.002 c -0.328666,0.0314 -0.657655,0.0624 -0.986328,0.0937 -0.207438,-0.092 -0.31177,-0.20212 -0.363281,-0.35937 -0.05457,-0.16661 -0.05101,-0.39426 -0.01367,-0.65235 0.07467,-0.51617 0.291371,-1.12639 0.203125,-1.67773 l -0.0039,0.0859 c 0.158512,-0.58965 0.105125,-1.23595 0.136719,-1.8125 0.03092,-0.56428 0.142969,-1.02447 0.52539,-1.35157 0.522118,5.1e-4 1.045033,-0.12629 1.521485,-0.1875 z m -6.720704,0.0957 -0.236328,0.0312 c -1.055107,0.13286 -2.256747,-0.10027 -3.365234,0.39648 l -0.123047,0.0547 v 6.4414 l 0.207031,-0.002 c 0.419212,-0.001 0.837487,-0.003 1.25586,-0.004 h 0.205078 v -0.0234 c 0.433752,0.0426 0.91431,0.0597 1.316406,-0.12305 0.237429,-0.10793 0.447283,-0.27658 0.566406,-0.51953 0.119124,-0.24295 0.136577,-0.54682 0.03711,-0.89063 l 0.0078,0.0625 c 0.04099,-1.72808 0.08206,-3.4555 0.123047,-5.18359 z m -5.578124,0.16406 c -0.608808,0.0609 -1.221528,0.25723 -1.736329,0.26367 l -0.0918,0.002 -0.06055,0.0684 c -0.386999,0.43663 -0.396485,1.00476 -0.347657,1.54102 0.04883,0.53625 0.150203,1.06933 0.08203,1.48437 l -0.0059,0.0352 0.0059,0.0352 c 0.104255,0.57509 0.0079,1.27107 0.01367,1.95703 0.0058,0.68596 0.132407,1.3913 0.734376,1.90234 l 0.07227,0.0606 0.0918,-0.0137 c 0.357006,-0.0555 0.715222,-0.11056 1.072266,-0.16602 h -0.05469 c 1.121588,0.12671 2.170102,-0.83515 1.957031,-1.98633 l 0.0039,0.0371 v -4.49023 l -0.03711,-0.0527 c -0.442939,-0.62752 -1.090411,-0.73861 -1.699218,-0.67773 z m 9.126953,0.0332 c 0.160441,1.39906 0.141212,2.79082 -0.136719,4.17383 l -0.0059,0.0254 0.002,0.0254 c 0.03249,0.57967 -0.07139,1.07796 -0.306641,1.38281 -0.235254,0.30486 -0.593657,0.46169 -1.228516,0.35352 l -0.05078,-0.008 -0.04883,0.0156 c -0.33071,0.10876 -0.587543,0.14868 -0.771484,0.13672 -0.183941,-0.012 -0.290191,-0.0653 -0.371094,-0.1543 -0.161303,-0.17744 -0.228204,-0.60085 -0.158203,-1.22851 v -0.002 c 1.1e-4,-9.8e-4 -1.11e-4,-9.6e-4 0,-0.002 0.191834,-1.50412 0.08884,-3.10556 0.429687,-4.45508 0.749925,-0.24842 1.717707,-0.16704 2.646485,-0.26367 z m -13.367188,0.16992 c -0.553702,0.003 -1.114813,0.12114 -1.53125,0.40235 -0.300791,0.1491 -0.497384,0.38052 -0.578125,0.64062 -0.08243,0.26553 -0.06673,0.54562 -0.02539,0.82422 0.08269,0.55721 0.264996,1.13345 0.21289,1.52149 l -0.0039,0.0351 0.0059,0.0352 c 0.248544,1.16659 -0.03863,2.60783 0.666016,3.78906 l 0.06055,0.10156 h 1.109375 l -0.01172,-0.0117 c 0.534269,0.10218 1.142212,-0.0119 1.597656,-0.32421 0.232163,-0.15921 0.427007,-0.37102 0.53125,-0.63477 0.104244,-0.26375 0.111413,-0.57597 -0.0059,-0.89844 l 0.0098,0.0469 c -0.191644,-1.63651 -0.01856,-3.42822 -0.447265,-5.07422 l -0.02148,-0.082 -0.07422,-0.043 c -0.38604,-0.22458 -0.934146,-0.33151 -1.494141,-0.32813 z m 9.396485,0.0996 c -0.03912,1.64931 -0.07807,3.29798 -0.117188,4.94727 l -0.002,0.0312 0.0098,0.0312 c 0.07889,0.27266 0.05628,0.45702 -0.01172,0.5957 -0.068,0.13868 -0.190823,0.24405 -0.367188,0.32422 -0.35273,0.16035 -0.899792,0.1829 -1.318359,0.11328 l -0.238281,-0.0391 v 0.0371 c -0.281759,8.5e-4 -0.564156,0.003 -0.845704,0.004 v -5.72266 c 0.864623,-0.34081 1.872455,-0.2351 2.890626,-0.32227 z m -5.115235,0.10547 c 0.526604,-0.0526 0.937882,0.0194 1.285156,0.47852 v 4.35351 l 0.002,0.0176 c 0.1614,0.87201 -0.641837,1.60152 -1.505859,1.50391 l -0.02734,-0.004 -0.02734,0.006 c -0.310848,0.0483 -0.622718,0.0962 -0.933594,0.14453 -0.432232,-0.40391 -0.557309,-0.91151 -0.5625,-1.52539 -0.0052,-0.61915 0.083,-1.3044 -0.01953,-1.95508 0.08653,-0.52682 -0.03217,-1.08511 -0.07813,-1.58984 -0.04414,-0.48473 -0.0049,-0.88146 0.236328,-1.18359 0.561102,-0.034 1.130825,-0.1961 1.630859,-0.2461 z m -8.609375,0.0977 c -0.553,0.005 -1.110113,0.0757 -1.640625,0.36719 l -0.101562,0.0547 -0.0059,0.11328 c -0.119043,2.18386 0.389393,4.29005 0.710938,6.38477 l 0.0098,0.0723 0.05469,0.0488 c 0.280153,0.2533 0.5745,0.3945 0.882812,0.4375 0.308313,0.043 0.620089,-0.007 0.958985,-0.0996 l -0.07227,0.006 c 0.645746,0.0609 1.204864,-0.1847 1.529297,-0.61328 0.324433,-0.42858 0.404955,-1.03399 0.148438,-1.63672 l 0.01367,0.0547 c -0.214373,-1.64831 -0.23558,-3.35342 -0.666015,-5.01562 l -0.04297,-0.16407 -0.169922,0.0117 c -0.507915,0.0334 -1.056375,-0.0268 -1.609375,-0.0215 z m 4.332031,0.10937 c 0.468976,-0.003 0.907983,0.10788 1.197266,0.25391 0.370533,1.52337 0.233313,3.24798 0.427734,4.9082 l 0.0039,0.0254 0.0078,0.0215 c 0.08762,0.24093 0.07761,0.43578 0.0098,0.60742 -0.06784,0.17164 -0.20154,0.3243 -0.38086,0.44726 -0.353305,0.24228 -0.881984,0.34124 -1.292968,0.26172 h -0.902344 c -0.535042,-0.9959 -0.325683,-2.31539 -0.591797,-3.56445 l 0.0039,0.0703 c 0.07326,-0.54555 -0.140411,-1.13513 -0.214843,-1.63672 -0.03722,-0.25079 -0.04082,-0.47334 0.01172,-0.64257 0.05253,-0.16924 0.146995,-0.29664 0.373047,-0.4043 l 0.01563,-0.006 0.01367,-0.01 c 0.309617,-0.2137 0.815773,-0.32899 1.318359,-0.33203 z m -8.623047,0.1543 c -0.587484,-0.002 -1.198638,0.0881 -1.695312,0.54687 l -0.08594,0.0801 0.02539,0.11524 c 0.469567,2.13293 0.6733,4.39245 1.316406,6.50781 l 0.02734,0.084 0.07813,0.041 c 0.677898,0.34048 1.600497,0.30677 2.314453,-0.002 0.356978,-0.15436 0.666427,-0.38296 0.847657,-0.69727 0.181229,-0.3143 0.21545,-0.71462 0.04297,-1.12891 l 0.01172,0.043 c -0.317621,-1.76757 -0.207403,-3.69556 -0.992187,-5.44726 l -0.0625,-0.13867 -0.150391,0.0195 c -0.50656,0.0632 -1.09025,-0.0213 -1.677735,-0.0234 z m 4.304688,0.16016 c 0.458158,-0.003 0.94337,0.0239 1.429688,0.008 0.378356,1.55445 0.426982,3.18287 0.638671,4.81055 l 0.0039,0.0293 0.0098,0.0254 c 0.20717,0.48678 0.138127,0.91767 -0.0957,1.22657 -0.233829,0.30889 -0.640632,0.50247 -1.164062,0.45312 l -0.03711,-0.004 -0.03711,0.01 c -0.312758,0.0852 -0.568941,0.12136 -0.794922,0.0898 -0.208741,-0.0291 -0.401835,-0.13228 -0.613281,-0.31054 C 70.36617,170.49386 69.916166,168.49469 70,166.4707 c 0.417141,-0.19922 0.864061,-0.27578 1.34375,-0.27929 z m -8.150391,0.10547 c -0.538465,-0.024 -1.075559,-0.0241 -1.517578,0.20703 l -0.0625,0.0332 -0.0293,0.0625 c -0.319629,0.68537 -0.225488,1.39382 -0.05469,2.06641 0.170801,0.67258 0.416857,1.32696 0.466797,1.93359 v 0.0156 L 62,170.62891 c 0.235741,1.02351 0.420945,2.07324 0.748047,3.09961 l 0.04687,0.14453 h 0.15039 c 0.413283,-0.001 0.825827,-0.005 1.238282,-0.006 h 0.205078 v -0.0254 c 0.437707,0.045 0.933867,0.057 1.33789,-0.13477 0.238567,-0.11323 0.447855,-0.28967 0.539063,-0.54687 0.09121,-0.2572 0.04931,-0.56606 -0.126953,-0.90039 l 0.02148,0.0586 c -0.366436,-1.94729 -0.655977,-3.92514 -1.222656,-5.85352 l -0.04883,-0.16796 -0.173828,0.0215 c -0.435457,0.0559 -0.983019,0.002 -1.521485,-0.0215 z m 3.84375,0.14453 c 0.488035,0.002 1.021291,0.0562 1.546875,0.0195 0.678619,1.60738 0.611854,3.44192 0.933594,5.23242 l 0.0039,0.0215 0.0078,0.0215 c 0.132269,0.31769 0.103988,0.55479 -0.01758,0.76562 -0.121567,0.21084 -0.354889,0.39397 -0.654297,0.52344 -0.57446,0.2484 -1.360673,0.24306 -1.888672,0.0117 -0.582959,-1.97451 -0.809057,-4.1117 -1.251953,-6.18555 0.378597,-0.30593 0.81057,-0.412 1.320312,-0.41015 z m -7.947265,0.0977 c -0.258473,-0.006 -0.517569,0.0171 -0.740235,0.15235 -0.222665,0.1352 -0.375693,0.3899 -0.412109,0.73242 l -0.0039,0.0391 0.0098,0.0391 c 0.600001,2.09847 1.209257,4.19714 1.8125,6.29493 l 0.01563,0.0547 0.04297,0.0391 c 0.235206,0.21869 0.492433,0.33753 0.757813,0.37305 0.26538,0.0355 0.531138,-0.006 0.80664,-0.0781 l -0.07813,0.006 c 0.380496,0.0475 0.685311,-0.0468 0.861328,-0.25977 0.176018,-0.21294 0.210359,-0.48926 0.201172,-0.76953 -0.01837,-0.56054 -0.225645,-1.20428 -0.28125,-1.56836 l -0.002,-0.0117 -0.002,-0.0117 c -0.425791,-1.59465 -0.587072,-3.31344 -1.355469,-4.87304 l -0.07422,-0.15039 -0.160157,0.041 c -0.318051,0.081 -0.881492,-0.0373 -1.398437,-0.0488 z m 4.085937,0.16797 c 0.457943,0.0204 0.939822,0.05 1.396485,0.0176 0.529333,1.84806 0.824254,3.76035 1.183593,5.66992 l 0.0059,0.0293 0.01367,0.0273 c 0.141609,0.26861 0.148259,0.44609 0.103515,0.57227 -0.04474,0.12617 -0.15331,0.22952 -0.328125,0.3125 -0.349629,0.16595 -0.931494,0.19845 -1.330078,0.125 L 63.9766,173.4169 v 0.041 c -0.290624,9e-4 -0.580727,0.003 -0.871093,0.004 -0.287095,-0.94001 -0.474658,-1.91536 -0.699219,-2.89453 l -0.0059,-0.0293 c -0.06166,-0.67903 -0.312351,-1.3414 -0.472657,-1.97266 -0.155036,-0.6105 -0.192381,-1.17088 0.02734,-1.70703 0.312258,-0.13489 0.735125,-0.17202 1.220703,-0.15039 z m -4.095703,0.24414 c 0.386307,0.009 0.86382,0.0805 1.302734,0.0312 0.685782,1.44838 0.868576,3.09127 1.296876,4.69531 0.06911,0.4329 0.258472,1.04148 0.273437,1.49805 0.0076,0.23185 -0.03349,0.4047 -0.107422,0.49414 -0.07393,0.0894 -0.192889,0.15065 -0.492187,0.11328 l -0.04102,-0.006 -0.03711,0.01 c -0.250269,0.0653 -0.463091,0.0951 -0.648438,0.0703 -0.173135,-0.0232 -0.329006,-0.10279 -0.498047,-0.25 -0.59085,-2.05424 -1.186199,-4.10882 -1.773437,-6.16211 0.03052,-0.22878 0.100193,-0.33747 0.207031,-0.40234 0.112405,-0.0683 0.293732,-0.0968 0.517578,-0.0918 z m 33.955078,23.31641 0.03516,0.01 0.03711,-0.004 c 0.206383,-0.0164 0.343883,0.0524 0.455078,0.17187 0.111195,0.11948 0.186074,0.30066 0.203125,0.49414 0.01705,0.19349 -0.02309,0.39341 -0.117187,0.54883 -0.08524,0.1408 -0.224278,0.23432 -0.410157,0.28711 l -0.09375,0.0469 c -0.157414,0.0789 -0.240752,0.10467 -0.263672,0.10351 -0.02292,-0.001 -0.06318,-0.0139 -0.179687,-0.13867 l -0.0332,-0.0352 -0.04492,-0.0176 c -0.194656,-0.0716 -0.312187,-0.20428 -0.380859,-0.375 -0.06867,-0.17073 -0.07856,-0.38076 -0.03125,-0.57032 0.04731,-0.18955 0.148248,-0.35313 0.283203,-0.44922 0.134954,-0.0961 0.301156,-0.1387 0.541015,-0.0723 z m -27.615234,0.0391 0.07227,0.0352 0.07617,-0.0254 c 0.190893,-0.0605 0.290316,-0.0201 0.390625,0.0781 0.10031,0.0982 0.18285,0.27905 0.210938,0.48047 0.02809,0.20142 0.0014,0.41994 -0.06641,0.57422 -0.06781,0.15427 -0.155169,0.23684 -0.292969,0.25781 l -0.04492,0.008 -0.03906,0.0254 c -0.239329,0.15973 -0.363636,0.20768 -0.392578,0.20508 -0.01447,-0.001 -0.03151,-0.004 -0.08008,-0.0469 -0.04857,-0.0425 -0.118355,-0.12173 -0.205078,-0.23828 l -0.03711,-0.0508 -0.05859,-0.0215 c -0.216757,-0.0763 -0.322175,-0.20168 -0.375,-0.35742 -0.05282,-0.15574 -0.04143,-0.34978 0.02539,-0.52344 0.06682,-0.17366 0.187747,-0.32055 0.326172,-0.39648 0.138424,-0.0759 0.290217,-0.0964 0.490234,-0.004 z m 28.417969,1.50781 c -0.158829,0.17887 -0.21148,0.44668 -0.488282,0.54297 l -0.02148,0.006 -0.01953,0.0117 c -0.113909,0.0698 -0.285976,-0.0391 -0.433594,-0.043 0.142756,0.003 0.258672,-0.0569 0.386719,-0.12109 l 0.01563,-0.004 c 0.002,-4.2e-4 0.0019,-0.003 0.0039,-0.004 0.01561,-0.008 0.03071,-0.006 0.04687,-0.0137 l -0.01367,-0.008 c 0.231508,-0.0585 0.385046,-0.20996 0.523438,-0.36719 z"
             id="path3638" />
        </g>
        <path
           id="path2325"
           style="fill:#d7696c;stroke:none;stroke-width:2.78907"
           d="m 102.9775,169.1417 c -1.16207,-0.082 -0.17864,-1.58649 -0.1148,-2.2846 1.50173,-5.44714 3.00345,-10.89429 4.50518,-16.34143 0.49086,-1.12379 1.48875,0.28055 1.27036,0.96993 -0.87617,4.30854 -2.35542,8.47648 -3.40822,12.74662 -0.45772,1.37373 -0.58052,2.92911 -1.25626,4.18459 -0.32591,0.24595 -0.5038,0.87375 -0.99626,0.72489 z M 40.978123,140.03654 c -0.743696,-0.11514 -1.934415,-0.65599 -2.136692,-1.36631 -0.01639,-1.29586 0.440824,-2.69165 0.817451,-3.77659 0.376627,-1.08494 1.288425,-1.11305 2.255691,-0.94152 1.191623,0.11427 1.304273,1.1088 1.160191,2.11374 -0.222578,1.33824 -0.521821,4.05232 -2.096641,3.97068 z"
           sodipodi:nodetypes="ccccccccczccc" />
      </g>
    </g>
  </g>
</svg>
