<?xml version="1.0" encoding="UTF-8" standalone="no"?>
<svg
   xmlns:dc="http://purl.org/dc/elements/1.1/"
   xmlns:cc="http://creativecommons.org/ns#"
   xmlns:rdf="http://www.w3.org/1999/02/22-rdf-syntax-ns#"
   xmlns:svg="http://www.w3.org/2000/svg"
   xmlns="http://www.w3.org/2000/svg"
   xmlns:sodipodi="http://sodipodi.sourceforge.net/DTD/sodipodi-0.dtd"
   xmlns:inkscape="http://www.inkscape.org/namespaces/inkscape"
   width="26.458334mm"
   height="26.458334mm"
   viewBox="0 0 26.458334 26.458334"
   version="1.1"
   id="svg923"
   inkscape:version="1.0.1 (3bc2e813f5, 2020-09-07)"
   sodipodi:docname="shortcut-child.svg">
  <defs
     id="defs917" />
  <sodipodi:namedview
     id="base"
     pagecolor="#ffffff"
     bordercolor="#666666"
     borderopacity="1.0"
     inkscape:pageopacity="0.0"
     inkscape:pageshadow="2"
     inkscape:zoom="2.8"
     inkscape:cx="115.94679"
     inkscape:cy="122.48031"
     inkscape:document-units="mm"
     inkscape:current-layer="layer1"
     inkscape:document-rotation="0"
     showgrid="false"
     fit-margin-top="0"
     fit-margin-left="0"
     fit-margin-right="0"
     fit-margin-bottom="0"
     inkscape:window-width="2560"
     inkscape:window-height="1440"
     inkscape:window-x="0"
     inkscape:window-y="0"
     inkscape:window-maximized="1" />
  <metadata
     id="metadata920">
    <rdf:RDF>
      <cc:Work
         rdf:about="">
        <dc:format>image/svg+xml</dc:format>
        <dc:type
           rdf:resource="http://purl.org/dc/dcmitype/StillImage" />
        <dc:title />
      </cc:Work>
    </rdf:RDF>
  </metadata>
  <g
     inkscape:label="Calque 1"
     inkscape:groupmode="layer"
     id="layer1"
     transform="translate(373.80541,-53.307683)">
    <path
       id="path3785"
       style="fill:#fccc57;stroke:none;stroke-width:0.999999"
       d="m -360.55726,59.779795 c -0.5136,0.0079 -1.02491,0.07468 -1.52271,0.202001 -1.26996,0.324797 -2.14114,0.827828 -3.12612,1.805407 -0.95811,0.950904 -1.56019,2.015478 -1.84378,3.260198 l -0.16296,0.715816 1.31893,0.611725 c 0.72547,0.336452 1.47159,0.680875 1.65788,0.76521 0.3351,0.151701 0.33943,0.149221 0.40466,-0.220964 0.13101,-0.743353 0.0439,-0.724631 3.38501,-0.724631 0.4811,0 0.776,0.0018 1.11717,0.0025 l 4.00578,-4.005782 c -0.58269,-0.671388 -1.30261,-1.290065 -1.93354,-1.620615 -1.02994,-0.539591 -2.17044,-0.80822 -3.30032,-0.79101 z m -6.61434,6.777299 -0.037,0.282486 c -0.0436,0.333849 0.2643,1.776096 0.46376,2.17258 0.12286,0.244191 0.29478,0.30676 1.43714,0.522641 0.71365,0.134864 1.33566,0.25134 1.38223,0.258892 0.0466,0.0076 0.0844,-0.379876 0.0843,-0.861141 l -4.2e-4,-0.875029 -1.66494,-0.750215 z m 1.1337,3.629345 c -0.0181,8.96e-4 -0.0292,0.003 -0.0328,0.0066 -0.0926,0.09266 0.39587,0.693995 1.07394,1.321587 0.0608,0.05625 0.12297,0.110692 0.18569,0.164507 l 0.9703,-0.970295 v -0.183031 l -1.08851,-0.19274 c -0.5238,-0.09281 -0.98254,-0.152673 -1.10856,-0.146647 z" />
    <path
       style="fill:#fdad42;stroke:none;stroke-width:0.999999"
       d="m -372.21887,67.140561 c -0.22169,-0.221681 -0.40305,-0.584431 -0.40305,-0.806108 0,-0.767176 0.70464,-1.209165 1.92774,-1.209165 1.54321,0 1.90127,0.22772 1.90127,1.209165 0,0.981446 -0.35806,1.209163 -1.90127,1.209163 -0.85293,0 -1.21821,-0.09656 -1.52469,-0.403055 z m 3.40225,-6.626685 c -0.92934,-0.929334 -1.05769,-1.823315 -0.33451,-2.329845 0.67471,-0.472581 1.08297,-0.38618 1.97251,0.41747 0.96754,0.874113 1.17373,1.501236 0.72084,2.192424 -0.51442,0.785108 -1.39867,0.680127 -2.35884,-0.280049 z m 14.43962,0.505865 c -0.45289,-0.691189 -0.24669,-1.318311 0.72084,-2.192423 0.88954,-0.803651 1.29781,-0.890051 1.9725,-0.417471 z m -7.15384,-3.337711 c -0.11474,-0.214387 -0.20861,-0.894539 -0.20861,-1.511446 0,-1.223102 0.44198,-1.927761 1.20915,-1.927761 0.76718,0 1.20917,0.704659 1.20917,1.927761 0,1.543196 -0.22772,1.901253 -1.20917,1.901253 -0.5767,0 -0.84862,-0.105928 -1.00054,-0.389807 z"
       id="path3787"
       sodipodi:nodetypes="ssssssssssscsccssssss" />
    <path
       style="fill:#664610;stroke:none;stroke-width:0.999999"
       d="m -363.78448,65.10772 c -0.10761,-0.280387 0.037,-0.485637 0.5137,-0.728796 0.58131,-0.29656 2.03978,-0.330239 2.31653,-0.05349 0.40462,0.404613 0.14048,0.556468 -0.96795,0.556468 -0.66355,0 -0.91361,0.04569 -1.08151,0.197591 -0.2677,0.242185 -0.69277,0.257556 -0.78077,0.02826 z m 5.91093,-0.02368 c -0.15898,-0.159314 -0.38611,-0.202115 -1.07262,-0.202115 -1.11633,0 -1.3812,-0.151052 -0.97579,-0.556467 0.13088,-0.130877 0.40489,-0.176943 1.04441,-0.175572 1.05435,0.0022 1.77021,0.322573 1.77021,0.792085 0,0.353913 -0.4682,0.440724 -0.76621,0.142069 z"
       id="path3789"
       sodipodi:nodetypes="sssssssssscss" />
    <path
       id="path3640"
       style="fill:#ff5555;stroke:none;stroke-width:0.999999"
       d="m -354.9018,62.112286 -4.52952,4.529297 0.76809,-2.26e-4 c 1.16195,-4.69e-4 2.44974,-0.03274 2.86171,-0.07167 0.74085,-0.06999 0.75036,-0.07514 0.87788,-0.478974 0.0709,-0.224566 0.13016,-0.560828 0.13143,-0.747129 9.1e-4,-0.186294 0.002,-0.567358 0.003,-0.846803 8.9e-4,-0.580006 0.20061,-1.770009 0.34401,-2.053719 0.0621,-0.122844 0.0466,-0.221498 -0.0435,-0.277197 -0.0247,-0.01524 -0.19224,-0.03395 -0.41347,-0.05359 z" />
    <path
       style="fill:#d35fbc;stroke:none;stroke-width:0.999999"
       d="m -354.29263,72.313513 c -0.37259,-0.01655 -0.77907,-0.07674 -0.90325,-0.133723 -0.1242,-0.05697 -0.51718,-0.123743 -0.87328,-0.148371 -1.09813,-0.07595 -1.12151,-0.12745 -1.03347,-2.276277 0.0409,-0.998182 0.12319,-1.909642 0.1829,-2.025463 0.0856,-0.166069 0.19146,-0.197135 0.50072,-0.146946 0.21571,0.03499 0.51798,0.01583 0.67174,-0.04263 1.11948,-0.27326 2.21042,0.04178 3.23388,0.03444 0.64174,-0.02394 0.7537,0.0045 0.9848,0.25052 0.24181,0.257398 0.25611,0.34525 0.19685,1.209923 -0.0351,0.512805 -0.0109,1.196964 0.0542,1.520357 0.17185,0.85573 0.0642,1.141476 -0.52919,1.40394 -0.27376,0.121095 -0.74861,0.237752 -1.05521,0.259237 -0.30661,0.02147 -0.60151,0.05843 -0.65534,0.08211 -0.0537,0.02368 -0.40273,0.02948 -0.77532,0.01293 z"
       id="path3642"
       sodipodi:nodetypes="csssssccsssssscc" />
    <path
       id="path3644"
       style="fill:#fccc57;fill-opacity:1;stroke:none;stroke-width:0.999999"
       d="m -360.33458,67.545062 -3.82847,3.828258 c 0.1177,0.225365 0.35059,0.3855 0.72485,0.518226 0.33744,0.119849 0.46031,0.219388 0.84769,0.03705 0.22712,-0.07661 1.10472,-0.136483 2.06915,-0.141133 2.15489,-0.0104 2.04493,0.100399 2.15538,-2.171479 0.0773,-1.590055 0.0702,-1.68052 -0.14554,-1.85525 -0.1551,-0.125589 -0.54693,-0.174944 -1.82306,-0.215668 z" />
    <path
       id="path3646"
       style="fill:#00aad4;stroke:none;stroke-width:0.999999"
       d="m -351.96004,59.170304 -1.65943,1.659426 c 0.24956,0.0122 0.47463,0.02631 0.65253,0.04345 0.88884,0.08561 1.29469,0.08247 1.46978,-0.01124 0.37239,-0.199315 0.14111,-0.337917 -9.1e-4,-0.71449 -0.1666,-0.4009 -0.31088,-0.714082 -0.46176,-0.977133 z" />
    <path
       style="fill:#8d5fd3;stroke:none;stroke-width:0.999999"
       d="m -359.48636,77.93278 c -0.1242,-0.05337 -0.41517,-0.100607 -0.64662,-0.104975 -0.68085,-0.01284 -0.74375,-0.216565 -0.72467,-2.34674 0.014,-1.569133 0.0442,-1.858564 0.21128,-2.025578 0.18363,-0.183628 0.22961,-0.183905 0.79781,-0.0048 0.55631,0.175358 0.65479,0.176209 1.27293,0.01096 0.51479,-0.137602 1.03127,-0.167075 2.2299,-0.127266 0.85795,0.02851 1.61286,0.104745 1.67756,0.169456 0.0816,0.08158 0.0731,0.250597 -0.0275,0.551443 -0.0798,0.238586 -0.1348,0.580401 -0.12214,0.759587 0.0127,0.179191 -0.0578,0.449118 -0.15654,0.599842 -0.13209,0.201602 -0.16256,0.428869 -0.11525,0.859726 0.10203,0.929056 -0.0373,1.339887 -0.53765,1.585628 -0.39184,0.19244 -0.51635,0.198231 -1.52195,0.07077 -0.82028,-0.103968 -1.20853,-0.107143 -1.54681,-0.01263 -0.51551,0.144027 -0.49008,0.143563 -0.79035,0.0145 z"
       id="path3648"
       sodipodi:nodetypes="csssssssssssssscc" />
    <path
       id="path3650"
       style="fill:#5f605f;stroke:none;stroke-width:0.999999"
       d="m -351.20585,58.41612 -0.45979,0.459787 c 0.22928,0.31849 0.42951,0.640851 0.58505,0.951552 0.27915,0.557642 0.50742,1.135826 0.50742,1.28476 0,0.264132 0.0482,0.300824 -1.06489,0.177741 -0.79285,-0.08353 -1.55927,-0.123807 -2.3005,-0.141134 l -0.6309,0.631134 c 0.0895,0.009 0.15659,0.01834 0.16693,0.02866 0.0729,0.07288 0.27281,2.465051 0.30498,3.647871 l 0.0307,1.129072 -0.67745,-0.01985 c -0.84917,0.0901 -1.62245,0.126807 -2.72718,0.127241 -0.0764,-0.03102 -0.56454,-0.117913 -0.56454,-0.0044 v 2.26e-4 c 0,0.04757 -0.0601,0.02321 -0.0491,0.03265 -0.51461,0.01278 -1.02455,0.03485 -1.48124,0.05535 l -0.39452,0.394734 c 0.15827,0.0066 0.32657,0.01237 0.47455,0.01963 l 1.4678,0.07188 0.0646,2.371051 c 0.0355,1.304079 0.0281,2.413812 -0.0161,2.466097 -0.0442,0.05228 -0.55587,0.137977 -1.13701,0.19053 -0.63922,0.03917 -1.45746,0.294839 -4.077,0.246323 l -1.21376,-0.02382 -0.0124,-0.366949 c -0.005,-0.148777 -0.0131,-0.321419 -0.0222,-0.50323 l -0.38062,0.3804 c 0.0291,0.408147 0.0588,0.682433 0.0844,0.730368 0.0998,0.186498 0.24006,0.208354 1.20979,0.187445 l 1.09687,-0.02382 c 0.27092,-0.02693 0.84977,0.05164 0.7297,0.396277 -0.23004,0.660369 -0.0412,1.946709 -0.0236,2.850245 0,0 -0.0552,1.48443 -0.0287,2.12627 0.0789,0.197822 0.12998,0.202166 0.28073,0.369596 0.20429,0.151064 0.35911,0.119545 3.67301,0.113571 1.86194,-0.0034 3.47035,-0.04549 3.57423,-0.0935 0.10389,-0.04801 0.22908,-0.172222 0.27828,-0.276093 0.0492,-0.10387 0.11675,-1.408164 0.14996,-2.898539 l 0.0602,-2.709775 1.49493,0.04191 c 1.07556,0.03017 1.44333,0.01655 1.67575,-0.08733 0.26731,-0.145043 0.27747,-0.775912 0.24764,-2.833706 0.0439,-2.36012 -0.0138,-2.888214 -0.33388,-3.059518 -0.12792,-0.06846 -0.84054,-0.152516 -1.58377,-0.186782 -0.8259,-0.03807 -1.36862,-0.110523 -1.39569,-0.186341 -0.069,-0.193052 -0.27353,-4.735191 -0.2159,-4.792823 0.0281,-0.0283 0.41775,-0.0404 0.86555,-0.02734 1.16199,0.01113 1.99189,0.104657 2.49235,0.119303 0.6158,-0.0248 0.49263,-0.223616 0.44919,-0.701701 -0.0586,-0.250554 -0.12986,-0.546167 -0.19913,-0.770724 -0.19028,-0.616908 -0.53485,-1.27085 -0.9747,-1.894281 z m -2.83459,5.575453 c 0.0114,0.142085 0.0235,0.275874 0.0357,0.392308 0.008,0.07913 0.0156,0.144699 0.0222,0.196264 -0.007,-0.05156 -0.0141,-0.11713 -0.0226,-0.196264 -0.0121,-0.116434 -0.0241,-0.250223 -0.0355,-0.392308 z m -3.21874,0.478092 -0.61437,0.614372 c 0.0494,0.150001 0.10258,0.303703 0.14202,0.400689 0.10871,0.267636 0.38139,0.338289 0.50896,0.131872 0.0415,-0.0672 0.04,-0.502438 -0.003,-0.967209 -0.005,-0.03897 -0.0174,-0.105457 -0.0331,-0.179724 z m 3.24211,2.759609 c 0.9995,0.0025 1.91546,0.02577 2.26476,0.06109 l 0.84681,0.08557 0.062,1.354886 0.062,1.354886 c -0.098,0.284006 0.14874,1.846096 -0.14488,2.137518 -0.2757,0.105818 -6.3876,0.07987 -6.49504,-0.02757 -0.0515,-0.05144 -0.0798,-1.182315 -0.0631,-2.513067 l 0.0304,-2.419565 2.42751,-0.02911 c 0.33378,-0.0038 0.67638,-0.0055 1.00955,-0.0046 z m -6.91666,0.914724 -0.42583,0.426048 c 0.21779,0.04198 0.46177,0.315247 0.46177,0.651864 0,0.417632 -0.26875,0.767085 -0.79762,1.036894 -0.28887,0.147372 -0.44436,0.304132 -0.44436,0.4481 0,0.255568 0.20804,0.320819 1.18552,0.372681 0.3726,0.01976 0.76979,0.0456 0.88253,0.05734 0.28741,0.02992 0.64173,-0.18026 0.64173,-0.380621 0,-0.198787 -0.44449,-0.388339 -0.91053,-0.388339 -0.37914,0 -0.40375,-0.09692 -0.14996,-0.58769 0.21658,-0.927382 -0.0552,-1.435919 -0.44325,-1.636272 z m 6.72569,0.13518 c -0.58917,5.2e-5 -0.88021,0.193064 -0.39495,0.261981 0.27452,0.03901 0.33103,0.236821 0.12613,0.441705 -0.19802,0.198022 -0.0268,0.510268 0.23441,0.427371 0.14272,-0.04529 0.30226,0.01182 0.45209,0.161642 0.28841,0.288427 0.2881,0.354946 -0.002,0.724415 -0.29295,0.372428 -0.82854,0.39928 -1.18992,0.05975 -0.2909,-0.273281 -0.49552,-0.202832 -0.49552,0.170463 0,0.28704 0.27635,0.581063 0.621,0.660684 v 0 c 0.58041,0.134085 1.22751,-0.2102 1.56988,-0.835116 0.24719,-0.451163 0.19019,-0.877353 -0.16517,-1.232718 -0.14036,-0.14037 -0.21449,-0.34342 -0.19473,-0.533441 0.0311,-0.298827 0.0166,-0.306744 -0.56055,-0.306746 z m -7.45914,0.598497 -0.42297,0.422962 c 0.004,0.0088 0.008,0.01718 0.0132,0.02602 0.29903,0.426918 0.76051,0.255639 0.4878,-0.18105 -0.0478,-0.07668 -0.0741,-0.177741 -0.0781,-0.267934 z m 3.84921,0.867533 c 0.0109,1.194321 9e-4,2.377254 -0.0389,2.441397 0,2.26e-4 -9e-4,4.69e-4 -9e-4,8.96e-4 0.04,-0.07229 0.0501,-1.2511 0.04,-2.442059 z m 3.52525,3.163165 0.06,2.371049 c -0.0176,0.875364 0.0823,1.765561 -0.0832,2.625313 -0.0269,0.13986 -0.13791,0.301865 -0.24676,0.360114 -0.27948,0.149593 -6.54307,0.182387 -6.6904,0.03509 -0.15238,-0.152362 -0.0836,-5.057612 0.073,-5.203652 0.0625,-0.05833 1.6245,-0.123775 3.50012,-0.146647 z m -3.40971,1.765717 c -0.0163,8.53e-4 -0.0335,0.0025 -0.0517,0.0054 -0.1781,0.02689 -0.30326,0.223943 -0.51251,0.807111 -0.31146,0.868066 -0.27163,1.200489 0.0785,0.978454 0.11499,-0.07291 0.16519,-0.261221 0.21899,-0.290645 0.0947,-0.05178 0.0661,0.189347 0.065,0.342247 -9e-4,0.100443 0.08,0.254218 0.11093,0.351953 0.0308,0.09774 0.14516,0.159575 0.25403,0.137384 0.17169,-0.03503 0.1942,-0.159655 0.16936,-0.939864 -0.0367,-1.15295 -0.0879,-1.401408 -0.33277,-1.391931 z" />
    <path
       id="path3859"
       style="fill:#fccc57;stroke:none;stroke-width:0.999999"
       d="m -360.55726,59.779795 c -0.5136,0.0079 -1.02491,0.07468 -1.52271,0.202001 -1.26996,0.324797 -2.14114,0.827828 -3.12612,1.805407 -0.95811,0.950904 -1.56019,2.015478 -1.84378,3.260198 l -0.16296,0.715816 1.31893,0.611725 c 0.72547,0.336452 1.47159,0.680875 1.65788,0.76521 0.3351,0.151701 0.33943,0.149221 0.40466,-0.220964 0.13101,-0.743353 0.0439,-0.724631 3.38501,-0.724631 0.4811,0 0.776,0.0018 1.11717,0.0025 l 4.00578,-4.005782 c -0.58269,-0.671388 -1.30261,-1.290065 -1.93354,-1.620615 -1.02994,-0.539591 -2.17044,-0.80822 -3.30032,-0.79101 z m -6.61434,6.777299 -0.037,0.282486 c -0.0436,0.333849 0.2643,1.776096 0.46376,2.17258 0.12286,0.244191 0.29478,0.30676 1.43714,0.522641 0.71365,0.134864 1.33566,0.25134 1.38223,0.258892 0.0466,0.0076 0.0844,-0.379876 0.0843,-0.861141 l -4.2e-4,-0.875029 -1.66494,-0.750215 z m 1.1337,3.629345 c -0.0181,8.96e-4 -0.0292,0.003 -0.0328,0.0066 -0.0926,0.09266 0.39587,0.693995 1.07394,1.321587 0.0608,0.05625 0.12297,0.110692 0.18569,0.164507 l 0.9703,-0.970295 v -0.183031 l -1.08851,-0.19274 c -0.5238,-0.09281 -0.98254,-0.152673 -1.10856,-0.146647 z" />
    <path
       style="fill:#fdad42;stroke:none;stroke-width:0.999999"
       d="m -372.21887,67.140561 c -0.22169,-0.221681 -0.40305,-0.584431 -0.40305,-0.806108 0,-0.767176 0.70464,-1.209165 1.92774,-1.209165 1.54321,0 1.90127,0.22772 1.90127,1.209165 0,0.981446 -0.35806,1.209163 -1.90127,1.209163 -0.85293,0 -1.21821,-0.09656 -1.52469,-0.403055 z m 3.40225,-6.626685 c -0.92934,-0.929334 -1.05769,-1.823315 -0.33451,-2.329845 0.67471,-0.472581 1.08297,-0.38618 1.97251,0.41747 0.96754,0.874113 1.17373,1.501236 0.72084,2.192424 -0.51442,0.785108 -1.39867,0.680127 -2.35884,-0.280049 z m 14.43962,0.505865 c -0.45289,-0.691189 -0.24669,-1.318311 0.72084,-2.192423 0.88954,-0.803651 1.29781,-0.890051 1.9725,-0.417471 z m -7.15384,-3.337711 c -0.11474,-0.214387 -0.20861,-0.894539 -0.20861,-1.511446 0,-1.223102 0.44198,-1.927761 1.20915,-1.927761 0.76718,0 1.20917,0.704659 1.20917,1.927761 0,1.543196 -0.22772,1.901253 -1.20917,1.901253 -0.5767,0 -0.84862,-0.105928 -1.00054,-0.389807 z"
       id="path3861"
       sodipodi:nodetypes="ssssssssssscsccssssss" />
    <path
       style="fill:#664610;stroke:none;stroke-width:0.999999"
       d="m -363.78448,65.10772 c -0.10761,-0.280387 0.037,-0.485637 0.5137,-0.728796 0.58131,-0.29656 2.03978,-0.330239 2.31653,-0.05349 0.40462,0.404613 0.14048,0.556468 -0.96795,0.556468 -0.66355,0 -0.91361,0.04569 -1.08151,0.197591 -0.2677,0.242185 -0.69277,0.257556 -0.78077,0.02826 z m 5.91093,-0.02368 c -0.15898,-0.159314 -0.38611,-0.202115 -1.07262,-0.202115 -1.11633,0 -1.3812,-0.151052 -0.97579,-0.556467 0.13088,-0.130877 0.40489,-0.176943 1.04441,-0.175572 1.05435,0.0022 1.77021,0.322573 1.77021,0.792085 0,0.353913 -0.4682,0.440724 -0.76621,0.142069 z"
       id="path3863"
       sodipodi:nodetypes="sssssssssscss" />
    <rect
       style="fill:#ffffff;stroke:none;stroke-width:3;paint-order:markers stroke fill"
       id="rect3791"
       width="1.804116"
       height="29.715561"
       x="-207.47081"
       y="286.66342"
       ry="0.90205801"
       transform="rotate(45)" />
  </g>
</svg>
