<?xml version="1.0" encoding="UTF-8" standalone="no"?>
<svg
   xmlns:dc="http://purl.org/dc/elements/1.1/"
   xmlns:cc="http://creativecommons.org/ns#"
   xmlns:rdf="http://www.w3.org/1999/02/22-rdf-syntax-ns#"
   xmlns:svg="http://www.w3.org/2000/svg"
   xmlns="http://www.w3.org/2000/svg"
   xmlns:sodipodi="http://sodipodi.sourceforge.net/DTD/sodipodi-0.dtd"
   xmlns:inkscape="http://www.inkscape.org/namespaces/inkscape"
   width="26.458334mm"
   height="26.458334mm"
   viewBox="0 0 26.458334 26.458334"
   version="1.1"
   id="svg923"
   inkscape:version="1.0.1 (3bc2e813f5, 2020-09-07)"
   sodipodi:docname="shortcut-work.svg">
  <defs
     id="defs917" />
  <sodipodi:namedview
     id="base"
     pagecolor="#ffffff"
     bordercolor="#666666"
     borderopacity="1.0"
     inkscape:pageopacity="0.0"
     inkscape:pageshadow="2"
     inkscape:zoom="1.4"
     inkscape:cx="-34.090694"
     inkscape:cy="-132.56545"
     inkscape:document-units="mm"
     inkscape:current-layer="layer1"
     inkscape:document-rotation="0"
     showgrid="false"
     fit-margin-top="0"
     fit-margin-left="0"
     fit-margin-right="0"
     fit-margin-bottom="0"
     inkscape:window-width="2560"
     inkscape:window-height="1440"
     inkscape:window-x="0"
     inkscape:window-y="0"
     inkscape:window-maximized="1" />
  <metadata
     id="metadata920">
    <rdf:RDF>
      <cc:Work
         rdf:about="">
        <dc:format>image/svg+xml</dc:format>
        <dc:type
           rdf:resource="http://purl.org/dc/dcmitype/StillImage" />
        <dc:title />
      </cc:Work>
    </rdf:RDF>
  </metadata>
  <g
     inkscape:label="Calque 1"
     inkscape:groupmode="layer"
     id="layer1"
     transform="translate(373.80541,-53.307683)">
    <path
       id="path2670"
       style="fill:#6b3819;fill-opacity:1;stroke:none;stroke-width:0.264582;stroke-miterlimit:4;stroke-dasharray:none;stroke-opacity:1;paint-order:markers stroke fill"
       d="m -347.59317,65.726055 -11.43362,3.481558 -0.43523,-0.132311 -8.53002,8.530265 h 19.34764 c 0.58245,0 1.05123,-0.469068 1.05123,-1.05147 z" />
    <path
       id="path2674"
       style="fill:#995024;fill-opacity:1;stroke:none;stroke-width:0.264582;stroke-miterlimit:4;stroke-dasharray:none;stroke-opacity:1;paint-order:markers stroke fill"
       d="m -347.59317,67.496759 -11.43362,3.481318 -1.79276,-0.544999 -8.8991,8.899089 c 0.0954,0.02832 0.19638,0.04385 0.30122,0.04385 h 20.77303 c 0.58245,0 1.05123,-0.46883 1.05123,-1.051231 z" />
    <path
       id="path2676"
       style="fill:#995024;fill-opacity:1;stroke:none;stroke-width:0.264583;stroke-miterlimit:4;stroke-dasharray:none;stroke-opacity:1;paint-order:markers stroke fill"
       d="m -353.41661,63.561805 -6.9951,6.995105 1.38492,0.421167 11.6001,-3.532446 V 64.62854 c 0,-0.590927 -0.47557,-1.066735 -1.0665,-1.066735 z" />
    <path
       id="rect2678"
       style="fill:#fccc57;fill-opacity:1;stroke:none;stroke-width:0.264583;stroke-miterlimit:4;stroke-dasharray:none;stroke-opacity:1;paint-order:markers stroke fill"
       d="m -360.18707,69.800594 v 1.16658 c 0,0.474612 0.38227,0.856637 0.85688,0.856637 h 0.75655 c 0.47461,0 0.85664,-0.382025 0.85664,-0.856637 v -1.272476 c 0,-0.474607 -0.38203,-0.856641 -0.85664,-0.856641 h -0.65114 z" />
    <path
       id="path2712"
       style="fill:#fccc57;stroke:none;stroke-width:1"
       d="m -360.28487,59.492781 c -0.56438,0.0086 -1.12627,0.08207 -1.6733,0.221977 -1.39554,0.356917 -2.35287,0.909696 -3.43527,1.983952 -1.05286,1.044943 -1.71448,2.214797 -2.02612,3.582613 l -0.17908,0.786605 1.44937,0.672222 c 0.79722,0.369724 1.61713,0.748209 1.82184,0.840884 0.36824,0.166704 0.37299,0.163979 0.44468,-0.242816 0.14396,-0.816865 0.0483,-0.796293 3.71977,-0.796293 0.52868,0 0.85273,0.0019 1.22764,0.0028 l 4.40193,-4.40193 c -0.64032,-0.737784 -1.43143,-1.417645 -2.12475,-1.780884 -1.1318,-0.592953 -2.38508,-0.888149 -3.62671,-0.869237 z m -7.26846,7.447535 -0.0407,0.310422 c -0.0479,0.366864 0.29042,1.951745 0.50962,2.387435 0.135,0.26834 0.32393,0.3371 1.57927,0.574326 0.78422,0.148203 1.46774,0.2762 1.51892,0.2845 0.0512,0.0083 0.0928,-0.417444 0.0926,-0.946307 l -4.7e-4,-0.961561 -1.82959,-0.824409 z m 1.24583,3.988265 c -0.0198,9.38e-4 -0.0321,0.0033 -0.0361,0.0073 -0.10183,0.101825 0.43501,0.762629 1.18014,1.452286 0.0668,0.06181 0.13513,0.121637 0.20405,0.180775 l 1.06625,-1.066251 v -0.201132 l -1.19614,-0.211801 c -0.5756,-0.101989 -1.07972,-0.167771 -1.21819,-0.16115 z" />
    <path
       style="fill:#fdad42;stroke:none;stroke-width:1"
       d="m -373.09975,67.581485 c -0.2436,-0.243604 -0.44291,-0.642229 -0.44291,-0.885828 0,-0.843046 0.77434,-1.328744 2.1184,-1.328744 1.69581,0 2.08928,0.250239 2.08928,1.328744 0,1.078504 -0.39347,1.328743 -2.08928,1.328743 -0.9373,0 -1.33868,-0.106106 -1.67549,-0.442915 z m 3.73872,-7.282028 c -1.02124,-1.021238 -1.16229,-2.003629 -0.36759,-2.560254 0.74143,-0.519315 1.19007,-0.424369 2.16757,0.458757 1.06323,0.960558 1.28981,1.649699 0.79213,2.409242 -0.56529,0.862751 -1.53698,0.747388 -2.59211,-0.307745 z m 15.86761,0.555893 c -0.49767,-0.759543 -0.27109,-1.448684 0.79214,-2.409242 0.97751,-0.883127 1.42614,-0.978072 2.16757,-0.458757 z m -7.86131,-3.667791 c -0.12609,-0.235589 -0.22925,-0.983005 -0.22925,-1.66092 0,-1.344059 0.4857,-2.118407 1.32874,-2.118407 0.84304,0 1.32874,0.774348 1.32874,2.118407 0,1.695809 -0.25023,2.089276 -1.32874,2.089276 -0.63373,0 -0.93255,-0.116409 -1.09949,-0.428356 z"
       id="path2714"
       sodipodi:nodetypes="ssssssssssscsccssssss" />
    <path
       style="fill:#fdad42;stroke:none;stroke-width:1"
       d="m -368.76795,76.190216 c -0.49767,-0.759543 -0.27109,-1.448685 0.79214,-2.409243 0.9775,-0.883122 1.42614,-0.978068 2.16756,-0.458752 z"
       id="path2716"
       sodipodi:nodetypes="cscc" />
    <path
       style="fill:#664610;stroke:none;stroke-width:1"
       d="m -363.83125,65.347607 c -0.11823,-0.308115 0.0408,-0.533665 0.56451,-0.80087 0.6388,-0.325888 2.24151,-0.362897 2.54563,-0.05878 0.44463,0.444628 0.15437,0.611499 -1.06368,0.611499 -0.72917,0 -1.00396,0.05021 -1.18847,0.217132 -0.29417,0.266137 -0.76128,0.283028 -0.85799,0.03104 z m 6.4955,-0.02603 c -0.1747,-0.175068 -0.42429,-0.222103 -1.1787,-0.222103 -1.22673,0 -1.51779,-0.16599 -1.07228,-0.611499 0.14382,-0.143819 0.44493,-0.19444 1.14768,-0.192935 1.15863,0.0023 1.94528,0.354474 1.94528,0.870418 0,0.388914 -0.5145,0.48431 -0.84198,0.156119 z"
       id="path2718"
       sodipodi:nodetypes="sssssssssscss" />
    <rect
       style="fill:#ffffff;stroke:none;stroke-width:3;paint-order:markers stroke fill"
       id="rect2720"
       width="1.9825331"
       height="32.654263"
       x="-206.96584"
       y="285.22354"
       ry="0.99126655"
       transform="rotate(45)" />
    <path
       style="fill:#fdad42;stroke:none;stroke-width:1"
       d="m -373.09975,67.581485 c -0.2436,-0.243604 -0.44291,-0.642229 -0.44291,-0.885828 0,-0.843046 0.77434,-1.328744 2.1184,-1.328744 1.69581,0 2.08928,0.250239 2.08928,1.328744 0,1.078504 -0.39347,1.328743 -2.08928,1.328743 -0.9373,0 -1.33868,-0.106106 -1.67549,-0.442915 z m 3.73872,-7.282028 c -1.02124,-1.021238 -1.16229,-2.003629 -0.36759,-2.560254 0.74143,-0.519315 1.19007,-0.424369 2.16757,0.458757 1.06323,0.960558 1.28981,1.649699 0.79213,2.409242 -0.56529,0.862751 -1.53698,0.747388 -2.59211,-0.307745 z m 15.86761,0.555893 c -0.49767,-0.759543 -0.27109,-1.448684 0.79214,-2.409242 0.97751,-0.883127 1.42614,-0.978072 2.16757,-0.458757 z m -7.86131,-3.667791 c -0.12609,-0.235589 -0.22925,-0.983005 -0.22925,-1.66092 0,-1.344059 0.4857,-2.118407 1.32874,-2.118407 0.84304,0 1.32874,0.774348 1.32874,2.118407 0,1.695809 -0.25023,2.089276 -1.32874,2.089276 -0.63373,0 -0.93255,-0.116409 -1.09949,-0.428356 z"
       id="path3771"
       sodipodi:nodetypes="ssssssssssscsccssssss" />
    <path
       style="fill:#664610;stroke:none;stroke-width:1"
       d="m -363.83125,65.347607 c -0.11823,-0.308115 0.0408,-0.533665 0.56451,-0.80087 0.6388,-0.325888 2.24151,-0.362897 2.54563,-0.05878 0.44463,0.444628 0.15437,0.611499 -1.06368,0.611499 -0.72917,0 -1.00396,0.05021 -1.18847,0.217132 -0.29417,0.266137 -0.76128,0.283028 -0.85799,0.03104 z m 6.4955,-0.02603 c -0.1747,-0.175068 -0.42429,-0.222103 -1.1787,-0.222103 -1.22673,0 -1.51779,-0.16599 -1.07228,-0.611499 0.14382,-0.143819 0.44493,-0.19444 1.14768,-0.192935 1.15863,0.0023 1.94528,0.354474 1.94528,0.870418 0,0.388914 -0.5145,0.48431 -0.84198,0.156119 z"
       id="path3773"
       sodipodi:nodetypes="sssssssssscss" />
    <rect
       style="fill:#ffffff;stroke:none;stroke-width:3;paint-order:markers stroke fill"
       id="rect3775"
       width="1.9825331"
       height="32.654263"
       x="-206.96584"
       y="285.22354"
       ry="0.99126655"
       transform="rotate(45)" />
    <path
       id="path3777"
       style="fill:#fccc57;stroke:none;stroke-width:1"
       d="m -360.28487,59.492781 c -0.56438,0.0086 -1.12627,0.08207 -1.6733,0.221977 -1.39554,0.356917 -2.35287,0.909696 -3.43527,1.983952 -1.05286,1.044943 -1.71448,2.214797 -2.02612,3.582613 l -0.17908,0.786605 1.44937,0.672222 c 0.79722,0.369724 1.61713,0.748209 1.82184,0.840884 0.36824,0.166704 0.37299,0.163979 0.44468,-0.242816 0.14396,-0.816865 0.0483,-0.796293 3.71977,-0.796293 0.52868,0 0.85273,0.0019 1.22764,0.0028 l 4.40193,-4.40193 c -0.64032,-0.737784 -1.43143,-1.417645 -2.12475,-1.780884 -1.1318,-0.592953 -2.38508,-0.888149 -3.62671,-0.869237 z m -7.26846,7.447535 -0.0407,0.310422 c -0.0479,0.366864 0.29042,1.951745 0.50962,2.387435 0.135,0.26834 0.32393,0.3371 1.57927,0.574326 0.78422,0.148203 1.46774,0.2762 1.51892,0.2845 0.0512,0.0083 0.0928,-0.417444 0.0926,-0.946307 l -4.7e-4,-0.961561 -1.82959,-0.824409 z m 1.24583,3.988265 c -0.0198,9.38e-4 -0.0321,0.0033 -0.0361,0.0073 -0.10183,0.101825 0.43501,0.762629 1.18014,1.452286 0.0668,0.06181 0.13513,0.121637 0.20405,0.180775 l 1.06625,-1.066251 v -0.201132 l -1.19614,-0.211801 c -0.5756,-0.101989 -1.07972,-0.167771 -1.21819,-0.16115 z" />
    <path
       style="fill:#fdad42;stroke:none;stroke-width:1"
       d="m -373.09975,67.581485 c -0.2436,-0.243604 -0.44291,-0.642229 -0.44291,-0.885828 0,-0.843046 0.77434,-1.328744 2.1184,-1.328744 1.69581,0 2.08928,0.250239 2.08928,1.328744 0,1.078504 -0.39347,1.328743 -2.08928,1.328743 -0.9373,0 -1.33868,-0.106106 -1.67549,-0.442915 z m 3.73872,-7.282028 c -1.02124,-1.021238 -1.16229,-2.003629 -0.36759,-2.560254 0.74143,-0.519315 1.19007,-0.424369 2.16757,0.458757 1.06323,0.960558 1.28981,1.649699 0.79213,2.409242 -0.56529,0.862751 -1.53698,0.747388 -2.59211,-0.307745 z m 15.86761,0.555893 c -0.49767,-0.759543 -0.27109,-1.448684 0.79214,-2.409242 0.97751,-0.883127 1.42614,-0.978072 2.16757,-0.458757 z m -7.86131,-3.667791 c -0.12609,-0.235589 -0.22925,-0.983005 -0.22925,-1.66092 0,-1.344059 0.4857,-2.118407 1.32874,-2.118407 0.84304,0 1.32874,0.774348 1.32874,2.118407 0,1.695809 -0.25023,2.089276 -1.32874,2.089276 -0.63373,0 -0.93255,-0.116409 -1.09949,-0.428356 z"
       id="path3779"
       sodipodi:nodetypes="ssssssssssscsccssssss" />
    <path
       style="fill:#664610;stroke:none;stroke-width:1"
       d="m -363.83125,65.347607 c -0.11823,-0.308115 0.0408,-0.533665 0.56451,-0.80087 0.6388,-0.325888 2.24151,-0.362897 2.54563,-0.05878 0.44463,0.444628 0.15437,0.611499 -1.06368,0.611499 -0.72917,0 -1.00396,0.05021 -1.18847,0.217132 -0.29417,0.266137 -0.76128,0.283028 -0.85799,0.03104 z m 6.4955,-0.02603 c -0.1747,-0.175068 -0.42429,-0.222103 -1.1787,-0.222103 -1.22673,0 -1.51779,-0.16599 -1.07228,-0.611499 0.14382,-0.143819 0.44493,-0.19444 1.14768,-0.192935 1.15863,0.0023 1.94528,0.354474 1.94528,0.870418 0,0.388914 -0.5145,0.48431 -0.84198,0.156119 z"
       id="path3781"
       sodipodi:nodetypes="sssssssssscss" />
    <rect
       style="fill:#ffffff;stroke:none;stroke-width:3;paint-order:markers stroke fill"
       id="rect3783"
       width="1.9825331"
       height="32.654263"
       x="-206.96584"
       y="285.22354"
       ry="0.99126655"
       transform="rotate(45)" />
  </g>
</svg>
