<?xml version="1.0" encoding="UTF-8" standalone="no"?>
<svg
   xmlns:dc="http://purl.org/dc/elements/1.1/"
   xmlns:cc="http://creativecommons.org/ns#"
   xmlns:rdf="http://www.w3.org/1999/02/22-rdf-syntax-ns#"
   xmlns:svg="http://www.w3.org/2000/svg"
   xmlns="http://www.w3.org/2000/svg"
   xmlns:sodipodi="http://sodipodi.sourceforge.net/DTD/sodipodi-0.dtd"
   xmlns:inkscape="http://www.inkscape.org/namespaces/inkscape"
   width="26.458334mm"
   height="26.458334mm"
   viewBox="0 0 26.458334 26.458334"
   version="1.1"
   id="svg923"
   inkscape:version="1.0.1 (3bc2e813f5, 2020-09-07)"
   sodipodi:docname="shortcut-doctor.svg">
  <defs
     id="defs917" />
  <sodipodi:namedview
     id="base"
     pagecolor="#ffffff"
     bordercolor="#666666"
     borderopacity="1.0"
     inkscape:pageopacity="0.0"
     inkscape:pageshadow="2"
     inkscape:zoom="5.6"
     inkscape:cx="0.56772554"
     inkscape:cy="81.714722"
     inkscape:document-units="mm"
     inkscape:current-layer="layer1"
     inkscape:document-rotation="0"
     showgrid="false"
     fit-margin-top="0"
     fit-margin-left="0"
     fit-margin-right="0"
     fit-margin-bottom="0"
     inkscape:window-width="2560"
     inkscape:window-height="1440"
     inkscape:window-x="0"
     inkscape:window-y="0"
     inkscape:window-maximized="1" />
  <metadata
     id="metadata920">
    <rdf:RDF>
      <cc:Work
         rdf:about="">
        <dc:format>image/svg+xml</dc:format>
        <dc:type
           rdf:resource="http://purl.org/dc/dcmitype/StillImage" />
        <dc:title />
      </cc:Work>
    </rdf:RDF>
  </metadata>
  <g
     inkscape:label="Calque 1"
     inkscape:groupmode="layer"
     id="layer1"
     transform="translate(373.80541,-53.307683)">
    <path
       id="path3843"
       style="fill:#ababab;stroke:none;stroke-width:0.999994"
       d="m -358.78217,65.99221 -0.75886,0.758627 c 0.0159,0.250295 0.0305,0.495631 0.042,0.731876 -0.14787,0.391778 -0.0995,0.50364 0.0485,0.355667 0.42152,-0.350627 0.91222,-0.07804 0.84702,-0.35734 -0.0533,-0.160639 -0.11779,-0.747021 -0.17869,-1.48883 z" />
    <path
       style="fill:#ababab;stroke:none;stroke-width:0.999994"
       d="m -353.69002,72.697701 c 1.02509,-1.923205 4.83436,-7.173387 4.40879,-8.58375 -0.22223,-0.673359 -0.93047,-1.457088 -1.53135,-1.605569 -0.5819,-0.516948 -1.59994,0.628966 -0.25876,0.886847 0.28207,0.05599 0.54878,0.167789 0.7259,0.34491 0.77168,0.771675 0.52162,1.598207 -1.13504,3.751544 -0.55105,0.716278 -1.26198,1.670855 -1.57983,2.121292 l -1.55465,2.121286 0.371,0.279856 c 0.45593,0.343906 0.55394,0.366366 0.55394,0.683579 z"
       id="path3660" />
    <path
       id="path3662"
       style="fill:#5f605f;fill-opacity:1;stroke:none;stroke-width:0.999994"
       d="m -358.96091,68.875551 c -0.53036,0 -0.693,0.248415 -0.90004,1.372982 -0.38885,2.112233 -0.10676,3.767981 0.77583,4.553199 0.1917,0.170562 0.34875,0.373549 0.34875,0.451212 0,0.280079 -1.38276,1.633698 -1.98042,1.938611 -0.75291,0.384111 -2.18568,0.41171 -3.03069,0.05876 -1.15611,-0.482935 -1.9014,-1.467133 -2.05804,-2.610051 l -0.96119,0.961183 c 0.29086,0.872127 0.81492,1.653069 1.5187,2.172933 1.36298,1.006823 2.9555,1.265005 4.50376,0.729962 1.07577,-0.371764 1.84626,-0.963854 2.66498,-2.048246 0.55688,-0.73758 0.74922,-0.87739 1.31159,-0.95282 1.29349,-0.173488 2.15173,-1.010139 3.40905,-3.323058 0.53756,-0.988876 0.54235,-1.015473 0.24603,-1.342887 -0.39656,-0.438228 -0.70678,-0.422602 -0.92034,0.0461 -1.46636,2.770738 -4.81479,2.16027 -4.53457,-1.23277 0.0541,-0.665654 -9.8e-4,-0.77511 -0.3934,-0.77511 z" />
    <path
       id="rect3666"
       style="fill:#5f605f;fill-opacity:1;stroke:none;stroke-width:0.264999;stroke-miterlimit:4;stroke-dasharray:none;stroke-opacity:0;paint-order:markers stroke fill"
       d="m -352.539,60.797426 c -0.29069,-0.122848 -0.62361,0.01227 -0.74646,0.302958 l -0.97628,2.310128 c -0.12286,0.290687 0.0124,0.623606 0.30295,0.746453 0.29069,0.122849 0.6236,-0.01227 0.74645,-0.302957 l 0.9763,-2.310128 c 0.12284,-0.290687 -0.0123,-0.623606 -0.30296,-0.746454 z" />
    <path
       id="path3871"
       style="fill:#fccc57;stroke:none;stroke-width:0.999994"
       d="m -360.76062,59.318354 c -0.5563,0.0084 -1.11014,0.08089 -1.64934,0.2188 -1.37558,0.351811 -2.31921,0.896679 -3.38612,1.955564 -1.0378,1.029991 -1.68995,2.183105 -1.99714,3.531348 l -0.17652,0.775351 1.42864,0.662603 c 0.78581,0.364433 1.59399,0.737502 1.79577,0.828852 0.36297,0.164317 0.36765,0.161632 0.43832,-0.239342 0.14189,-0.805176 0.0476,-0.7849 3.66654,-0.7849 0.52111,0 0.84052,0.0019 1.21007,0.0027 l 4.33895,-4.338942 c -0.63115,-0.727228 -1.41094,-1.39736 -2.09436,-1.755402 -1.1156,-0.584468 -2.35095,-0.875439 -3.57481,-0.856799 z m -7.16445,7.340966 -0.0401,0.305981 c -0.0473,0.361615 0.28627,1.923815 0.50232,2.353274 0.13308,0.264501 0.3193,0.332273 1.55668,0.566109 0.77299,0.146082 1.44674,0.272243 1.49718,0.280425 0.0504,0.0081 0.0915,-0.41147 0.0912,-0.932762 l -4.6e-4,-0.947806 -1.80342,-0.812611 z m 1.228,3.931199 c -0.0195,9.69e-4 -0.0317,0.0032 -0.0356,0.0072 -0.10036,0.100367 0.42879,0.751716 1.16327,1.431503 0.0658,0.06092 0.1332,0.119898 0.20112,0.178188 l 1.051,-1.050992 v -0.198255 l -1.17903,-0.208769 c -0.56736,-0.100531 -1.06426,-0.165371 -1.20076,-0.158844 z" />
    <path
       style="fill:#fdad42;stroke:none;stroke-width:0.999994"
       d="m -373.39213,67.291316 c -0.24011,-0.240119 -0.43657,-0.633039 -0.43657,-0.873153 0,-0.830983 0.76326,-1.309731 2.08809,-1.309731 1.67155,0 2.05939,0.246658 2.05939,1.309731 0,1.063072 -0.38784,1.309731 -2.05939,1.309731 -0.92388,0 -1.31952,-0.104589 -1.65152,-0.436578 z m 3.68522,-7.177829 c -1.00662,-1.006626 -1.14565,-1.974959 -0.36232,-2.523619 0.73081,-0.511884 1.17303,-0.418297 2.13655,0.452193 1.04801,0.946812 1.27135,1.626093 0.7808,2.374767 -0.55721,0.850406 -1.51499,0.736693 -2.55503,-0.303341 z m 15.64057,0.547938 c -0.49056,-0.748675 -0.26721,-1.427955 0.7808,-2.374768 0.96352,-0.870489 1.40573,-0.964077 2.13655,-0.452192 z m -7.74883,-3.615307 c -0.12428,-0.232219 -0.22597,-0.96894 -0.22597,-1.637155 0,-1.324827 0.47875,-2.088094 1.30973,-2.088094 0.83099,0 1.30973,0.763267 1.30973,2.088094 0,1.671544 -0.24665,2.05938 -1.30973,2.05938 -0.62466,0 -0.9192,-0.114742 -1.08376,-0.422225 z"
       id="path3873"
       sodipodi:nodetypes="ssssssssssscsccssssss" />
    <path
       style="fill:#664610;stroke:none;stroke-width:0.999994"
       d="m -364.25625,65.089403 c -0.11655,-0.303707 0.0401,-0.526029 0.55643,-0.789411 0.62966,-0.321225 2.20944,-0.357704 2.5092,-0.05793 0.43827,0.438266 0.15217,0.602749 -1.04846,0.602749 -0.71873,0 -0.98958,0.04949 -1.17145,0.214025 -0.28996,0.262329 -0.7504,0.278978 -0.84572,0.0306 z m 6.40256,-0.02566 c -0.17221,-0.172564 -0.41823,-0.218925 -1.16184,-0.218925 -1.20917,0 -1.49608,-0.163615 -1.05693,-0.602749 0.14175,-0.141761 0.43856,-0.191659 1.13125,-0.190175 1.14204,0.0023 1.91745,0.349403 1.91745,0.857964 0,0.383348 -0.50715,0.477379 -0.82993,0.153885 z"
       id="path3875"
       sodipodi:nodetypes="sssssssssscss" />
    <rect
       style="fill:#ffffff;stroke:none;stroke-width:3;paint-order:markers stroke fill"
       id="rect3869"
       width="1.9541649"
       height="32.187012"
       x="-207.50752"
       y="285.60266"
       ry="0.97708243"
       transform="rotate(45)" />
  </g>
</svg>
