<?xml version="1.0" encoding="UTF-8" standalone="no"?>
<svg
   xmlns:dc="http://purl.org/dc/elements/1.1/"
   xmlns:cc="http://creativecommons.org/ns#"
   xmlns:rdf="http://www.w3.org/1999/02/22-rdf-syntax-ns#"
   xmlns:svg="http://www.w3.org/2000/svg"
   xmlns="http://www.w3.org/2000/svg"
   xmlns:sodipodi="http://sodipodi.sourceforge.net/DTD/sodipodi-0.dtd"
   xmlns:inkscape="http://www.inkscape.org/namespaces/inkscape"
   width="26.458334mm"
   height="26.458334mm"
   viewBox="0 0 26.458334 26.458334"
   version="1.1"
   id="svg923"
   inkscape:version="1.0.1 (3bc2e813f5, 2020-09-07)"
   sodipodi:docname="shortcut-hand.svg">
  <defs
     id="defs917" />
  <sodipodi:namedview
     id="base"
     pagecolor="#ffffff"
     bordercolor="#666666"
     borderopacity="1.0"
     inkscape:pageopacity="0.0"
     inkscape:pageshadow="2"
     inkscape:zoom="3.959798"
     inkscape:cx="-30.302597"
     inkscape:cy="67.758521"
     inkscape:document-units="mm"
     inkscape:current-layer="layer1"
     inkscape:document-rotation="0"
     showgrid="false"
     fit-margin-top="0"
     fit-margin-left="0"
     fit-margin-right="0"
     fit-margin-bottom="0"
     inkscape:window-width="2560"
     inkscape:window-height="1440"
     inkscape:window-x="0"
     inkscape:window-y="0"
     inkscape:window-maximized="1" />
  <metadata
     id="metadata920">
    <rdf:RDF>
      <cc:Work
         rdf:about="">
        <dc:format>image/svg+xml</dc:format>
        <dc:type
           rdf:resource="http://purl.org/dc/dcmitype/StillImage" />
        <dc:title />
      </cc:Work>
    </rdf:RDF>
  </metadata>
  <g
     inkscape:label="Calque 1"
     inkscape:groupmode="layer"
     id="layer1"
     transform="translate(373.80541,-53.307683)">
    <g
       id="g3680"
       style="fill:#e3e7e8;fill-opacity:1;stroke:none;stroke-width:1.0776;stroke-miterlimit:4;stroke-dasharray:none;stroke-opacity:1"
       transform="matrix(0.40899391,0,0,0.40949204,-373.4561,52.912828)">
      <g
         id="g3676"
         style="opacity:1;stroke:none;stroke-width:1.0776">
        <path
           style="color:#000000;font-style:normal;font-variant:normal;font-weight:normal;font-stretch:normal;font-size:medium;line-height:normal;font-family:sans-serif;font-variant-ligatures:normal;font-variant-position:normal;font-variant-caps:normal;font-variant-numeric:normal;font-variant-alternates:normal;font-variant-east-asian:normal;font-feature-settings:normal;font-variation-settings:normal;text-indent:0;text-align:start;text-decoration:none;text-decoration-line:none;text-decoration-style:solid;text-decoration-color:#000000;letter-spacing:normal;word-spacing:normal;text-transform:none;writing-mode:lr-tb;direction:ltr;text-orientation:mixed;dominant-baseline:auto;baseline-shift:baseline;text-anchor:start;white-space:normal;shape-padding:0;shape-margin:0;inline-size:0;clip-rule:nonzero;display:inline;overflow:visible;visibility:visible;isolation:auto;mix-blend-mode:normal;color-interpolation:sRGB;color-interpolation-filters:linearRGB;solid-color:#000000;solid-opacity:1;vector-effect:none;fill:#e3e7e8;fill-opacity:1;fill-rule:nonzero;stroke:none;stroke-width:1.796;stroke-linecap:butt;stroke-linejoin:miter;stroke-miterlimit:4;stroke-dasharray:none;stroke-dashoffset:0;stroke-opacity:1;color-rendering:auto;image-rendering:auto;shape-rendering:auto;text-rendering:auto;enable-background:accumulate;stop-color:#000000;stop-opacity:1"
           d="M 42.5982,36.6476 C 31.661834,36.506312 26.016088,49.657184 33.648485,57.48927 41.280881,65.321357 54.573149,60.017067 54.7143,49.0807 54.793873,42.304807 49.373888,36.743016 42.5982,36.6476 Z"
           id="path3672" />
        <path
           style="color:#000000;font-style:normal;font-variant:normal;font-weight:normal;font-stretch:normal;font-size:medium;line-height:normal;font-family:sans-serif;font-variant-ligatures:normal;font-variant-position:normal;font-variant-caps:normal;font-variant-numeric:normal;font-variant-alternates:normal;font-variant-east-asian:normal;font-feature-settings:normal;font-variation-settings:normal;text-indent:0;text-align:start;text-decoration:none;text-decoration-line:none;text-decoration-style:solid;text-decoration-color:#000000;letter-spacing:normal;word-spacing:normal;text-transform:none;writing-mode:lr-tb;direction:ltr;text-orientation:mixed;dominant-baseline:auto;baseline-shift:baseline;text-anchor:start;white-space:normal;shape-padding:0;shape-margin:0;inline-size:0;clip-rule:nonzero;display:inline;overflow:visible;visibility:visible;isolation:auto;mix-blend-mode:normal;color-interpolation:sRGB;color-interpolation-filters:linearRGB;solid-color:#000000;solid-opacity:1;vector-effect:none;fill:#000000;fill-opacity:1;fill-rule:nonzero;stroke:none;stroke-width:1.796;stroke-linecap:butt;stroke-linejoin:miter;stroke-miterlimit:4;stroke-dasharray:none;stroke-dashoffset:0;stroke-opacity:1;color-rendering:auto;image-rendering:auto;shape-rendering:auto;text-rendering:auto;enable-background:accumulate;stop-color:#000000;stop-opacity:1"
           d="m 42.607422,35.908203 c -5.766446,-0.0745 -10.196168,3.382144 -12.126953,7.878906 -1.930786,4.496762 -1.385715,10.089072 2.638672,14.21875 4.024386,4.129679 9.601366,4.817936 14.146484,3.003907 4.545118,-1.81403 8.115028,-6.153475 8.189453,-11.919922 0.08426,-7.175284 -5.670636,-13.0806 -12.845703,-13.181641 z m -0.01953,1.480469 c 6.376309,0.08979 11.461601,5.307092 11.386718,11.683594 -0.06753,5.168872 -3.213943,8.948527 -7.257812,10.5625 -4.044403,1.614185 -8.931053,1.040299 -12.539063,-2.66211 -3.60801,-3.702408 -4.05597,-8.600189 -2.33789,-12.601562 1.718079,-4.001374 5.578127,-7.049213 10.748047,-6.982422 z"
           id="path3674" />
      </g>
      <path
         fill="#9b9b9a"
         d="m 42.511,43.3987 a 5.524,5.524 0 1 0 5.4523,5.5949 5.53,5.53 0 0 0 -5.4523,-5.5949 z"
         id="path3678"
         style="fill:#5f605f;fill-opacity:1;stroke:none;stroke-width:1.0776;stroke-miterlimit:4;stroke-dasharray:none;stroke-opacity:1" />
    </g>
    <g
       id="g3698"
       style="stroke:none;stroke-width:0.646517"
       transform="matrix(0.40899391,0,0,0.40949204,-373.4561,52.912828)">
      <path
         style="color:#000000;font-style:normal;font-variant:normal;font-weight:normal;font-stretch:normal;font-size:medium;line-height:normal;font-family:sans-serif;font-variant-ligatures:normal;font-variant-position:normal;font-variant-caps:normal;font-variant-numeric:normal;font-variant-alternates:normal;font-variant-east-asian:normal;font-feature-settings:normal;font-variation-settings:normal;text-indent:0;text-align:start;text-decoration:none;text-decoration-line:none;text-decoration-style:solid;text-decoration-color:#000000;letter-spacing:normal;word-spacing:normal;text-transform:none;writing-mode:lr-tb;direction:ltr;text-orientation:mixed;dominant-baseline:auto;baseline-shift:baseline;text-anchor:start;white-space:normal;shape-padding:0;shape-margin:0;inline-size:0;clip-rule:nonzero;display:inline;overflow:visible;visibility:visible;isolation:auto;mix-blend-mode:normal;color-interpolation:sRGB;color-interpolation-filters:linearRGB;solid-color:#000000;solid-opacity:1;vector-effect:none;fill:#fcea2b;fill-opacity:1;fill-rule:nonzero;stroke:none;stroke-width:0.344535;stroke-linecap:butt;stroke-linejoin:miter;stroke-miterlimit:4;stroke-dasharray:none;stroke-dashoffset:0;stroke-opacity:1;color-rendering:auto;image-rendering:auto;shape-rendering:auto;text-rendering:auto;enable-background:accumulate;stop-color:#000000;stop-opacity:1"
         d="m 48.112,17.604601 c 0,1.956966 -1.586434,3.5434 -3.5434,3.5434 -1.956966,0 -3.5434,-1.586434 -3.5434,-3.5434 0,-1.956966 1.586434,-3.5434 3.5434,-3.5434 1.956966,0 3.5434,1.586434 3.5434,3.5434 z"
         id="path3694" />
      <path
         style="color:#000000;font-style:normal;font-variant:normal;font-weight:normal;font-stretch:normal;font-size:medium;line-height:normal;font-family:sans-serif;font-variant-ligatures:normal;font-variant-position:normal;font-variant-caps:normal;font-variant-numeric:normal;font-variant-alternates:normal;font-variant-east-asian:normal;font-feature-settings:normal;font-variation-settings:normal;text-indent:0;text-align:start;text-decoration:none;text-decoration-line:none;text-decoration-style:solid;text-decoration-color:#000000;letter-spacing:normal;word-spacing:normal;text-transform:none;writing-mode:lr-tb;direction:ltr;text-orientation:mixed;dominant-baseline:auto;baseline-shift:baseline;text-anchor:start;white-space:normal;shape-padding:0;shape-margin:0;inline-size:0;clip-rule:nonzero;display:inline;overflow:visible;visibility:visible;isolation:auto;mix-blend-mode:normal;color-interpolation:sRGB;color-interpolation-filters:linearRGB;solid-color:#000000;solid-opacity:1;vector-effect:none;fill-opacity:1;fill-rule:nonzero;stroke:none;stroke-width:0.344535;stroke-linecap:butt;stroke-linejoin:miter;stroke-miterlimit:4;stroke-dasharray:none;stroke-dashoffset:0;stroke-opacity:1;color-rendering:auto;image-rendering:auto;shape-rendering:auto;text-rendering:auto;enable-background:accumulate;stop-color:#000000;stop-opacity:1"
         d="m 44.568359,13.919922 c -2.033705,0 -3.685547,1.651841 -3.685547,3.685547 0,2.033705 1.651842,3.683593 3.685547,3.683593 2.033706,10e-7 3.685547,-1.649888 3.685547,-3.683593 0,-2.033706 -1.651841,-3.685547 -3.685547,-3.685547 z m 0,0.283203 c 1.880227,0 3.402344,1.522117 3.402344,3.402344 0,1.880226 -1.522117,3.40039 -3.402344,3.40039 -1.880226,0 -3.40039,-1.520164 -3.40039,-3.40039 0,-1.880227 1.520164,-3.402344 3.40039,-3.402344 z"
         id="path3696" />
    </g>
    <g
       id="g3710"
       style="stroke:none;stroke-width:0.646517"
       transform="matrix(0.40899391,0,0,0.40949204,-373.4561,52.912828)">
      <path
         style="color:#000000;font-style:normal;font-variant:normal;font-weight:normal;font-stretch:normal;font-size:medium;line-height:normal;font-family:sans-serif;font-variant-ligatures:normal;font-variant-position:normal;font-variant-caps:normal;font-variant-numeric:normal;font-variant-alternates:normal;font-variant-east-asian:normal;font-feature-settings:normal;font-variation-settings:normal;text-indent:0;text-align:start;text-decoration:none;text-decoration-line:none;text-decoration-style:solid;text-decoration-color:#000000;letter-spacing:normal;word-spacing:normal;text-transform:none;writing-mode:lr-tb;direction:ltr;text-orientation:mixed;dominant-baseline:auto;baseline-shift:baseline;text-anchor:start;white-space:normal;shape-padding:0;shape-margin:0;inline-size:0;clip-rule:nonzero;display:inline;overflow:visible;visibility:visible;isolation:auto;mix-blend-mode:normal;color-interpolation:sRGB;color-interpolation-filters:linearRGB;solid-color:#000000;solid-opacity:1;vector-effect:none;fill:#fcea2b;fill-opacity:1;fill-rule:nonzero;stroke:none;stroke-width:0.344535;stroke-linecap:butt;stroke-linejoin:miter;stroke-miterlimit:4;stroke-dasharray:none;stroke-dashoffset:0;stroke-opacity:1;color-rendering:auto;image-rendering:auto;shape-rendering:auto;text-rendering:auto;enable-background:accumulate;stop-color:#000000;stop-opacity:1"
         d="m 57.7732,46.55 1,8.9712 c 0.2431,1.625 1.0247,2.3289 2.1657,2.3289 1.2029,0 2.0025,-1.1774 2.0025,-2.9466 0,0 -0.5521,-10.1825 -0.7413,-12.6232 -0.1892,-2.4407 -2.3342,-3.9331 -5.7133,-3.9331"
         id="path3706" />
      <path
         style="color:#000000;font-style:normal;font-variant:normal;font-weight:normal;font-stretch:normal;font-size:medium;line-height:normal;font-family:sans-serif;font-variant-ligatures:normal;font-variant-position:normal;font-variant-caps:normal;font-variant-numeric:normal;font-variant-alternates:normal;font-variant-east-asian:normal;font-feature-settings:normal;font-variation-settings:normal;text-indent:0;text-align:start;text-decoration:none;text-decoration-line:none;text-decoration-style:solid;text-decoration-color:#000000;letter-spacing:normal;word-spacing:normal;text-transform:none;writing-mode:lr-tb;direction:ltr;text-orientation:mixed;dominant-baseline:auto;baseline-shift:baseline;text-anchor:start;white-space:normal;shape-padding:0;shape-margin:0;inline-size:0;clip-rule:nonzero;display:inline;overflow:visible;visibility:visible;isolation:auto;mix-blend-mode:normal;color-interpolation:sRGB;color-interpolation-filters:linearRGB;solid-color:#000000;solid-opacity:1;vector-effect:none;fill-opacity:1;fill-rule:nonzero;stroke:none;stroke-width:0.344535;stroke-linecap:butt;stroke-linejoin:miter;stroke-miterlimit:4;stroke-dasharray:none;stroke-dashoffset:0;stroke-opacity:1;color-rendering:auto;image-rendering:auto;shape-rendering:auto;text-rendering:auto;enable-background:accumulate;stop-color:#000000;stop-opacity:1"
         d="m 56.486328,38.205078 v 0.283203 c 1.668646,0 3.021538,0.370676 3.972656,1.027344 0.951118,0.656668 1.508033,1.594042 1.59961,2.775391 0.188406,2.430456 0.739723,12.605815 0.740234,12.615234 -3.5e-4,0.862165 -0.196647,1.570859 -0.52539,2.054688 -0.329037,0.48426 -0.778863,0.748046 -1.333985,0.748046 -0.5413,0 -0.977659,-0.163088 -1.318359,-0.513672 C 59.280394,56.844729 59.032762,56.293445 58.914062,55.5 l -1,-8.964844 -0.28125,0.03125 1,8.972656 v 0.0039 c 0.124401,0.831555 0.389032,1.443946 0.785157,1.851562 0.396125,0.407617 0.921785,0.597657 1.521484,0.597657 0.647778,0 1.196871,-0.326308 1.568359,-0.873047 0.371489,-0.54674 0.576172,-1.308852 0.576172,-2.214844 v -0.0039 -0.0039 c 0,0 -0.55228,-10.177134 -0.742187,-12.626953 -0.09762,-1.259351 -0.707246,-2.288574 -1.720703,-2.988281 -1.013457,-0.699707 -2.424312,-1.076172 -4.134766,-1.076172 z"
         id="path3708" />
    </g>
    <path
       id="path3712"
       style="color:#000000;font-style:normal;font-variant:normal;font-weight:normal;font-stretch:normal;font-size:medium;line-height:normal;font-family:sans-serif;font-variant-ligatures:normal;font-variant-position:normal;font-variant-caps:normal;font-variant-numeric:normal;font-variant-alternates:normal;font-variant-east-asian:normal;font-feature-settings:normal;font-variation-settings:normal;text-indent:0;text-align:start;text-decoration:none;text-decoration-line:none;text-decoration-style:solid;text-decoration-color:#000000;letter-spacing:normal;word-spacing:normal;text-transform:none;writing-mode:lr-tb;direction:ltr;text-orientation:mixed;dominant-baseline:auto;baseline-shift:baseline;text-anchor:start;white-space:normal;shape-padding:0;shape-margin:0;inline-size:0;clip-rule:nonzero;display:inline;overflow:visible;visibility:visible;isolation:auto;mix-blend-mode:normal;color-interpolation:sRGB;color-interpolation-filters:linearRGB;solid-color:#000000;solid-opacity:1;vector-effect:none;fill:#00aad4;fill-opacity:1;fill-rule:nonzero;stroke:none;stroke-width:0.529164;stroke-linecap:round;stroke-linejoin:round;stroke-miterlimit:4;stroke-dasharray:none;stroke-dashoffset:0;stroke-opacity:1;color-rendering:auto;image-rendering:auto;shape-rendering:auto;text-rendering:auto;enable-background:accumulate;stop-color:#000000"
       d="m -363.30196,67.60422 -2.73975,2.739738 2.07547,6.914544 c 0.11488,0.51061 0.55301,0.886546 1.07452,0.922851 0.01,7.69e-4 0.0198,7.69e-4 0.0296,0 0.50671,-0.03408 0.88997,-0.485621 0.84194,-0.991823 -2e-4,-0.0031 -3.8e-4,-0.0058 -7.6e-4,-0.0088 l -1.29733,-9.495072 z" />
    <path
       id="path3714"
       style="color:#000000;font-style:normal;font-variant:normal;font-weight:normal;font-stretch:normal;font-size:medium;line-height:normal;font-family:sans-serif;font-variant-ligatures:normal;font-variant-position:normal;font-variant-caps:normal;font-variant-numeric:normal;font-variant-alternates:normal;font-variant-east-asian:normal;font-feature-settings:normal;font-variation-settings:normal;text-indent:0;text-align:start;text-decoration:none;text-decoration-line:none;text-decoration-style:solid;text-decoration-color:#000000;letter-spacing:normal;word-spacing:normal;text-transform:none;writing-mode:lr-tb;direction:ltr;text-orientation:mixed;dominant-baseline:auto;baseline-shift:baseline;text-anchor:start;white-space:normal;shape-padding:0;shape-margin:0;inline-size:0;clip-rule:nonzero;display:inline;overflow:visible;visibility:visible;isolation:auto;mix-blend-mode:normal;color-interpolation:sRGB;color-interpolation-filters:linearRGB;solid-color:#000000;solid-opacity:1;vector-effect:none;fill:#000000;fill-opacity:1;fill-rule:nonzero;stroke:none;stroke-width:0.529164;stroke-linecap:round;stroke-linejoin:round;stroke-miterlimit:4;stroke-dasharray:none;stroke-dashoffset:0;stroke-opacity:1;color-rendering:auto;image-rendering:auto;shape-rendering:auto;text-rendering:auto;enable-background:accumulate;stop-color:#000000"
       d="m -361.75262,66.054868 -0.41143,0.411438 c 0.11528,0.0246 0.23515,0.03398 0.35717,0.02445 l -0.0169,9.65e-4 h 2.75843 a 0.21795489,0.21822035 0 0 0 0.21803,-0.21844 0.21795489,0.21822035 0 0 0 -0.21803,-0.21844 z" />
    <path
       id="path3718"
       style="color:#000000;font-style:normal;font-variant:normal;font-weight:normal;font-stretch:normal;font-size:medium;line-height:normal;font-family:sans-serif;font-variant-ligatures:normal;font-variant-position:normal;font-variant-caps:normal;font-variant-numeric:normal;font-variant-alternates:normal;font-variant-east-asian:normal;font-feature-settings:normal;font-variation-settings:normal;text-indent:0;text-align:start;text-decoration:none;text-decoration-line:none;text-decoration-style:solid;text-decoration-color:#000000;letter-spacing:normal;word-spacing:normal;text-transform:none;writing-mode:lr-tb;direction:ltr;text-orientation:mixed;dominant-baseline:auto;baseline-shift:baseline;text-anchor:start;white-space:normal;shape-padding:0;shape-margin:0;inline-size:0;clip-rule:nonzero;display:inline;overflow:visible;visibility:visible;isolation:auto;mix-blend-mode:normal;color-interpolation:sRGB;color-interpolation-filters:linearRGB;solid-color:#000000;solid-opacity:1;vector-effect:none;fill:#00aad4;fill-opacity:1;fill-rule:nonzero;stroke:none;stroke-width:0.529164;stroke-linecap:round;stroke-linejoin:round;stroke-miterlimit:4;stroke-dasharray:none;stroke-dashoffset:0;stroke-opacity:1;color-rendering:auto;image-rendering:auto;shape-rendering:auto;text-rendering:auto;enable-background:accumulate;stop-color:#000000"
       d="m -366.56981,70.872073 -1.93894,1.938923 c -0.13294,0.306165 -0.25183,0.581481 -0.52115,1.19476 -0.19625,0.446912 -0.39846,0.905547 -0.56468,1.27486 -0.1662,0.369315 -0.30431,0.662983 -0.34108,0.729258 -0.17421,0.314065 -0.27951,0.64425 -0.2892,0.951876 -0.01,0.307626 0.0887,0.615844 0.34744,0.787696 0.006,0.0039 0.0117,0.0071 0.0177,0.01034 0.57175,0.306695 1.28911,0.09005 1.59666,-0.481404 0.14048,-0.225127 0.54636,-0.975214 0.93875,-1.705182 0.39498,-0.734798 0.75966,-1.421944 0.75966,-1.421944 0.006,-0.0115 0.0112,-0.02354 0.0152,-0.03597 l 0.50406,-1.563661 c 0.0143,-0.04482 0.0137,-0.09306 -0.002,-0.137547 z" />
    <g
       id="g3726"
       style="stroke:none;stroke-width:0.646517"
       transform="matrix(0.40899391,0,0,0.40949204,-373.4561,52.912828)">
      <path
         style="color:#000000;font-style:normal;font-variant:normal;font-weight:normal;font-stretch:normal;font-size:medium;line-height:normal;font-family:sans-serif;font-variant-ligatures:normal;font-variant-position:normal;font-variant-caps:normal;font-variant-numeric:normal;font-variant-alternates:normal;font-variant-east-asian:normal;font-feature-settings:normal;font-variation-settings:normal;text-indent:0;text-align:start;text-decoration:none;text-decoration-line:none;text-decoration-style:solid;text-decoration-color:#000000;letter-spacing:normal;word-spacing:normal;text-transform:none;writing-mode:lr-tb;direction:ltr;text-orientation:mixed;dominant-baseline:auto;baseline-shift:baseline;text-anchor:start;white-space:normal;shape-padding:0;shape-margin:0;inline-size:0;clip-rule:nonzero;display:inline;overflow:visible;visibility:visible;isolation:auto;mix-blend-mode:normal;color-interpolation:sRGB;color-interpolation-filters:linearRGB;solid-color:#000000;solid-opacity:1;vector-effect:none;fill:#00aad4;fill-opacity:1;fill-rule:nonzero;stroke:none;stroke-width:1.29303;stroke-linecap:round;stroke-linejoin:round;stroke-miterlimit:4;stroke-dasharray:none;stroke-dashoffset:0;stroke-opacity:1;color-rendering:auto;image-rendering:auto;shape-rendering:auto;text-rendering:auto;enable-background:accumulate;stop-color:#000000;stop-opacity:1"
         d="m 57.7732,46.55 1,8.9712 c 0.2431,1.625 1.0247,2.3289 2.1657,2.3289 1.2029,0 2.0025,-1.1774 2.0025,-2.9466 0,0 -0.5521,-10.1825 -0.7413,-12.6232 -0.1892,-2.4407 -2.3342,-3.9331 -5.7133,-3.9331 z"
         id="path3722" />
      <path
         style="color:#000000;font-style:normal;font-variant:normal;font-weight:normal;font-stretch:normal;font-size:medium;line-height:normal;font-family:sans-serif;font-variant-ligatures:normal;font-variant-position:normal;font-variant-caps:normal;font-variant-numeric:normal;font-variant-alternates:normal;font-variant-east-asian:normal;font-feature-settings:normal;font-variation-settings:normal;text-indent:0;text-align:start;text-decoration:none;text-decoration-line:none;text-decoration-style:solid;text-decoration-color:#000000;letter-spacing:normal;word-spacing:normal;text-transform:none;writing-mode:lr-tb;direction:ltr;text-orientation:mixed;dominant-baseline:auto;baseline-shift:baseline;text-anchor:start;white-space:normal;shape-padding:0;shape-margin:0;inline-size:0;clip-rule:nonzero;display:inline;overflow:visible;visibility:visible;isolation:auto;mix-blend-mode:normal;color-interpolation:sRGB;color-interpolation-filters:linearRGB;solid-color:#000000;solid-opacity:1;vector-effect:none;fill:#00aad4;fill-opacity:1;fill-rule:nonzero;stroke:none;stroke-width:1.29303;stroke-linecap:round;stroke-linejoin:round;stroke-miterlimit:4;stroke-dasharray:none;stroke-dashoffset:0;stroke-opacity:1;color-rendering:auto;image-rendering:auto;shape-rendering:auto;text-rendering:auto;enable-background:accumulate;stop-color:#000000;stop-opacity:1"
         d="m 56.486328,37.814453 a 0.53295827,0.53295827 0 0 0 -0.52539,0.615235 l 1.285156,8.203124 0.998047,8.947266 a 0.53295827,0.53295827 0 0 0 0.002,0.01953 c 0.132248,0.884015 0.418207,1.580284 0.890625,2.066407 0.472417,0.486122 1.122648,0.716796 1.802734,0.716796 0.775319,0 1.462654,-0.410226 1.892578,-1.042968 0.429924,-0.632742 0.642578,-1.470664 0.642578,-2.435547 a 0.53295827,0.53295827 0 0 0 -0.002,-0.0293 c 0,0 -0.550334,-10.161796 -0.742187,-12.636719 -0.105947,-1.366722 -0.789406,-2.520345 -1.888672,-3.279297 -1.099266,-0.758951 -2.587465,-1.144531 -4.355469,-1.144531 z m 0.636719,1.140625 c 1.286749,0.08828 2.375827,0.373662 3.113281,0.882813 0.865309,0.597423 1.348387,1.410397 1.431641,2.484375 0.186142,2.401254 0.737839,12.537922 0.740234,12.582031 0,0.804317 -0.18643,1.437679 -0.457031,1.835937 -0.270601,0.398259 -0.584138,0.576172 -1.011719,0.576172 -0.460914,0 -0.772702,-0.1205 -1.037109,-0.392578 -0.264408,-0.272078 -0.490711,-0.741436 -0.601563,-1.482422 l -0.998047,-8.951172 a 0.53295827,0.53295827 0 0 0 -0.0039,-0.02344 z"
         id="path3724" />
    </g>
    <g
       id="g3732"
       transform="matrix(0.21808817,0,0,0.21808817,-469.20913,-9.4841015)"
       style="stroke:none;stroke-width:0.646517">
      <path
         style="color:#000000;font-style:normal;font-variant:normal;font-weight:normal;font-stretch:normal;font-size:medium;line-height:normal;font-family:sans-serif;font-variant-ligatures:normal;font-variant-position:normal;font-variant-caps:normal;font-variant-numeric:normal;font-variant-alternates:normal;font-variant-east-asian:normal;font-feature-settings:normal;font-variation-settings:normal;text-indent:0;text-align:start;text-decoration:none;text-decoration-line:none;text-decoration-style:solid;text-decoration-color:#000000;letter-spacing:normal;word-spacing:normal;text-transform:none;writing-mode:lr-tb;direction:ltr;text-orientation:mixed;dominant-baseline:auto;baseline-shift:baseline;text-anchor:start;white-space:normal;shape-padding:0;shape-margin:0;inline-size:0;clip-rule:nonzero;display:inline;overflow:visible;visibility:visible;isolation:auto;mix-blend-mode:normal;color-interpolation:sRGB;color-interpolation-filters:linearRGB;solid-color:#000000;solid-opacity:1;vector-effect:none;fill:#00aad4;fill-opacity:1;fill-rule:nonzero;stroke:none;stroke-width:2.48064;stroke-linecap:butt;stroke-linejoin:miter;stroke-miterlimit:4;stroke-dasharray:none;stroke-dashoffset:0;stroke-opacity:1;color-rendering:auto;image-rendering:auto;shape-rendering:auto;text-rendering:auto;enable-background:accumulate;stop-color:#000000;stop-opacity:1"
         d="m 515.25977,331.50391 c -1.94307,0.057 -3.29083,0.65166 -3.94922,1.98047 l -4.56641,8.44531 0.002,0.002 c -1.38761,2.28587 -2.01536,4.95347 -1.79297,7.61914 v 12.4961 c 0,2.84932 1.36124,4.07617 3.15821,4.07617 1.86561,0 3.02344,-1.75416 3.02344,-4.25782 V 348.5645 l 1.03125,-2.08789 c 1.06037,0.79722 2.12758,1.2784 2.48242,2.55664 h 0.56836 2.99804 c 4.90705,-0.0396 9.72734,1.29585 13.91602,3.85547 l -1.11914,-7.96094 -1.11914,-7.33984 c -0.22493,-2.51111 -2.11277,-4.55459 -4.5957,-4.97461 l -7.89844,-0.99609 c -0.38748,-0.0465 -0.75936,-0.0801 -1.11524,-0.0996 -6.8e-4,-4e-5 -10e-4,4e-5 -0.002,0 -0.35644,-0.0195 -0.69764,-0.0232 -1.02148,-0.0137 z"
         id="path3728" />
      <path
         style="color:#000000;font-style:normal;font-variant:normal;font-weight:normal;font-stretch:normal;font-size:medium;line-height:normal;font-family:sans-serif;font-variant-ligatures:normal;font-variant-position:normal;font-variant-caps:normal;font-variant-numeric:normal;font-variant-alternates:normal;font-variant-east-asian:normal;font-feature-settings:normal;font-variation-settings:normal;text-indent:0;text-align:start;text-decoration:none;text-decoration-line:none;text-decoration-style:solid;text-decoration-color:#000000;letter-spacing:normal;word-spacing:normal;text-transform:none;writing-mode:lr-tb;direction:ltr;text-orientation:mixed;dominant-baseline:auto;baseline-shift:baseline;text-anchor:start;white-space:normal;shape-padding:0;shape-margin:0;inline-size:0;clip-rule:nonzero;display:inline;overflow:visible;visibility:visible;isolation:auto;mix-blend-mode:normal;color-interpolation:sRGB;color-interpolation-filters:linearRGB;solid-color:#000000;solid-opacity:1;vector-effect:none;fill:#00aad4;fill-opacity:1;fill-rule:nonzero;stroke:none;stroke-width:2.48064;stroke-linecap:butt;stroke-linejoin:miter;stroke-miterlimit:4;stroke-dasharray:none;stroke-dashoffset:0;stroke-opacity:1;color-rendering:auto;image-rendering:auto;shape-rendering:auto;text-rendering:auto;enable-background:accumulate;stop-color:#000000;stop-opacity:1"
         d="m 516.28125,330.45117 -1.05078,0.0312 c -2.13754,0.0627 -3.985,0.83141 -4.83594,2.54883 l -4.91211,9.08203 0.0703,0.0703 c -1.20457,2.29639 -1.83574,4.8568 -1.61914,7.45313 l -0.002,-0.0859 v 12.4961 c 0,1.58746 0.37946,2.86723 1.14844,3.76953 0.76898,0.9023 1.9001,1.32812 3.03125,1.32812 1.25323,0 2.37076,-0.6492 3.05078,-1.62695 0.68002,-0.97776 0.99414,-2.24292 0.99414,-3.65235 v -13.0625 l 0.38867,-0.78711 c 0.14238,0.10237 0.35099,0.24018 0.46289,0.33594 0.35236,0.30155 0.54065,0.53864 0.65625,0.95508 l 0.20703,0.74805 h 1.34571 3.00195 0.004 c 4.71617,-0.0381 9.34909,1.24688 13.375,3.70703 l 1.84765,1.12695 -1.42187,-10.10937 -1.1211,-7.34571 0.008,0.0625 c -0.26589,-2.96832 -2.50676,-5.39386 -5.44336,-5.89062 l -0.0215,-0.004 -7.92187,-1 h -0.004 c -0.40647,-0.0488 -0.79859,-0.0846 -1.17969,-0.10547 -1.6e-4,0 -0.002,1e-5 -0.002,0 -0.0197,-10e-4 -0.037,9.9e-4 -0.0566,0 z m -0.99219,2.07422 c 0.29441,-0.009 0.60639,-0.004 0.9336,0.0137 h 0.002 c 2.9e-4,0 0.006,-10e-6 0.008,0 0.32906,0.0182 0.67847,0.0498 1.04492,0.0937 l -0.006,-0.002 7.85547,0.99023 c 6e-4,1e-4 10e-4,-10e-5 0.002,0 2.02837,0.34395 3.56217,2.0053 3.74609,4.0586 l 0.002,0.0312 1.12305,7.36523 0.84375,5.99414 c -3.90915,-2.00161 -8.22594,-3.09419 -12.63672,-3.05859 h -2.99023 -0.0781 c -0.25742,-0.433 -0.47157,-0.93143 -0.80273,-1.21484 -0.53506,-0.45791 -1.07722,-0.77774 -1.55469,-1.13672 l -0.98633,-0.74219 -1.68164,3.4082 v 13.53906 c 0,1.09424 -0.26556,1.95914 -0.63086,2.48438 -0.3653,0.52524 -0.75872,0.75195 -1.37109,0.75195 -0.66582,0 -1.11373,-0.18787 -1.47461,-0.61133 -0.36089,-0.42345 -0.66211,-1.1815 -0.66211,-2.44335 v -12.53907 l -0.002,-0.041 c -0.20444,-2.45051 0.37098,-4.90272 1.64648,-7.00391 l 0.41797,-0.6875 -0.0312,-0.0293 4.21289,-7.79101 0.008,-0.0176 c 0.46585,-0.9402 1.3139,-1.36081 3.0625,-1.41211 z"
         id="path3730" />
    </g>
    <path
       id="path3740"
       style="color:#000000;font-style:normal;font-variant:normal;font-weight:normal;font-stretch:normal;font-size:medium;line-height:normal;font-family:sans-serif;font-variant-ligatures:normal;font-variant-position:normal;font-variant-caps:normal;font-variant-numeric:normal;font-variant-alternates:normal;font-variant-east-asian:normal;font-feature-settings:normal;font-variation-settings:normal;text-indent:0;text-align:start;text-decoration:none;text-decoration-line:none;text-decoration-style:solid;text-decoration-color:#000000;letter-spacing:normal;word-spacing:normal;text-transform:none;writing-mode:lr-tb;direction:ltr;text-orientation:mixed;dominant-baseline:auto;baseline-shift:baseline;text-anchor:start;white-space:normal;shape-padding:0;shape-margin:0;inline-size:0;clip-rule:nonzero;display:inline;overflow:visible;visibility:visible;isolation:auto;mix-blend-mode:normal;color-interpolation:sRGB;color-interpolation-filters:linearRGB;solid-color:#000000;solid-opacity:1;vector-effect:none;fill:#00aad4;fill-opacity:1;fill-rule:nonzero;stroke:none;stroke-width:0.529164;stroke-linecap:round;stroke-linejoin:round;stroke-miterlimit:4;stroke-dasharray:none;stroke-dashoffset:0;stroke-opacity:1;color-rendering:auto;image-rendering:auto;shape-rendering:auto;text-rendering:auto;enable-background:accumulate;stop-color:#000000"
       d="m -354.3833,58.685557 -2.28021,2.280202 c 0.2904,0.492726 0.82489,0.825459 1.43566,0.825459 0.91818,0 1.66702,-0.749709 1.66702,-1.669007 0,-0.610667 -0.33147,-1.145404 -0.82247,-1.436654 z" />
    <path
       id="path3985"
       style="fill:#ababab;stroke:none;stroke-width:1"
       d="m -361.19646,64.518634 -0.63146,0.631269 c 0.0132,0.208275 0.0254,0.412423 0.0349,0.609007 -0.12305,0.326007 -0.0828,0.419089 0.0403,0.295958 0.35076,-0.291764 0.75908,-0.06493 0.70482,-0.297349 -0.0443,-0.133671 -0.098,-0.621611 -0.14868,-1.238885 z" />
    <path
       id="path3987"
       style="fill:#fccc57;stroke:none;stroke-width:1"
       d="m -362.84277,58.965188 c -0.46291,0.007 -0.92377,0.06731 -1.37245,0.182068 -1.14464,0.292748 -1.92986,0.746145 -2.81766,1.627263 -0.86356,0.857076 -1.40623,1.816604 -1.66185,2.938504 l -0.14688,0.645184 1.1888,0.551365 c 0.65387,0.303252 1.32637,0.61369 1.49429,0.689703 0.30204,0.136733 0.30592,0.134498 0.36473,-0.19916 0.11807,-0.670003 0.0395,-0.653131 3.051,-0.653131 0.43363,0 0.69942,0.0015 1.00693,0.0023 l 3.61051,-3.610519 c -0.52519,-0.605141 -1.17407,-1.162771 -1.74274,-1.460705 -0.92832,-0.486347 -1.95627,-0.72847 -2.97468,-0.712959 z m -5.96167,6.108562 -0.0334,0.254612 c -0.0394,0.300907 0.23821,1.600844 0.41799,1.958205 0.11074,0.220096 0.2657,0.276492 1.29534,0.47107 0.64324,0.121559 1.20386,0.22654 1.24584,0.233347 0.042,0.0069 0.0761,-0.342392 0.0759,-0.776169 l -3.8e-4,-0.788688 -1.50066,-0.676189 z m 1.02183,3.271227 c -0.0162,8.07e-4 -0.0263,0.0027 -0.0296,0.006 -0.0836,0.08352 0.3568,0.625517 0.96797,1.191183 0.0548,0.0507 0.11084,0.09977 0.16736,0.148274 l 0.87455,-0.874552 V 68.65091 l -0.98109,-0.173721 c -0.47211,-0.08365 -0.88559,-0.137608 -0.99918,-0.132177 z" />
    <path
       style="fill:#fdad42;stroke:none;stroke-width:1"
       d="m -373.35369,65.599645 c -0.19981,-0.199807 -0.36328,-0.526764 -0.36328,-0.726566 0,-0.691478 0.63512,-1.089854 1.73754,-1.089854 1.39092,0 1.71366,0.20525 1.71366,1.089854 0,0.884601 -0.32274,1.089851 -1.71366,1.089851 -0.76878,0 -1.09801,-0.08703 -1.37426,-0.363285 z m 3.06655,-5.972811 c -0.83764,-0.837633 -0.95333,-1.643402 -0.30151,-2.099953 0.60813,-0.425949 0.97611,-0.348073 1.77787,0.376279 0.87207,0.787861 1.05792,1.353103 0.64972,1.97609 -0.46366,0.70764 -1.26065,0.613017 -2.12608,-0.252416 z m 13.01482,0.455949 c -0.4082,-0.622986 -0.22236,-1.188228 0.64972,-1.976089 0.80175,-0.724352 1.16973,-0.802228 1.77786,-0.376279 z m -6.44796,-3.008367 c -0.10341,-0.193233 -0.18803,-0.806274 -0.18803,-1.362309 0,-1.102414 0.39838,-1.737543 1.08985,-1.737543 0.69147,0 1.08985,0.635129 1.08985,1.737543 0,1.390926 -0.20525,1.713652 -1.08985,1.713652 -0.51979,0 -0.76488,-0.09548 -0.90182,-0.351343 z"
       id="path3989"
       sodipodi:nodetypes="ssssssssssscsccssssss" />
    <path
       style="fill:#664610;stroke:none;stroke-width:1"
       d="m -365.75155,63.76739 c -0.097,-0.25272 0.0334,-0.437719 0.46302,-0.656884 0.52395,-0.267298 1.83852,-0.297652 2.08796,-0.04821 0.36469,0.36469 0.12661,0.501559 -0.87245,0.501559 -0.59807,0 -0.82346,0.04118 -0.97479,0.178094 -0.24128,0.218289 -0.62441,0.232143 -0.70374,0.02546 z m 5.32769,-0.02135 c -0.14329,-0.143593 -0.34801,-0.182171 -0.96678,-0.182171 -1.00618,0 -1.24492,-0.136147 -0.8795,-0.50156 0.11796,-0.117961 0.36493,-0.159482 0.94134,-0.158247 0.95032,0.0019 1.59554,0.290744 1.59554,0.713928 0,0.318992 -0.42199,0.397237 -0.6906,0.12805 z"
       id="path3991"
       sodipodi:nodetypes="sssssssssscss" />
    <rect
       style="fill:#ffffff;stroke:none;stroke-width:3;paint-order:markers stroke fill"
       id="rect3993"
       width="1.6260988"
       height="26.78344"
       x="-210.17712"
       y="288.74545"
       ry="0.81304938"
       transform="rotate(45)" />
  </g>
</svg>
