<?xml version="1.0" encoding="UTF-8" standalone="no"?><!-- Generator: Gravit.io --><svg xmlns="http://www.w3.org/2000/svg" xmlns:xlink="http://www.w3.org/1999/xlink" style="isolation:isolate" viewBox="0 0 100 100" width="100pt" height="100pt"><defs><clipPath id="_clipPath_8Zxbyjj8F37IyrT7k3P6Ar72ZJ2m18lw"><rect width="100" height="100"/></clipPath></defs><g clip-path="url(#_clipPath_8Zxbyjj8F37IyrT7k3P6Ar72ZJ2m18lw)"><g><path d=" M 65.932 58 C 69.596 60.107 72.883 62.811 75.656 66 L 90 66 L 90 58 L 65.932 58 Z " fill="rgb(255,255,255)"/><circle vector-effect="non-scaling-stroke" cx="41.999999999999986" cy="34" r="16" fill="rgb(255,255,255)"/><path d=" M 42 58 C 17.692 58 10 74 10 74 L 10 82 L 74 82 L 74 74 C 74 74 66.308 58 42 58 Z  M 62.452 42 C 61.258 45.037 59.402 47.77 57.02 50 L 90 50 L 90 42 L 62.452 42 Z  M 62.472 26 C 63.444 28.484 64 31.176 64 34 L 90 34 L 90 26 L 62.472 26 Z " fill="rgb(255,255,255)"/></g></g></svg>